G04 FreePCB version 1.359*
G04 Z:\home\jason\Ubuntu One\Etherkit\git\CC-Series\pcb\CAM\bottom_copper.grb*
G04 bottom copper layer *
G04 Scale: 100 percent, Rotated: No, Reflected: No *
%FSLAX24Y24*%
%MOIN*%
%LN bottom copper *%
G04 Rounded Rectangle Macro, params: W/2, H/2, R *
%AMRNDREC*
21,1,$1+$1,$2+$2-$3-$3,0,0,0*
21,1,$1+$1-$3-$3,$2+$2,0,0,0*
1,1,$3+$3,$1-$3,$2-$3*
1,1,$3+$3,$3-$1,$2-$3*
1,1,$3+$3,$1-$3,$3-$2*
1,1,$3+$3,$3-$1,$3-$2*%
G04 Rectangular Thermal Macro, params: W/2, H/2, T/2 *
%AMRECTHERM*
$4=$3/2*
21,1,$1-$3,$2-$3,0-$1/2-$4,0-$2/2-$4,0*
21,1,$1-$3,$2-$3,0-$1/2-$4,$2/2+$4,0*
21,1,$1-$3,$2-$3,$1/2+$4,0-$2/2-$4,0*
21,1,$1-$3,$2-$3,$1/2+$4,$2/2+$4,0*%
%ADD10C,0.005000*%
%ADD11RECTHERM,0.040000X0.040000X0.007500*%
%ADD12C,0.001000*%
%ADD13C,0.080000*%
%ADD14R,0.080000X0.080000*%
%AMTHERM15*7,0,0,0.080000,0.060000,0.015000,45.0*%
%ADD15THERM15*%
%ADD16C,0.098740*%
%AMTHERM17*7,0,0,0.098740,0.078740,0.015000,45.0*%
%ADD17THERM17*%
%ADD18C,0.070000*%
%AMTHERM19*7,0,0,0.070000,0.050000,0.015000,45.0*%
%ADD19THERM19*%
%ADD20C,0.067244*%
%AMTHERM21*7,0,0,0.067244,0.047244,0.015000,45.0*%
%ADD21THERM21*%
%ADD22C,0.187480*%
%ADD23R,0.095000X0.095000*%
%AMTHERM24*7,0,0,0.170000,0.150000,0.015000,45.0*%
%ADD24THERM24*%
%ADD25RECTHERM,0.110000X0.110000X0.007500*%
%ADD26C,0.048000*%
%ADD27C,0.030000*%
%ADD28C,0.045000*%
%ADD29R,0.060000X0.060000*%
%ADD30C,0.060000*%
%ADD31C,0.078740*%
%ADD32C,0.050000*%
%ADD33C,0.047244*%
%ADD34R,0.075000X0.075000*%
%ADD35C,0.150000*%
%ADD36R,0.200000X0.200000*%
%ADD37C,0.028000*%
%ADD38C,0.010000*%
%ADD39C,0.025000*%
G90*
G70D02*

G04 Step and Repeat for panelization *

G04 ----------------------- Draw board outline (positive)*
%LPD*%
G54D10*
G01X0Y0D02*
G01X55118Y0D01*
G04 end of side 1*
G01X55118Y31496D01*
G04 end of side 2*
G01X0Y31496D01*
G04 end of side 3*
G01X0Y0D01*

G04 ----------------------- Draw copper area (positive)*
G36*
G01X54803Y314D02*
G01X314Y314D01*
G01X314Y31181D01*
G01X54803Y31181D01*
G01X54803Y314D01*
G37*

G04 -------------------- Draw copper area clearances (negative)*
%LPC*%

G04 Draw clearances for pads*
G54D11*
G01X1250Y23000D03*
G54D12*
G54D13*
G01X1250Y22000D03*
G01X1250Y21000D03*
G54D14*
G01X1187Y27118D03*
G54D13*
G01X1187Y26118D03*
G54D15*
G01X1187Y25118D03*
G54D12*
G54D14*
G01X39000Y1250D03*
G54D13*
G01X40000Y1250D03*
G01X41000Y1250D03*
G54D16*
G01X53624Y24368D03*
G54D17*
G01X53624Y25352D03*
G54D12*
G54D14*
G01X34250Y1250D03*
G54D13*
G01X35250Y1250D03*
G01X36250Y1250D03*
G54D18*
G01X50550Y29000D03*
G01X50000Y28500D03*
G54D19*
G01X49450Y29000D03*
G54D12*
G54D18*
G01X47550Y29000D03*
G01X47000Y28500D03*
G54D19*
G01X46450Y29000D03*
G54D12*
G54D16*
G01X45124Y21868D03*
G01X46108Y21868D03*
G01X44500Y28000D03*
G54D17*
G01X44500Y28984D03*
G54D12*
G54D16*
G01X45750Y19500D03*
G54D17*
G01X44765Y19500D03*
G54D12*
G54D16*
G01X47374Y21868D03*
G01X48358Y21868D03*
G01X48000Y19500D03*
G54D17*
G01X47015Y19500D03*
G54D12*
G54D14*
G01X12500Y30250D03*
G54D13*
G01X13500Y30250D03*
G54D15*
G01X14500Y30250D03*
G54D12*
G54D14*
G01X5000Y4500D03*
G54D16*
G01X49874Y21868D03*
G01X50858Y21868D03*
G54D14*
G01X33000Y4000D03*
G01X27874Y3368D03*
G01X31124Y16868D03*
G01X42624Y29868D03*
G01X39874Y19368D03*
G01X36874Y16618D03*
G01X33374Y14368D03*
G54D20*
G01X37674Y7868D03*
G01X34974Y7868D03*
G01X36924Y10868D03*
G54D21*
G01X34224Y10868D03*
G54D12*
G54D20*
G01X45500Y7700D03*
G54D21*
G01X45500Y10400D03*
G54D12*
G54D20*
G01X43750Y8800D03*
G54D21*
G01X43750Y6100D03*
G54D12*
G54D20*
G01X39750Y8800D03*
G01X39750Y6100D03*
G54D14*
G01X7250Y30250D03*
G54D15*
G01X8250Y30250D03*
G54D12*
G54D14*
G01X10250Y30250D03*
G54D15*
G01X11250Y30250D03*
G54D12*
G54D21*
G01X22774Y21590D03*
G54D12*
G54D20*
G01X21874Y20646D03*
G54D21*
G01X15774Y21340D03*
G54D12*
G54D20*
G01X14874Y20396D03*
G01X34224Y19896D03*
G01X35124Y20840D03*
G54D21*
G01X36474Y23146D03*
G54D12*
G54D20*
G01X37374Y24090D03*
G01X9374Y14618D03*
G01X9374Y13476D03*
G01X18624Y12618D03*
G01X18624Y13760D03*
G01X18000Y4468D03*
G01X18000Y3326D03*
G01X12250Y9750D03*
G01X11108Y9750D03*
G01X45124Y25709D03*
G01X44139Y24527D03*
G01X47374Y25709D03*
G01X46389Y24527D03*
G01X48624Y24527D03*
G01X49608Y25709D03*
G01X50874Y24527D03*
G01X51858Y25709D03*
G01X42100Y13000D03*
G01X40918Y13000D03*
G54D22*
G01X41500Y10800D03*
G54D23*
G01X53124Y22368D03*
G54D24*
G01X53124Y20368D03*
G54D12*
G54D14*
G01X1187Y17118D03*
G54D13*
G01X1187Y16118D03*
G54D15*
G01X1187Y15118D03*
G54D12*
G54D14*
G01X53624Y13368D03*
G54D15*
G01X53624Y14368D03*
G54D12*
G54D25*
G01X1377Y1377D03*
G54D12*
G54D25*
G01X53740Y1377D03*
G54D12*
G54D25*
G01X53740Y30118D03*
G54D12*
G54D25*
G01X1377Y30118D03*
G54D12*
G54D11*
G01X19500Y8250D03*
G54D12*

G04 Draw clearances for traces*
G54D26*
G01X46500Y4700D03*
G01X46500Y3400D03*
G54D27*
G01X46500Y4700D02*
G01X46500Y3400D01*
G54D26*
G01X31800Y7200D03*
G54D27*
G01X31800Y7200D02*
G01X33700Y7200D01*
G01X33700Y7200D02*
G01X34100Y6800D01*
G01X34100Y6800D02*
G01X34100Y5100D01*
G01X34100Y5100D02*
G01X34500Y4700D01*
G54D26*
G01X38300Y4700D03*
G54D27*
G01X34500Y4700D02*
G01X38300Y4700D01*
G54D26*
G01X36700Y2900D03*
G54D27*
G01X36700Y2900D02*
G01X37200Y2400D01*
G01X37200Y2400D02*
G01X46900Y2400D01*
G01X46900Y2400D02*
G01X47100Y2600D01*
G54D26*
G01X47100Y3100D03*
G54D27*
G01X47100Y2600D02*
G01X47100Y3100D01*
G54D26*
G01X46600Y5200D03*
G01X45000Y5200D03*
G54D27*
G01X46600Y5200D02*
G01X45000Y5200D01*
G54D26*
G01X33974Y12068D03*
G54D27*
G01X33974Y12068D02*
G01X33668Y12068D01*
G01X33668Y12068D02*
G01X32900Y11300D01*
G01X32900Y11300D02*
G01X30700Y11300D01*
G01X30700Y11300D02*
G01X30100Y11900D01*
G01X30100Y11900D02*
G01X29500Y11900D01*
G01X29500Y11900D02*
G01X28700Y12700D01*
G01X28700Y12700D02*
G01X28200Y12700D01*
G01X28200Y12700D02*
G01X27900Y12400D01*
G54D26*
G01X27900Y12100D03*
G54D27*
G01X27900Y12400D02*
G01X27900Y12100D01*
G54D26*
G01X45600Y17300D03*
G54D27*
G01X45600Y17300D02*
G01X37700Y17300D01*
G01X37700Y17300D02*
G01X37018Y16618D01*
G01X37018Y16618D02*
G01X36874Y16618D01*
G54D26*
G01X27800Y10100D03*
G54D27*
G01X27800Y10100D02*
G01X26900Y11000D01*
G01X26900Y11000D02*
G01X18800Y11000D01*
G01X18800Y11000D02*
G01X17600Y12200D01*
G01X17600Y12200D02*
G01X17600Y13200D01*
G01X17600Y13200D02*
G01X16800Y14000D01*
G01X16800Y14000D02*
G01X4500Y14000D01*
G54D26*
G01X1800Y11300D03*
G54D27*
G01X4500Y14000D02*
G01X1800Y11300D01*
G54D26*
G01X2800Y23400D03*
G54D27*
G01X2800Y23400D02*
G01X5700Y23400D01*
G54D26*
G01X6500Y24200D03*
G54D27*
G01X5700Y23400D02*
G01X6500Y24200D01*
G54D26*
G01X45800Y16100D03*
G54D27*
G01X45800Y16100D02*
G01X45800Y15100D01*
G01X45800Y15100D02*
G01X46400Y14500D01*
G01X46400Y14500D02*
G01X46400Y6900D01*
G01X46400Y6900D02*
G01X47000Y6300D01*
G54D26*
G01X51500Y6300D03*
G54D27*
G01X47000Y6300D02*
G01X51500Y6300D01*
G54D26*
G01X19100Y27000D03*
G01X19100Y30800D03*
G54D27*
G01X19100Y27000D02*
G01X19100Y30800D01*
G54D26*
G01X2600Y27600D03*
G01X2600Y25500D03*
G54D27*
G01X2600Y27600D02*
G01X2600Y25500D01*
G54D26*
G01X14400Y24500D03*
G54D27*
G01X14400Y24500D02*
G01X14400Y25400D01*
G54D26*
G01X13900Y25900D03*
G54D27*
G01X14400Y25400D02*
G01X13900Y25900D01*
G54D26*
G01X16000Y23100D03*
G54D27*
G01X16000Y23100D02*
G01X15700Y23400D01*
G01X15700Y23400D02*
G01X15700Y24600D01*
G54D26*
G01X15700Y26000D03*
G54D27*
G01X15700Y24600D02*
G01X15700Y26000D01*
G54D26*
G01X19100Y27000D03*
G01X19100Y30800D03*
G54D27*
G01X19100Y27000D02*
G01X19100Y30800D01*
G01X40000Y1250D02*
G01X40000Y1700D01*
G01X40000Y1700D02*
G01X40200Y1900D01*
G01X40200Y1900D02*
G01X43800Y1900D01*
G01X43800Y1900D02*
G01X47600Y1900D01*
G01X47600Y1900D02*
G01X48300Y2600D01*
G54D26*
G01X48300Y5700D03*
G54D27*
G01X48300Y2600D02*
G01X48300Y5700D01*
G54D26*
G01X30900Y22600D03*
G54D27*
G01X30900Y22600D02*
G01X30900Y21900D01*
G01X30900Y21900D02*
G01X31300Y21500D01*
G54D26*
G01X32800Y21500D03*
G54D27*
G01X31300Y21500D02*
G01X32800Y21500D01*
G54D26*
G01X16600Y26600D03*
G54D27*
G01X16600Y26600D02*
G01X16900Y26900D01*
G01X16900Y26900D02*
G01X17500Y26900D01*
G01X17500Y26900D02*
G01X17800Y27200D01*
G54D26*
G01X17800Y27800D03*
G54D27*
G01X17800Y27200D02*
G01X17800Y27800D01*
G54D26*
G01X8100Y18100D03*
G01X7100Y18100D03*
G54D27*
G01X8100Y18100D02*
G01X7100Y18100D01*
G54D26*
G01X2600Y13900D03*
G54D27*
G01X2600Y13900D02*
G01X1200Y13900D01*
G01X1200Y13900D02*
G01X600Y13300D01*
G54D26*
G01X600Y11100D03*
G54D27*
G01X600Y13300D02*
G01X600Y11100D01*
G54D26*
G01X6000Y11000D03*
G54D27*
G01X6000Y11000D02*
G01X6800Y11800D01*
G01X6800Y11800D02*
G01X7500Y12500D01*
G01X7500Y12500D02*
G01X7500Y12900D01*
G54D26*
G01X6900Y13500D03*
G54D27*
G01X7500Y12900D02*
G01X6900Y13500D01*
G54D26*
G01X7900Y25000D03*
G54D27*
G01X7900Y25000D02*
G01X8400Y25000D01*
G01X8400Y25000D02*
G01X8700Y24700D01*
G54D26*
G01X8700Y22500D03*
G54D27*
G01X8700Y24700D02*
G01X8700Y22500D01*
G54D26*
G01X8600Y18000D03*
G54D27*
G01X8600Y18000D02*
G01X8600Y16000D01*
G01X8600Y16000D02*
G01X7900Y15300D01*
G54D26*
G01X6100Y15300D03*
G54D27*
G01X7900Y15300D02*
G01X6100Y15300D01*
G54D26*
G01X8000Y24200D03*
G54D27*
G01X8000Y24200D02*
G01X8000Y21500D01*
G01X8000Y21500D02*
G01X8400Y21100D01*
G01X8400Y21100D02*
G01X11200Y21100D01*
G01X11200Y21100D02*
G01X11600Y20700D01*
G54D26*
G01X11600Y19500D03*
G54D27*
G01X11600Y20700D02*
G01X11600Y19500D01*
G54D26*
G01X8900Y11500D03*
G54D27*
G01X8900Y11500D02*
G01X8900Y10900D01*
G01X8900Y10900D02*
G01X8600Y10600D01*
G01X8600Y10600D02*
G01X7800Y10600D01*
G01X7800Y10600D02*
G01X7600Y10400D01*
G54D26*
G01X7600Y9200D03*
G54D27*
G01X7600Y10400D02*
G01X7600Y9200D01*
G54D26*
G01X33100Y19200D03*
G54D27*
G01X33100Y19200D02*
G01X29600Y19200D01*
G01X29600Y19200D02*
G01X29100Y18700D01*
G01X29100Y18700D02*
G01X29100Y14900D01*
G01X29100Y14900D02*
G01X29400Y14600D01*
G01X29400Y14600D02*
G01X32000Y14600D01*
G01X32000Y14600D02*
G01X32500Y14100D01*
G01X32500Y14100D02*
G01X32500Y12300D01*
G01X32500Y12300D02*
G01X32100Y11900D01*
G01X32100Y11900D02*
G01X31100Y11900D01*
G01X31100Y11900D02*
G01X30600Y12400D01*
G54D26*
G01X29500Y12400D03*
G54D27*
G01X30600Y12400D02*
G01X29500Y12400D01*
G54D26*
G01X29500Y11500D03*
G54D27*
G01X29500Y11500D02*
G01X29100Y11100D01*
G01X29100Y11100D02*
G01X29100Y7300D01*
G54D26*
G01X27900Y6100D03*
G54D27*
G01X29100Y7300D02*
G01X27900Y6100D01*
G54D26*
G01X5500Y10300D03*
G54D27*
G01X5500Y10300D02*
G01X5500Y12000D01*
G01X5500Y12000D02*
G01X6400Y12900D01*
G54D26*
G01X6900Y12900D03*
G54D27*
G01X6400Y12900D02*
G01X6900Y12900D01*
G54D26*
G01X6700Y3400D03*
G01X5300Y3400D03*
G54D27*
G01X6700Y3400D02*
G01X5300Y3400D01*
G01X1187Y17118D02*
G01X2518Y17118D01*
G01X2518Y17118D02*
G01X2900Y17500D01*
G01X2900Y17500D02*
G01X4200Y18800D01*
G01X4200Y18800D02*
G01X11600Y18800D01*
G01X11600Y18800D02*
G01X11900Y19100D01*
G01X11900Y19100D02*
G01X11900Y22700D01*
G01X11900Y22700D02*
G01X12400Y23200D01*
G54D26*
G01X12900Y23200D03*
G54D27*
G01X12400Y23200D02*
G01X12900Y23200D01*
G54D26*
G01X12900Y24100D03*
G01X12900Y27500D03*
G54D27*
G01X12900Y24100D02*
G01X12900Y27500D01*
G54D26*
G01X8800Y20600D03*
G54D27*
G01X8800Y20600D02*
G01X7700Y19500D01*
G01X7700Y19500D02*
G01X4300Y19500D01*
G01X4300Y19500D02*
G01X2800Y18000D01*
G01X2800Y18000D02*
G01X2100Y18000D01*
G01X2100Y18000D02*
G01X800Y19300D01*
G01X800Y19300D02*
G01X800Y23700D01*
G01X800Y23700D02*
G01X1200Y24100D01*
G01X1200Y24100D02*
G01X5000Y24100D01*
G01X5000Y24100D02*
G01X5600Y24700D01*
G01X5600Y24700D02*
G01X5600Y25700D01*
G01X5600Y25700D02*
G01X6100Y26200D01*
G54D26*
G01X7500Y26200D03*
G54D27*
G01X6100Y26200D02*
G01X7500Y26200D01*
G54D26*
G01X16200Y28700D03*
G54D27*
G01X16200Y28700D02*
G01X16300Y28600D01*
G01X16300Y28600D02*
G01X16300Y24900D01*
G01X16300Y24900D02*
G01X16700Y24500D01*
G54D26*
G01X24400Y24500D03*
G54D27*
G01X16700Y24500D02*
G01X24400Y24500D01*
G54D26*
G01X43000Y23600D03*
G54D27*
G01X43000Y23600D02*
G01X43300Y23300D01*
G01X43300Y23300D02*
G01X43300Y21300D01*
G01X43300Y21300D02*
G01X43300Y19300D01*
G01X43300Y19300D02*
G01X43900Y18700D01*
G01X43900Y18700D02*
G01X47500Y18700D01*
G01X47500Y18700D02*
G01X47900Y18300D01*
G54D26*
G01X47900Y16600D03*
G54D27*
G01X47900Y18300D02*
G01X47900Y16600D01*
G54D26*
G01X32074Y12568D03*
G54D27*
G01X32074Y12568D02*
G01X32074Y13268D01*
G01X32074Y13268D02*
G01X31574Y13768D01*
G01X31574Y13768D02*
G01X25174Y13768D01*
G01X25174Y13768D02*
G01X23574Y15368D01*
G54D26*
G01X12674Y15368D03*
G54D27*
G01X23574Y15368D02*
G01X12674Y15368D01*
G54D26*
G01X38000Y18000D03*
G54D27*
G01X38000Y18000D02*
G01X30400Y18000D01*
G01X30400Y18000D02*
G01X29900Y17500D01*
G54D26*
G01X29900Y16700D03*
G54D27*
G01X29900Y17500D02*
G01X29900Y16700D01*
G54D26*
G01X38400Y12000D03*
G54D27*
G01X38400Y12000D02*
G01X38900Y11500D01*
G01X38900Y11500D02*
G01X38900Y11200D01*
G54D26*
G01X38900Y9100D03*
G54D27*
G01X38900Y11200D02*
G01X38900Y9100D01*
G54D26*
G01X17000Y30400D03*
G54D27*
G01X17000Y30400D02*
G01X17000Y30000D01*
G01X17000Y30000D02*
G01X17300Y29700D01*
G01X17300Y29700D02*
G01X17300Y27600D01*
G01X17300Y27600D02*
G01X16900Y27200D01*
G54D26*
G01X16600Y27200D03*
G54D27*
G01X16900Y27200D02*
G01X16600Y27200D01*
G54D26*
G01X11500Y7000D03*
G54D27*
G01X11500Y7000D02*
G01X27800Y7000D01*
G01X27800Y7000D02*
G01X28600Y7800D01*
G01X28600Y7800D02*
G01X28600Y10200D01*
G01X28600Y10200D02*
G01X26900Y11900D01*
G01X26900Y11900D02*
G01X23900Y11900D01*
G54D26*
G01X22300Y13500D03*
G54D27*
G01X23900Y11900D02*
G01X22300Y13500D01*
G54D26*
G01X46100Y3400D03*
G54D27*
G01X46100Y3400D02*
G01X46100Y4300D01*
G01X46100Y4300D02*
G01X45800Y4600D01*
G01X45800Y4600D02*
G01X44200Y4600D01*
G01X44200Y4600D02*
G01X43700Y4600D01*
G01X43700Y4600D02*
G01X43300Y5000D01*
G01X43300Y5000D02*
G01X43300Y6700D01*
G01X43300Y6700D02*
G01X42500Y7500D01*
G01X42500Y7500D02*
G01X40400Y7500D01*
G01X40400Y7500D02*
G01X39200Y8700D01*
G01X39200Y8700D02*
G01X34100Y8700D01*
G01X34100Y8700D02*
G01X33500Y8100D01*
G54D26*
G01X30400Y8100D03*
G54D27*
G01X33500Y8100D02*
G01X30400Y8100D01*
G54D26*
G01X28200Y8100D03*
G54D27*
G01X28200Y8100D02*
G01X27600Y8100D01*
G01X27600Y8100D02*
G01X27400Y8300D01*
G01X27400Y8300D02*
G01X27400Y9500D01*
G01X27400Y9500D02*
G01X26800Y10100D01*
G01X26800Y10100D02*
G01X18800Y10100D01*
G01X18800Y10100D02*
G01X17000Y11900D01*
G01X17000Y11900D02*
G01X17000Y12500D01*
G01X17000Y12500D02*
G01X16700Y12800D01*
G01X16700Y12800D02*
G01X15000Y12800D01*
G01X15000Y12800D02*
G01X14600Y13200D01*
G54D26*
G01X14600Y13700D03*
G54D27*
G01X14600Y13200D02*
G01X14600Y13700D01*
G54D26*
G01X26074Y14268D03*
G54D27*
G01X26074Y14268D02*
G01X26074Y14568D01*
G01X26074Y14568D02*
G01X26374Y14868D01*
G01X26374Y14868D02*
G01X26974Y14868D01*
G01X26974Y14868D02*
G01X27274Y15168D01*
G54D26*
G01X27274Y17068D03*
G54D27*
G01X27274Y15168D02*
G01X27274Y17068D01*
G54D26*
G01X24000Y26100D03*
G54D27*
G01X24000Y26100D02*
G01X17900Y26100D01*
G01X17900Y26100D02*
G01X17400Y25600D01*
G54D26*
G01X17400Y24900D03*
G54D27*
G01X17400Y25600D02*
G01X17400Y24900D01*
G54D26*
G01X37174Y15868D03*
G54D27*
G01X37174Y15868D02*
G01X39974Y15868D01*
G01X39974Y15868D02*
G01X40174Y16068D01*
G01X40174Y16068D02*
G01X40174Y16374D01*
G01X40174Y16374D02*
G01X40300Y16500D01*
G54D26*
G01X45000Y16500D03*
G54D27*
G01X40300Y16500D02*
G01X45000Y16500D01*
G54D26*
G01X12274Y14568D03*
G54D27*
G01X12274Y14568D02*
G01X23574Y14568D01*
G01X23574Y14568D02*
G01X25474Y12668D01*
G54D26*
G01X26574Y12668D03*
G54D27*
G01X25474Y12668D02*
G01X26574Y12668D01*
G54D26*
G01X11700Y13600D03*
G54D27*
G01X11700Y13600D02*
G01X11700Y12500D01*
G01X11700Y12500D02*
G01X11400Y12200D01*
G54D26*
G01X8900Y12200D03*
G54D27*
G01X11400Y12200D02*
G01X8900Y12200D01*
G54D26*
G01X9000Y17900D03*
G54D27*
G01X9000Y17900D02*
G01X9000Y15700D01*
G01X9000Y15700D02*
G01X7800Y14500D01*
G01X7800Y14500D02*
G01X900Y14500D01*
G01X900Y14500D02*
G01X500Y14900D01*
G01X500Y14900D02*
G01X500Y24100D01*
G01X500Y24100D02*
G01X900Y24500D01*
G01X900Y24500D02*
G01X3200Y24500D01*
G01X3200Y24500D02*
G01X3700Y25000D01*
G54D26*
G01X3700Y25600D03*
G54D27*
G01X3700Y25000D02*
G01X3700Y25600D01*
G54D26*
G01X7600Y11700D03*
G54D27*
G01X7600Y11700D02*
G01X6700Y10800D01*
G54D26*
G01X6700Y7200D03*
G54D27*
G01X6700Y10800D02*
G01X6700Y7200D01*
G54D26*
G01X15600Y30700D03*
G54D27*
G01X15600Y30700D02*
G01X15200Y31100D01*
G01X15200Y31100D02*
G01X6800Y31100D01*
G01X6800Y31100D02*
G01X6100Y30400D01*
G01X6100Y30400D02*
G01X6100Y26900D01*
G01X6100Y26900D02*
G01X5800Y26600D01*
G01X5800Y26600D02*
G01X5400Y26200D01*
G54D26*
G01X3200Y26200D03*
G54D27*
G01X5400Y26200D02*
G01X3200Y26200D01*
G54D26*
G01X49200Y15100D03*
G54D28*
G01X49200Y15100D02*
G01X49200Y19900D01*
G01X49200Y19900D02*
G01X48600Y20500D01*
G01X48600Y20500D02*
G01X45000Y20500D01*
G01X45000Y20500D02*
G01X44500Y21000D01*
G54D26*
G01X44500Y22400D03*
G54D28*
G01X44500Y21000D02*
G01X44500Y22400D01*
G54D26*
G01X51600Y13400D03*
G54D28*
G01X51600Y13400D02*
G01X51600Y14800D01*
G01X51600Y14800D02*
G01X51300Y15100D01*
G54D26*
G01X49200Y15100D03*
G54D28*
G01X51300Y15100D02*
G01X49200Y15100D01*
G54D26*
G01X2000Y4600D03*
G54D27*
G01X2000Y4600D02*
G01X2000Y4200D01*
G01X2000Y4200D02*
G01X2600Y3600D01*
G01X2600Y3600D02*
G01X4000Y3600D01*
G01X4000Y3600D02*
G01X4400Y3200D01*
G01X4400Y3200D02*
G01X4400Y2300D01*
G01X4400Y2300D02*
G01X4900Y1800D01*
G54D26*
G01X10100Y1800D03*
G54D27*
G01X4900Y1800D02*
G01X10100Y1800D01*
G54D26*
G01X39300Y9500D03*
G01X39300Y11700D03*
G54D27*
G01X39300Y9500D02*
G01X39300Y11700D01*
G54D26*
G01X25000Y26100D03*
G54D27*
G01X25000Y26100D02*
G01X25000Y25700D01*
G01X25000Y25700D02*
G01X24600Y25300D01*
G54D26*
G01X17900Y25300D03*
G54D27*
G01X24600Y25300D02*
G01X17900Y25300D01*
G54D26*
G01X26900Y27500D03*
G54D27*
G01X26900Y27500D02*
G01X26900Y30800D01*
G01X26900Y30800D02*
G01X26700Y31000D01*
G01X26700Y31000D02*
G01X23100Y31000D01*
G01X23100Y31000D02*
G01X23000Y30900D01*
G54D26*
G01X23000Y29600D03*
G54D27*
G01X23000Y30900D02*
G01X23000Y29600D01*
G54D26*
G01X12600Y17000D03*
G54D27*
G01X12600Y17000D02*
G01X11600Y16000D01*
G01X11600Y16000D02*
G01X10300Y16000D01*
G01X10300Y16000D02*
G01X10000Y15700D01*
G54D26*
G01X10000Y15400D03*
G54D27*
G01X10000Y15700D02*
G01X10000Y15400D01*
G54D26*
G01X7500Y20500D03*
G54D27*
G01X7500Y20500D02*
G01X2100Y20500D01*
G01X2100Y20500D02*
G01X1600Y21000D01*
G01X1600Y21000D02*
G01X1250Y21000D01*
G54D26*
G01X25000Y30700D03*
G54D27*
G01X25000Y30700D02*
G01X23600Y30700D01*
G01X23600Y30700D02*
G01X23400Y30500D01*
G01X23400Y30500D02*
G01X23400Y29400D01*
G01X23400Y29400D02*
G01X23200Y29200D01*
G01X23200Y29200D02*
G01X20100Y29200D01*
G01X20100Y29200D02*
G01X19500Y28600D01*
G01X19500Y28600D02*
G01X19500Y26800D01*
G01X19500Y26800D02*
G01X19300Y26600D01*
G01X19300Y26600D02*
G01X17100Y26600D01*
G01X17100Y26600D02*
G01X16600Y26100D01*
G54D26*
G01X16600Y25600D03*
G54D27*
G01X16600Y26100D02*
G01X16600Y25600D01*
G54D26*
G01X34574Y23868D03*
G54D28*
G01X34574Y23868D02*
G01X34574Y23068D01*
G01X34574Y23068D02*
G01X35574Y22068D01*
G54D26*
G01X39374Y22068D03*
G54D28*
G01X35574Y22068D02*
G01X39374Y22068D01*
G54D26*
G01X47300Y13100D03*
G54D28*
G01X47300Y13100D02*
G01X47300Y17900D01*
G01X47300Y17900D02*
G01X47000Y18200D01*
G01X47000Y18200D02*
G01X43500Y18200D01*
G01X43500Y18200D02*
G01X42800Y18900D01*
G01X42800Y18900D02*
G01X42800Y21100D01*
G01X42800Y21100D02*
G01X42800Y22900D01*
G01X42800Y22900D02*
G01X41600Y22900D01*
G54D26*
G01X40000Y22900D03*
G54D28*
G01X41600Y22900D02*
G01X40000Y22900D01*
G54D26*
G01X9200Y24700D03*
G54D27*
G01X9200Y24700D02*
G01X8500Y25400D01*
G01X8500Y25400D02*
G01X7200Y25400D01*
G01X7200Y25400D02*
G01X7000Y25200D01*
G01X7000Y25200D02*
G01X7000Y21400D01*
G01X7000Y21400D02*
G01X7400Y21000D01*
G01X7400Y21000D02*
G01X7700Y21000D01*
G01X7700Y21000D02*
G01X7900Y20800D01*
G01X7900Y20800D02*
G01X7900Y20400D01*
G01X7900Y20400D02*
G01X7600Y20100D01*
G01X7600Y20100D02*
G01X4300Y20100D01*
G54D26*
G01X2900Y18700D03*
G54D27*
G01X4300Y20100D02*
G01X2900Y18700D01*
G54D26*
G01X16000Y27200D03*
G54D27*
G01X16000Y27200D02*
G01X16000Y27900D01*
G01X16000Y27900D02*
G01X15900Y28000D01*
G01X15900Y28000D02*
G01X12500Y28000D01*
G54D26*
G01X9200Y24700D03*
G54D27*
G01X12500Y28000D02*
G01X9200Y24700D01*
G54D26*
G01X16000Y27200D03*
G54D27*
G01X16000Y27200D02*
G01X16000Y23800D01*
G01X16000Y23800D02*
G01X18000Y21800D01*
G01X18000Y21800D02*
G01X18000Y17700D01*
G01X18000Y17700D02*
G01X19100Y16600D01*
G01X19100Y16600D02*
G01X24600Y16600D01*
G54D26*
G01X25400Y15800D03*
G54D27*
G01X24600Y16600D02*
G01X25400Y15800D01*
G54D26*
G01X51900Y19600D03*
G54D27*
G01X51900Y19600D02*
G01X51900Y22600D01*
G01X51900Y22600D02*
G01X52500Y23200D01*
G01X52500Y23200D02*
G01X52500Y27000D01*
G01X52500Y27000D02*
G01X52300Y27200D01*
G01X52300Y27200D02*
G01X43700Y27200D01*
G01X43700Y27200D02*
G01X43500Y27000D01*
G01X43500Y27000D02*
G01X43500Y26000D01*
G01X43500Y26000D02*
G01X42300Y24800D01*
G54D26*
G01X26600Y24800D03*
G54D27*
G01X42300Y24800D02*
G01X26600Y24800D01*
G01X13500Y30250D02*
G01X13500Y30300D01*
G01X13500Y30300D02*
G01X13500Y29900D01*
G01X13500Y29900D02*
G01X13700Y29700D01*
G01X13700Y29700D02*
G01X16700Y29700D01*
G01X16700Y29700D02*
G01X17000Y29400D01*
G54D26*
G01X17000Y28400D03*
G54D27*
G01X17000Y29400D02*
G01X17000Y28400D01*
G54D26*
G01X48874Y13868D03*
G54D27*
G01X48874Y13868D02*
G01X49474Y14468D01*
G54D26*
G01X51174Y14468D03*
G54D27*
G01X49474Y14468D02*
G01X51174Y14468D01*
G54D26*
G01X15300Y11300D03*
G54D27*
G01X15300Y11300D02*
G01X13500Y11300D01*
G01X13500Y11300D02*
G01X13100Y11700D01*
G54D26*
G01X13100Y13100D03*
G54D27*
G01X13100Y11700D02*
G01X13100Y13100D01*
G54D26*
G01X16600Y28400D03*
G54D27*
G01X16600Y28400D02*
G01X16600Y29300D01*
G01X16600Y29300D02*
G01X16400Y29500D01*
G01X16400Y29500D02*
G01X12700Y29500D01*
G01X12700Y29500D02*
G01X12500Y29700D01*
G01X12500Y29700D02*
G01X12500Y30200D01*
G01X12500Y30200D02*
G01X12500Y30250D01*
G54D26*
G01X9800Y24600D03*
G54D27*
G01X9800Y24600D02*
G01X9800Y24200D01*
G01X9800Y24200D02*
G01X9400Y23800D01*
G01X9400Y23800D02*
G01X9400Y22700D01*
G54D26*
G01X9200Y22500D03*
G54D27*
G01X9400Y22700D02*
G01X9200Y22500D01*
G54D26*
G01X10600Y18100D03*
G54D27*
G01X10600Y18100D02*
G01X9900Y18100D01*
G01X9900Y18100D02*
G01X9500Y17700D01*
G01X9500Y17700D02*
G01X9500Y15600D01*
G01X9500Y15600D02*
G01X8100Y14200D01*
G01X8100Y14200D02*
G01X4200Y14200D01*
G01X4200Y14200D02*
G01X500Y10500D01*
G01X500Y10500D02*
G01X500Y3400D01*
G01X500Y3400D02*
G01X900Y3000D01*
G01X900Y3000D02*
G01X3000Y3000D01*
G01X3000Y3000D02*
G01X3200Y2800D01*
G01X3200Y2800D02*
G01X3200Y2000D01*
G01X3200Y2000D02*
G01X4500Y700D01*
G01X4500Y700D02*
G01X51400Y700D01*
G01X51400Y700D02*
G01X52000Y1300D01*
G01X52000Y1300D02*
G01X52000Y2800D01*
G01X52000Y2800D02*
G01X51600Y3200D01*
G01X51600Y3200D02*
G01X51100Y3200D01*
G01X51100Y3200D02*
G01X50800Y3500D01*
G54D26*
G01X50800Y4000D03*
G54D27*
G01X50800Y3500D02*
G01X50800Y4000D01*
G54D26*
G01X29400Y30800D03*
G54D27*
G01X29400Y30800D02*
G01X31800Y30800D01*
G01X31800Y30800D02*
G01X32300Y30300D01*
G54D26*
G01X32300Y26200D03*
G54D27*
G01X32300Y30300D02*
G01X32300Y26200D01*
G54D26*
G01X13400Y27200D03*
G01X13400Y24100D03*
G54D27*
G01X13400Y27200D02*
G01X13400Y24100D01*
G54D26*
G01X13400Y22500D03*
G54D27*
G01X13400Y22500D02*
G01X12500Y22500D01*
G01X12500Y22500D02*
G01X12300Y22300D01*
G01X12300Y22300D02*
G01X12300Y18800D01*
G01X12300Y18800D02*
G01X11900Y18400D01*
G01X11900Y18400D02*
G01X4300Y18400D01*
G01X4300Y18400D02*
G01X2018Y16118D01*
G01X2018Y16118D02*
G01X1187Y16118D01*
G54D26*
G01X14600Y22800D03*
G54D27*
G01X14600Y22800D02*
G01X14300Y23100D01*
G01X14300Y23100D02*
G01X13700Y23700D01*
G01X13700Y23700D02*
G01X11200Y23700D01*
G01X11200Y23700D02*
G01X10800Y24100D01*
G01X10800Y24100D02*
G01X10800Y24400D01*
G54D26*
G01X10400Y24800D03*
G54D27*
G01X10800Y24400D02*
G01X10400Y24800D01*
G54D26*
G01X28700Y12100D03*
G54D27*
G01X28700Y12100D02*
G01X28300Y11700D01*
G01X28300Y11700D02*
G01X27800Y11700D01*
G01X27800Y11700D02*
G01X27200Y12300D01*
G01X27200Y12300D02*
G01X24800Y12300D01*
G01X24800Y12300D02*
G01X23100Y14000D01*
G54D26*
G01X22700Y14000D03*
G54D27*
G01X23100Y14000D02*
G01X22700Y14000D01*
G54D26*
G01X22700Y15800D03*
G54D27*
G01X22700Y15800D02*
G01X18300Y15800D01*
G01X18300Y15800D02*
G01X16800Y17300D01*
G01X16800Y17300D02*
G01X16800Y21600D01*
G01X16800Y21600D02*
G01X14800Y23600D01*
G54D26*
G01X14800Y24300D03*
G54D27*
G01X14800Y23600D02*
G01X14800Y24300D01*

G04 Draw clearances for text*

G04 -------------- Draw Parts, Pads, Traces, Vias and Text (positive)*
%LPD*%
G04 Draw part C16*
G04 Draw part C17*
G04 Draw part C20*
G04 Draw part C18*
G04 Draw part C23*
G04 Draw part Q6*
G04 Draw part Q5*
G04 Draw part Q7*
G04 Draw part R13*
G04 Draw part R15*
G04 Draw part R17*
G04 Draw part R14*
G04 Draw part Q4*
G04 Draw part Q3*
G04 Draw part R16*
G04 Draw part R12*
G04 Draw part C24*
G04 Draw part R5*
G04 Draw part C12*
G04 Draw part C14*
G04 Draw part R10*
G04 Draw part Q2*
G04 Draw part Q1*
G04 Draw part R11*
G04 Draw part R9*
G04 Draw part C19*
G04 Draw part C13*
G04 Draw part C1*
G04 Draw part R1*
G04 Draw part C2*
G04 Draw part C7*
G04 Draw part C3*
G04 Draw part C8*
G04 Draw part C9*
G04 Draw part C4*
G04 Draw part C10*
G04 Draw part C11*
G04 Draw part R2*
G04 Draw part R6*
G04 Draw part R3*
G04 Draw part R7*
G04 Draw part R4*
G04 Draw part R8*
G04 Draw part C5*
G04 Draw part C42*
G04 Draw part R39*
G04 Draw part Q12*
G04 Draw part Q11*
G04 Draw part R40*
G04 Draw part R34*
G04 Draw part C46*
G04 Draw part C38*
G04 Draw part R24*
G04 Draw part C36*
G04 Draw part C41*
G04 Draw part C44*
G04 Draw part C15*
G04 Draw part R33*
G04 Draw part Q9*
G04 Draw part Q8*
G04 Draw part R35*
G04 Draw part R32*
G04 Draw part R19*
G04 Draw part C30*
G04 Draw part R22*
G04 Draw part R25*
G04 Draw part U1*
G04 Draw part R28*
G04 Draw part R21*
G04 Draw part D3*
G04 Draw part D2*
G04 Draw part R18*
G04 Draw part C31*
G04 Draw part Q10*
G04 Draw part R36*
G04 Draw part R27*
G54D29*
G01X1250Y23000D03*
G54D30*
G01X1250Y22000D03*
G01X1250Y21000D03*
G04 Draw part C33*
G04 Draw part C25*
G04 Draw part R29*
G04 Draw part R20*
G04 Draw part C29*
G04 Draw part C32*
G04 Draw part R30*
G04 Draw part R26*
G04 Draw part R31*
G04 Draw part R23*
G04 Draw part C28*
G04 Draw part J1*
G54D29*
G01X1187Y27118D03*
G54D30*
G01X1187Y26118D03*
G01X1187Y25118D03*
G04 Draw part Q13*
G04 Draw part R37*
G04 Draw part R41*
G04 Draw part L7*
G04 Draw part C43*
G04 Draw part C45*
G04 Draw part R38*
G04 Draw part C37*
G04 Draw part C47*
G04 Draw part R64*
G04 Draw part R69*
G04 Draw part Q21*
G04 Draw part R61*
G04 Draw part C75*
G04 Draw part R66*
G04 Draw part L16*
G04 Draw part R62*
G04 Draw part D7*
G04 Draw part D6*
G04 Draw part C87*
G04 Draw part R65*
G04 Draw part D5*
G04 Draw part C76*
G04 Draw part R57*
G04 Draw part R60*
G04 Draw part R56*
G54D29*
G01X39000Y1250D03*
G54D30*
G01X40000Y1250D03*
G01X41000Y1250D03*
G04 Draw part C74*
G54D31*
G01X53624Y24368D03*
G01X53624Y25352D03*
G04 Draw part R58*
G04 Draw part Q20*
G04 Draw part R59*
G04 Draw part Q15*
G04 Draw part R45*
G04 Draw part C54*
G04 Draw part R53*
G04 Draw part L10*
G04 Draw part C59*
G04 Draw part C61*
G04 Draw part R49*
G04 Draw part C63*
G04 Draw part C60*
G04 Draw part R52*
G04 Draw part Q17*
G04 Draw part Q16*
G04 Draw part R54*
G04 Draw part R51*
G04 Draw part C64*
G04 Draw part R42*
G04 Draw part C49*
G04 Draw part Q22*
G04 Draw part R67*
G04 Draw part R70*
G04 Draw part C79*
G04 Draw part C88*
G04 Draw part R63*
G54D29*
G01X34250Y1250D03*
G54D30*
G01X35250Y1250D03*
G01X36250Y1250D03*
G04 Draw part R68*
G04 Draw part C56*
G04 Draw part C52*
G04 Draw part C58*
G04 Draw part R46*
G04 Draw part Q14*
G04 Draw part R48*
G04 Draw part C50*
G04 Draw part C53*
G04 Draw part R44*
G04 Draw part R50*
G04 Draw part U3*
G04 Draw part R47*
G04 Draw part R43*
G04 Draw part R55*
G04 Draw part Q18*
G54D32*
G01X50550Y29000D03*
G01X50000Y28500D03*
G01X49450Y29000D03*
G04 Draw part Q19*
G01X47550Y29000D03*
G01X47000Y28500D03*
G01X46450Y29000D03*
G04 Draw part C70*
G54D31*
G01X45124Y21868D03*
G01X46108Y21868D03*
G04 Draw part C71*
G01X44500Y28000D03*
G01X44500Y28984D03*
G04 Draw part C69*
G04 Draw part C72*
G01X45750Y19500D03*
G01X44765Y19500D03*
G04 Draw part C65*
G04 Draw part C66*
G01X47374Y21868D03*
G01X48358Y21868D03*
G04 Draw part C73*
G01X48000Y19500D03*
G01X47015Y19500D03*
G04 Draw part U5*
G04 Draw part R71*
G04 Draw part C89*
G04 Draw part J3*
G54D29*
G01X12500Y30250D03*
G54D30*
G01X13500Y30250D03*
G01X14500Y30250D03*
G04 Draw part C90*
G04 Draw part C96*
G04 Draw part C95*
G04 Draw part R76*
G04 Draw part R75*
G04 Draw part C100*
G04 Draw part C101*
G04 Draw part Q23*
G04 Draw part R72*
G04 Draw part R73*
G04 Draw part R74*
G04 Draw part C94*
G04 Draw part U4*
G04 Draw part U6*
G04 Draw part C92*
G04 Draw part C99*
G04 Draw part C98*
G04 Draw part C91*
G04 Draw part C93*
G04 Draw part C97*
G04 Draw part Q24*
G04 Draw part Q25*
G04 Draw part R79*
G04 Draw part R81*
G04 Draw part R80*
G04 Draw part C102*
G04 Draw part D9*
G04 Draw part C21*
G04 Draw part C22*
G04 Draw part C48*
G04 Draw part C62*
G04 Draw part C55*
G04 Draw part C57*
G04 Draw part C39*
G04 Draw part TP1*
G54D29*
G01X5000Y4500D03*
G04 Draw part C77*
G04 Draw part C84*
G04 Draw part C80*
G04 Draw part C82*
G04 Draw part C51*
G04 Draw part C67*
G54D31*
G01X49874Y21868D03*
G01X50858Y21868D03*
G04 Draw part TP5*
G54D29*
G01X33000Y4000D03*
G04 Draw part TP6*
G01X27874Y3368D03*
G04 Draw part TP4*
G01X31124Y16868D03*
G04 Draw part TP3*
G01X42624Y29868D03*
G04 Draw part TP2*
G01X39874Y19368D03*
G04 Draw part R78*
G04 Draw part C104*
G04 Draw part C105*
G04 Draw part D10*
G04 Draw part TP7*
G01X36874Y16618D03*
G04 Draw part TP8*
G01X33374Y14368D03*
G04 Draw part D8*
G04 Draw part C6*
G04 Draw part C40*
G04 Draw part C27*
G04 Draw part C26*
G04 Draw part C34*
G04 Draw part C35*
G04 Draw part C68*
G04 Draw part C103*
G04 Draw part C78*
G54D33*
G01X37674Y7868D03*
G01X34974Y7868D03*
G04 Draw part C83*
G01X36924Y10868D03*
G01X34224Y10868D03*
G04 Draw part C86*
G01X45500Y7700D03*
G01X45500Y10400D03*
G04 Draw part C85*
G01X43750Y8800D03*
G01X43750Y6100D03*
G04 Draw part C81*
G01X39750Y8800D03*
G01X39750Y6100D03*
G04 Draw part D1*
G04 Draw part D4*
G04 Draw part S2*
G54D29*
G01X7250Y30250D03*
G54D30*
G01X8250Y30250D03*
G04 Draw part S1*
G54D29*
G01X10250Y30250D03*
G54D30*
G01X11250Y30250D03*
G04 Draw part X1*
G04 Draw part X2*
G04 Draw part X3*
G04 Draw part X4*
G04 Draw part X5*
G04 Draw part X6*
G04 Draw part X7*
G04 Draw part R77*
G04 Draw part U2*
G04 Draw part L3*
G54D33*
G01X22774Y21590D03*
G01X21874Y20646D03*
G04 Draw part L4*
G01X15774Y21340D03*
G01X14874Y20396D03*
G04 Draw part L8*
G01X34224Y19896D03*
G01X35124Y20840D03*
G04 Draw part L9*
G01X36474Y23146D03*
G01X37374Y24090D03*
G04 Draw part L2*
G01X9374Y14618D03*
G01X9374Y13476D03*
G04 Draw part L1*
G01X18624Y12618D03*
G01X18624Y13760D03*
G04 Draw part L6*
G01X18000Y4468D03*
G01X18000Y3326D03*
G04 Draw part L5*
G01X12250Y9750D03*
G01X11108Y9750D03*
G04 Draw part L11*
G01X45124Y25709D03*
G01X44139Y24527D03*
G04 Draw part L12*
G01X47374Y25709D03*
G01X46389Y24527D03*
G04 Draw part L13*
G01X48624Y24527D03*
G01X49608Y25709D03*
G04 Draw part L14*
G01X50874Y24527D03*
G01X51858Y25709D03*
G04 Draw part L15*
G01X42100Y13000D03*
G01X40918Y13000D03*
G04 Draw part J2*
G54D34*
G01X53124Y22368D03*
G54D35*
G01X53124Y20368D03*
G04 Draw part J4*
G54D29*
G01X1187Y17118D03*
G54D30*
G01X1187Y16118D03*
G01X1187Y15118D03*
G04 Draw part J6*
G54D29*
G01X53624Y13368D03*
G54D30*
G01X53624Y14368D03*
G04 Draw part J5*
G04 Draw part C106*
G04 Draw part H1*
G54D36*
G01X1377Y1377D03*
G04 Draw part H2*
G01X53740Y1377D03*
G04 Draw part H3*
G01X53740Y30118D03*
G04 Draw part H4*
G01X1377Y30118D03*
G04 Draw part H5*
G54D29*
G01X19500Y8250D03*

G04 Draw traces*
G54D37*
G01X46500Y4700D03*
G54D38*
G01X46500Y4700D02*
G01X46500Y3400D01*
G54D37*
G01X46500Y3400D03*
G01X31800Y7200D03*
G54D38*
G01X31800Y7200D02*
G01X33700Y7200D01*
G01X33700Y7200D02*
G01X34100Y6800D01*
G01X34100Y6800D02*
G01X34100Y5100D01*
G01X34100Y5100D02*
G01X34500Y4700D01*
G01X34500Y4700D02*
G01X38300Y4700D01*
G54D37*
G01X38300Y4700D03*
G01X36700Y2900D03*
G54D38*
G01X36700Y2900D02*
G01X37200Y2400D01*
G01X37200Y2400D02*
G01X46900Y2400D01*
G01X46900Y2400D02*
G01X47100Y2600D01*
G01X47100Y2600D02*
G01X47100Y3100D01*
G54D37*
G01X47100Y3100D03*
G01X46600Y5200D03*
G54D38*
G01X46600Y5200D02*
G01X45000Y5200D01*
G54D37*
G01X45000Y5200D03*
G01X33974Y12068D03*
G54D38*
G01X33974Y12068D02*
G01X33668Y12068D01*
G01X33668Y12068D02*
G01X32900Y11300D01*
G01X32900Y11300D02*
G01X30700Y11300D01*
G01X30700Y11300D02*
G01X30100Y11900D01*
G01X30100Y11900D02*
G01X29500Y11900D01*
G01X29500Y11900D02*
G01X28700Y12700D01*
G01X28700Y12700D02*
G01X28200Y12700D01*
G01X28200Y12700D02*
G01X27900Y12400D01*
G01X27900Y12400D02*
G01X27900Y12100D01*
G54D37*
G01X27900Y12100D03*
G01X45600Y17300D03*
G54D38*
G01X45600Y17300D02*
G01X37700Y17300D01*
G01X37700Y17300D02*
G01X37018Y16618D01*
G01X37018Y16618D02*
G01X36874Y16618D01*
G54D37*
G01X27800Y10100D03*
G54D38*
G01X27800Y10100D02*
G01X26900Y11000D01*
G01X26900Y11000D02*
G01X18800Y11000D01*
G01X18800Y11000D02*
G01X17600Y12200D01*
G01X17600Y12200D02*
G01X17600Y13200D01*
G01X17600Y13200D02*
G01X16800Y14000D01*
G01X16800Y14000D02*
G01X4500Y14000D01*
G01X4500Y14000D02*
G01X1800Y11300D01*
G54D37*
G01X1800Y11300D03*
G01X2800Y23400D03*
G54D38*
G01X2800Y23400D02*
G01X5700Y23400D01*
G01X5700Y23400D02*
G01X6500Y24200D01*
G54D37*
G01X6500Y24200D03*
G01X45800Y16100D03*
G54D38*
G01X45800Y16100D02*
G01X45800Y15100D01*
G01X45800Y15100D02*
G01X46400Y14500D01*
G01X46400Y14500D02*
G01X46400Y6900D01*
G01X46400Y6900D02*
G01X47000Y6300D01*
G01X47000Y6300D02*
G01X51500Y6300D01*
G54D37*
G01X51500Y6300D03*
G01X19100Y27000D03*
G54D38*
G01X19100Y27000D02*
G01X19100Y30800D01*
G54D37*
G01X19100Y30800D03*
G01X2600Y27600D03*
G54D38*
G01X2600Y27600D02*
G01X2600Y25500D01*
G54D37*
G01X2600Y25500D03*
G01X14400Y24500D03*
G54D38*
G01X14400Y24500D02*
G01X14400Y25400D01*
G01X14400Y25400D02*
G01X13900Y25900D01*
G54D37*
G01X13900Y25900D03*
G01X16000Y23100D03*
G54D38*
G01X16000Y23100D02*
G01X15700Y23400D01*
G01X15700Y23400D02*
G01X15700Y24600D01*
G01X15700Y24600D02*
G01X15700Y26000D01*
G54D37*
G01X15700Y26000D03*
G01X19100Y27000D03*
G54D38*
G01X19100Y27000D02*
G01X19100Y30800D01*
G54D37*
G01X19100Y30800D03*
G54D38*
G01X40000Y1250D02*
G01X40000Y1700D01*
G01X40000Y1700D02*
G01X40200Y1900D01*
G01X40200Y1900D02*
G01X43800Y1900D01*
G01X43800Y1900D02*
G01X47600Y1900D01*
G01X47600Y1900D02*
G01X48300Y2600D01*
G01X48300Y2600D02*
G01X48300Y5700D01*
G54D37*
G01X48300Y5700D03*
G01X30900Y22600D03*
G54D38*
G01X30900Y22600D02*
G01X30900Y21900D01*
G01X30900Y21900D02*
G01X31300Y21500D01*
G01X31300Y21500D02*
G01X32800Y21500D01*
G54D37*
G01X32800Y21500D03*
G01X16600Y26600D03*
G54D38*
G01X16600Y26600D02*
G01X16900Y26900D01*
G01X16900Y26900D02*
G01X17500Y26900D01*
G01X17500Y26900D02*
G01X17800Y27200D01*
G01X17800Y27200D02*
G01X17800Y27800D01*
G54D37*
G01X17800Y27800D03*
G01X8100Y18100D03*
G54D38*
G01X8100Y18100D02*
G01X7100Y18100D01*
G54D37*
G01X7100Y18100D03*
G01X2600Y13900D03*
G54D38*
G01X2600Y13900D02*
G01X1200Y13900D01*
G01X1200Y13900D02*
G01X600Y13300D01*
G01X600Y13300D02*
G01X600Y11100D01*
G54D37*
G01X600Y11100D03*
G01X6000Y11000D03*
G54D38*
G01X6000Y11000D02*
G01X6800Y11800D01*
G01X6800Y11800D02*
G01X7500Y12500D01*
G01X7500Y12500D02*
G01X7500Y12900D01*
G01X7500Y12900D02*
G01X6900Y13500D01*
G54D37*
G01X6900Y13500D03*
G01X7900Y25000D03*
G54D38*
G01X7900Y25000D02*
G01X8400Y25000D01*
G01X8400Y25000D02*
G01X8700Y24700D01*
G01X8700Y24700D02*
G01X8700Y22500D01*
G54D37*
G01X8700Y22500D03*
G01X8600Y18000D03*
G54D38*
G01X8600Y18000D02*
G01X8600Y16000D01*
G01X8600Y16000D02*
G01X7900Y15300D01*
G01X7900Y15300D02*
G01X6100Y15300D01*
G54D37*
G01X6100Y15300D03*
G01X8000Y24200D03*
G54D38*
G01X8000Y24200D02*
G01X8000Y21500D01*
G01X8000Y21500D02*
G01X8400Y21100D01*
G01X8400Y21100D02*
G01X11200Y21100D01*
G01X11200Y21100D02*
G01X11600Y20700D01*
G01X11600Y20700D02*
G01X11600Y19500D01*
G54D37*
G01X11600Y19500D03*
G01X8900Y11500D03*
G54D38*
G01X8900Y11500D02*
G01X8900Y10900D01*
G01X8900Y10900D02*
G01X8600Y10600D01*
G01X8600Y10600D02*
G01X7800Y10600D01*
G01X7800Y10600D02*
G01X7600Y10400D01*
G01X7600Y10400D02*
G01X7600Y9200D01*
G54D37*
G01X7600Y9200D03*
G01X33100Y19200D03*
G54D38*
G01X33100Y19200D02*
G01X29600Y19200D01*
G01X29600Y19200D02*
G01X29100Y18700D01*
G01X29100Y18700D02*
G01X29100Y14900D01*
G01X29100Y14900D02*
G01X29400Y14600D01*
G01X29400Y14600D02*
G01X32000Y14600D01*
G01X32000Y14600D02*
G01X32500Y14100D01*
G01X32500Y14100D02*
G01X32500Y12300D01*
G01X32500Y12300D02*
G01X32100Y11900D01*
G01X32100Y11900D02*
G01X31100Y11900D01*
G01X31100Y11900D02*
G01X30600Y12400D01*
G01X30600Y12400D02*
G01X29500Y12400D01*
G54D37*
G01X29500Y12400D03*
G01X29500Y11500D03*
G54D38*
G01X29500Y11500D02*
G01X29100Y11100D01*
G01X29100Y11100D02*
G01X29100Y7300D01*
G01X29100Y7300D02*
G01X27900Y6100D01*
G54D37*
G01X27900Y6100D03*
G01X5500Y10300D03*
G54D38*
G01X5500Y10300D02*
G01X5500Y12000D01*
G01X5500Y12000D02*
G01X6400Y12900D01*
G01X6400Y12900D02*
G01X6900Y12900D01*
G54D37*
G01X6900Y12900D03*
G01X6700Y3400D03*
G54D38*
G01X6700Y3400D02*
G01X5300Y3400D01*
G54D37*
G01X5300Y3400D03*
G54D38*
G01X1187Y17118D02*
G01X2518Y17118D01*
G01X2518Y17118D02*
G01X2900Y17500D01*
G01X2900Y17500D02*
G01X4200Y18800D01*
G01X4200Y18800D02*
G01X11600Y18800D01*
G01X11600Y18800D02*
G01X11900Y19100D01*
G01X11900Y19100D02*
G01X11900Y22700D01*
G01X11900Y22700D02*
G01X12400Y23200D01*
G01X12400Y23200D02*
G01X12900Y23200D01*
G54D37*
G01X12900Y23200D03*
G01X12900Y24100D03*
G54D38*
G01X12900Y24100D02*
G01X12900Y27500D01*
G54D37*
G01X12900Y27500D03*
G01X8800Y20600D03*
G54D38*
G01X8800Y20600D02*
G01X7700Y19500D01*
G01X7700Y19500D02*
G01X4300Y19500D01*
G01X4300Y19500D02*
G01X2800Y18000D01*
G01X2800Y18000D02*
G01X2100Y18000D01*
G01X2100Y18000D02*
G01X800Y19300D01*
G01X800Y19300D02*
G01X800Y23700D01*
G01X800Y23700D02*
G01X1200Y24100D01*
G01X1200Y24100D02*
G01X5000Y24100D01*
G01X5000Y24100D02*
G01X5600Y24700D01*
G01X5600Y24700D02*
G01X5600Y25700D01*
G01X5600Y25700D02*
G01X6100Y26200D01*
G01X6100Y26200D02*
G01X7500Y26200D01*
G54D37*
G01X7500Y26200D03*
G01X16200Y28700D03*
G54D38*
G01X16200Y28700D02*
G01X16300Y28600D01*
G01X16300Y28600D02*
G01X16300Y24900D01*
G01X16300Y24900D02*
G01X16700Y24500D01*
G01X16700Y24500D02*
G01X24400Y24500D01*
G54D37*
G01X24400Y24500D03*
G01X43000Y23600D03*
G54D38*
G01X43000Y23600D02*
G01X43300Y23300D01*
G01X43300Y23300D02*
G01X43300Y21300D01*
G01X43300Y21300D02*
G01X43300Y19300D01*
G01X43300Y19300D02*
G01X43900Y18700D01*
G01X43900Y18700D02*
G01X47500Y18700D01*
G01X47500Y18700D02*
G01X47900Y18300D01*
G01X47900Y18300D02*
G01X47900Y16600D01*
G54D37*
G01X47900Y16600D03*
G01X32074Y12568D03*
G54D38*
G01X32074Y12568D02*
G01X32074Y13268D01*
G01X32074Y13268D02*
G01X31574Y13768D01*
G01X31574Y13768D02*
G01X25174Y13768D01*
G01X25174Y13768D02*
G01X23574Y15368D01*
G01X23574Y15368D02*
G01X12674Y15368D01*
G54D37*
G01X12674Y15368D03*
G01X38000Y18000D03*
G54D38*
G01X38000Y18000D02*
G01X30400Y18000D01*
G01X30400Y18000D02*
G01X29900Y17500D01*
G01X29900Y17500D02*
G01X29900Y16700D01*
G54D37*
G01X29900Y16700D03*
G01X38400Y12000D03*
G54D38*
G01X38400Y12000D02*
G01X38900Y11500D01*
G01X38900Y11500D02*
G01X38900Y11200D01*
G01X38900Y11200D02*
G01X38900Y9100D01*
G54D37*
G01X38900Y9100D03*
G01X17000Y30400D03*
G54D38*
G01X17000Y30400D02*
G01X17000Y30000D01*
G01X17000Y30000D02*
G01X17300Y29700D01*
G01X17300Y29700D02*
G01X17300Y27600D01*
G01X17300Y27600D02*
G01X16900Y27200D01*
G01X16900Y27200D02*
G01X16600Y27200D01*
G54D37*
G01X16600Y27200D03*
G01X11500Y7000D03*
G54D38*
G01X11500Y7000D02*
G01X27800Y7000D01*
G01X27800Y7000D02*
G01X28600Y7800D01*
G01X28600Y7800D02*
G01X28600Y10200D01*
G01X28600Y10200D02*
G01X26900Y11900D01*
G01X26900Y11900D02*
G01X23900Y11900D01*
G01X23900Y11900D02*
G01X22300Y13500D01*
G54D37*
G01X22300Y13500D03*
G01X46100Y3400D03*
G54D38*
G01X46100Y3400D02*
G01X46100Y4300D01*
G01X46100Y4300D02*
G01X45800Y4600D01*
G01X45800Y4600D02*
G01X44200Y4600D01*
G01X44200Y4600D02*
G01X43700Y4600D01*
G01X43700Y4600D02*
G01X43300Y5000D01*
G01X43300Y5000D02*
G01X43300Y6700D01*
G01X43300Y6700D02*
G01X42500Y7500D01*
G01X42500Y7500D02*
G01X40400Y7500D01*
G01X40400Y7500D02*
G01X39200Y8700D01*
G01X39200Y8700D02*
G01X34100Y8700D01*
G01X34100Y8700D02*
G01X33500Y8100D01*
G01X33500Y8100D02*
G01X30400Y8100D01*
G54D37*
G01X30400Y8100D03*
G01X28200Y8100D03*
G54D38*
G01X28200Y8100D02*
G01X27600Y8100D01*
G01X27600Y8100D02*
G01X27400Y8300D01*
G01X27400Y8300D02*
G01X27400Y9500D01*
G01X27400Y9500D02*
G01X26800Y10100D01*
G01X26800Y10100D02*
G01X18800Y10100D01*
G01X18800Y10100D02*
G01X17000Y11900D01*
G01X17000Y11900D02*
G01X17000Y12500D01*
G01X17000Y12500D02*
G01X16700Y12800D01*
G01X16700Y12800D02*
G01X15000Y12800D01*
G01X15000Y12800D02*
G01X14600Y13200D01*
G01X14600Y13200D02*
G01X14600Y13700D01*
G54D37*
G01X14600Y13700D03*
G01X26074Y14268D03*
G54D38*
G01X26074Y14268D02*
G01X26074Y14568D01*
G01X26074Y14568D02*
G01X26374Y14868D01*
G01X26374Y14868D02*
G01X26974Y14868D01*
G01X26974Y14868D02*
G01X27274Y15168D01*
G01X27274Y15168D02*
G01X27274Y17068D01*
G54D37*
G01X27274Y17068D03*
G01X24000Y26100D03*
G54D38*
G01X24000Y26100D02*
G01X17900Y26100D01*
G01X17900Y26100D02*
G01X17400Y25600D01*
G01X17400Y25600D02*
G01X17400Y24900D01*
G54D37*
G01X17400Y24900D03*
G01X37174Y15868D03*
G54D38*
G01X37174Y15868D02*
G01X39974Y15868D01*
G01X39974Y15868D02*
G01X40174Y16068D01*
G01X40174Y16068D02*
G01X40174Y16374D01*
G01X40174Y16374D02*
G01X40300Y16500D01*
G01X40300Y16500D02*
G01X45000Y16500D01*
G54D37*
G01X45000Y16500D03*
G01X12274Y14568D03*
G54D38*
G01X12274Y14568D02*
G01X23574Y14568D01*
G01X23574Y14568D02*
G01X25474Y12668D01*
G01X25474Y12668D02*
G01X26574Y12668D01*
G54D37*
G01X26574Y12668D03*
G01X11700Y13600D03*
G54D38*
G01X11700Y13600D02*
G01X11700Y12500D01*
G01X11700Y12500D02*
G01X11400Y12200D01*
G01X11400Y12200D02*
G01X8900Y12200D01*
G54D37*
G01X8900Y12200D03*
G01X9000Y17900D03*
G54D38*
G01X9000Y17900D02*
G01X9000Y15700D01*
G01X9000Y15700D02*
G01X7800Y14500D01*
G01X7800Y14500D02*
G01X900Y14500D01*
G01X900Y14500D02*
G01X500Y14900D01*
G01X500Y14900D02*
G01X500Y24100D01*
G01X500Y24100D02*
G01X900Y24500D01*
G01X900Y24500D02*
G01X3200Y24500D01*
G01X3200Y24500D02*
G01X3700Y25000D01*
G01X3700Y25000D02*
G01X3700Y25600D01*
G54D37*
G01X3700Y25600D03*
G01X7600Y11700D03*
G54D38*
G01X7600Y11700D02*
G01X6700Y10800D01*
G01X6700Y10800D02*
G01X6700Y7200D01*
G54D37*
G01X6700Y7200D03*
G01X15600Y30700D03*
G54D38*
G01X15600Y30700D02*
G01X15200Y31100D01*
G01X15200Y31100D02*
G01X6800Y31100D01*
G01X6800Y31100D02*
G01X6100Y30400D01*
G01X6100Y30400D02*
G01X6100Y26900D01*
G01X6100Y26900D02*
G01X5800Y26600D01*
G01X5800Y26600D02*
G01X5400Y26200D01*
G01X5400Y26200D02*
G01X3200Y26200D01*
G54D37*
G01X3200Y26200D03*
G01X49200Y15100D03*
G54D39*
G01X49200Y15100D02*
G01X49200Y19900D01*
G01X49200Y19900D02*
G01X48600Y20500D01*
G01X48600Y20500D02*
G01X45000Y20500D01*
G01X45000Y20500D02*
G01X44500Y21000D01*
G01X44500Y21000D02*
G01X44500Y22400D01*
G54D37*
G01X44500Y22400D03*
G01X51600Y13400D03*
G54D39*
G01X51600Y13400D02*
G01X51600Y14800D01*
G01X51600Y14800D02*
G01X51300Y15100D01*
G01X51300Y15100D02*
G01X49200Y15100D01*
G54D37*
G01X49200Y15100D03*
G01X2000Y4600D03*
G54D38*
G01X2000Y4600D02*
G01X2000Y4200D01*
G01X2000Y4200D02*
G01X2600Y3600D01*
G01X2600Y3600D02*
G01X4000Y3600D01*
G01X4000Y3600D02*
G01X4400Y3200D01*
G01X4400Y3200D02*
G01X4400Y2300D01*
G01X4400Y2300D02*
G01X4900Y1800D01*
G01X4900Y1800D02*
G01X10100Y1800D01*
G54D37*
G01X10100Y1800D03*
G01X39300Y9500D03*
G54D38*
G01X39300Y9500D02*
G01X39300Y11700D01*
G54D37*
G01X39300Y11700D03*
G01X25000Y26100D03*
G54D38*
G01X25000Y26100D02*
G01X25000Y25700D01*
G01X25000Y25700D02*
G01X24600Y25300D01*
G01X24600Y25300D02*
G01X17900Y25300D01*
G54D37*
G01X17900Y25300D03*
G01X26900Y27500D03*
G54D38*
G01X26900Y27500D02*
G01X26900Y30800D01*
G01X26900Y30800D02*
G01X26700Y31000D01*
G01X26700Y31000D02*
G01X23100Y31000D01*
G01X23100Y31000D02*
G01X23000Y30900D01*
G01X23000Y30900D02*
G01X23000Y29600D01*
G54D37*
G01X23000Y29600D03*
G01X12600Y17000D03*
G54D38*
G01X12600Y17000D02*
G01X11600Y16000D01*
G01X11600Y16000D02*
G01X10300Y16000D01*
G01X10300Y16000D02*
G01X10000Y15700D01*
G01X10000Y15700D02*
G01X10000Y15400D01*
G54D37*
G01X10000Y15400D03*
G01X7500Y20500D03*
G54D38*
G01X7500Y20500D02*
G01X2100Y20500D01*
G01X2100Y20500D02*
G01X1600Y21000D01*
G01X1600Y21000D02*
G01X1250Y21000D01*
G54D37*
G01X25000Y30700D03*
G54D38*
G01X25000Y30700D02*
G01X23600Y30700D01*
G01X23600Y30700D02*
G01X23400Y30500D01*
G01X23400Y30500D02*
G01X23400Y29400D01*
G01X23400Y29400D02*
G01X23200Y29200D01*
G01X23200Y29200D02*
G01X20100Y29200D01*
G01X20100Y29200D02*
G01X19500Y28600D01*
G01X19500Y28600D02*
G01X19500Y26800D01*
G01X19500Y26800D02*
G01X19300Y26600D01*
G01X19300Y26600D02*
G01X17100Y26600D01*
G01X17100Y26600D02*
G01X16600Y26100D01*
G01X16600Y26100D02*
G01X16600Y25600D01*
G54D37*
G01X16600Y25600D03*
G01X34574Y23868D03*
G54D39*
G01X34574Y23868D02*
G01X34574Y23068D01*
G01X34574Y23068D02*
G01X35574Y22068D01*
G01X35574Y22068D02*
G01X39374Y22068D01*
G54D37*
G01X39374Y22068D03*
G01X47300Y13100D03*
G54D39*
G01X47300Y13100D02*
G01X47300Y17900D01*
G01X47300Y17900D02*
G01X47000Y18200D01*
G01X47000Y18200D02*
G01X43500Y18200D01*
G01X43500Y18200D02*
G01X42800Y18900D01*
G01X42800Y18900D02*
G01X42800Y21100D01*
G01X42800Y21100D02*
G01X42800Y22900D01*
G01X42800Y22900D02*
G01X41600Y22900D01*
G01X41600Y22900D02*
G01X40000Y22900D01*
G54D37*
G01X40000Y22900D03*
G01X9200Y24700D03*
G54D38*
G01X9200Y24700D02*
G01X8500Y25400D01*
G01X8500Y25400D02*
G01X7200Y25400D01*
G01X7200Y25400D02*
G01X7000Y25200D01*
G01X7000Y25200D02*
G01X7000Y21400D01*
G01X7000Y21400D02*
G01X7400Y21000D01*
G01X7400Y21000D02*
G01X7700Y21000D01*
G01X7700Y21000D02*
G01X7900Y20800D01*
G01X7900Y20800D02*
G01X7900Y20400D01*
G01X7900Y20400D02*
G01X7600Y20100D01*
G01X7600Y20100D02*
G01X4300Y20100D01*
G01X4300Y20100D02*
G01X2900Y18700D01*
G54D37*
G01X2900Y18700D03*
G01X16000Y27200D03*
G54D38*
G01X16000Y27200D02*
G01X16000Y27900D01*
G01X16000Y27900D02*
G01X15900Y28000D01*
G01X15900Y28000D02*
G01X12500Y28000D01*
G01X12500Y28000D02*
G01X9200Y24700D01*
G54D37*
G01X9200Y24700D03*
G01X16000Y27200D03*
G54D38*
G01X16000Y27200D02*
G01X16000Y23800D01*
G01X16000Y23800D02*
G01X18000Y21800D01*
G01X18000Y21800D02*
G01X18000Y17700D01*
G01X18000Y17700D02*
G01X19100Y16600D01*
G01X19100Y16600D02*
G01X24600Y16600D01*
G01X24600Y16600D02*
G01X25400Y15800D01*
G54D37*
G01X25400Y15800D03*
G01X51900Y19600D03*
G54D38*
G01X51900Y19600D02*
G01X51900Y22600D01*
G01X51900Y22600D02*
G01X52500Y23200D01*
G01X52500Y23200D02*
G01X52500Y27000D01*
G01X52500Y27000D02*
G01X52300Y27200D01*
G01X52300Y27200D02*
G01X43700Y27200D01*
G01X43700Y27200D02*
G01X43500Y27000D01*
G01X43500Y27000D02*
G01X43500Y26000D01*
G01X43500Y26000D02*
G01X42300Y24800D01*
G01X42300Y24800D02*
G01X26600Y24800D01*
G54D37*
G01X26600Y24800D03*
G54D38*
G01X13500Y30250D02*
G01X13500Y30300D01*
G01X13500Y30300D02*
G01X13500Y29900D01*
G01X13500Y29900D02*
G01X13700Y29700D01*
G01X13700Y29700D02*
G01X16700Y29700D01*
G01X16700Y29700D02*
G01X17000Y29400D01*
G01X17000Y29400D02*
G01X17000Y28400D01*
G54D37*
G01X17000Y28400D03*
G01X48874Y13868D03*
G54D38*
G01X48874Y13868D02*
G01X49474Y14468D01*
G01X49474Y14468D02*
G01X51174Y14468D01*
G54D37*
G01X51174Y14468D03*
G01X15300Y11300D03*
G54D38*
G01X15300Y11300D02*
G01X13500Y11300D01*
G01X13500Y11300D02*
G01X13100Y11700D01*
G01X13100Y11700D02*
G01X13100Y13100D01*
G54D37*
G01X13100Y13100D03*
G01X16600Y28400D03*
G54D38*
G01X16600Y28400D02*
G01X16600Y29300D01*
G01X16600Y29300D02*
G01X16400Y29500D01*
G01X16400Y29500D02*
G01X12700Y29500D01*
G01X12700Y29500D02*
G01X12500Y29700D01*
G01X12500Y29700D02*
G01X12500Y30200D01*
G01X12500Y30200D02*
G01X12500Y30250D01*
G54D37*
G01X9800Y24600D03*
G54D38*
G01X9800Y24600D02*
G01X9800Y24200D01*
G01X9800Y24200D02*
G01X9400Y23800D01*
G01X9400Y23800D02*
G01X9400Y22700D01*
G01X9400Y22700D02*
G01X9200Y22500D01*
G54D37*
G01X9200Y22500D03*
G01X10600Y18100D03*
G54D38*
G01X10600Y18100D02*
G01X9900Y18100D01*
G01X9900Y18100D02*
G01X9500Y17700D01*
G01X9500Y17700D02*
G01X9500Y15600D01*
G01X9500Y15600D02*
G01X8100Y14200D01*
G01X8100Y14200D02*
G01X4200Y14200D01*
G01X4200Y14200D02*
G01X500Y10500D01*
G01X500Y10500D02*
G01X500Y3400D01*
G01X500Y3400D02*
G01X900Y3000D01*
G01X900Y3000D02*
G01X3000Y3000D01*
G01X3000Y3000D02*
G01X3200Y2800D01*
G01X3200Y2800D02*
G01X3200Y2000D01*
G01X3200Y2000D02*
G01X4500Y700D01*
G01X4500Y700D02*
G01X51400Y700D01*
G01X51400Y700D02*
G01X52000Y1300D01*
G01X52000Y1300D02*
G01X52000Y2800D01*
G01X52000Y2800D02*
G01X51600Y3200D01*
G01X51600Y3200D02*
G01X51100Y3200D01*
G01X51100Y3200D02*
G01X50800Y3500D01*
G01X50800Y3500D02*
G01X50800Y4000D01*
G54D37*
G01X50800Y4000D03*
G01X29400Y30800D03*
G54D38*
G01X29400Y30800D02*
G01X31800Y30800D01*
G01X31800Y30800D02*
G01X32300Y30300D01*
G01X32300Y30300D02*
G01X32300Y26200D01*
G54D37*
G01X32300Y26200D03*
G01X13400Y27200D03*
G54D38*
G01X13400Y27200D02*
G01X13400Y24100D01*
G54D37*
G01X13400Y24100D03*
G01X13400Y22500D03*
G54D38*
G01X13400Y22500D02*
G01X12500Y22500D01*
G01X12500Y22500D02*
G01X12300Y22300D01*
G01X12300Y22300D02*
G01X12300Y18800D01*
G01X12300Y18800D02*
G01X11900Y18400D01*
G01X11900Y18400D02*
G01X4300Y18400D01*
G01X4300Y18400D02*
G01X2018Y16118D01*
G01X2018Y16118D02*
G01X1187Y16118D01*
G54D37*
G01X14600Y22800D03*
G54D38*
G01X14600Y22800D02*
G01X14300Y23100D01*
G01X14300Y23100D02*
G01X13700Y23700D01*
G01X13700Y23700D02*
G01X11200Y23700D01*
G01X11200Y23700D02*
G01X10800Y24100D01*
G01X10800Y24100D02*
G01X10800Y24400D01*
G01X10800Y24400D02*
G01X10400Y24800D01*
G54D37*
G01X10400Y24800D03*
G01X28700Y12100D03*
G54D38*
G01X28700Y12100D02*
G01X28300Y11700D01*
G01X28300Y11700D02*
G01X27800Y11700D01*
G01X27800Y11700D02*
G01X27200Y12300D01*
G01X27200Y12300D02*
G01X24800Y12300D01*
G01X24800Y12300D02*
G01X23100Y14000D01*
G01X23100Y14000D02*
G01X22700Y14000D01*
G54D37*
G01X22700Y14000D03*
G01X22700Y15800D03*
G54D38*
G01X22700Y15800D02*
G01X18300Y15800D01*
G01X18300Y15800D02*
G01X16800Y17300D01*
G01X16800Y17300D02*
G01X16800Y21600D01*
G01X16800Y21600D02*
G01X14800Y23600D01*
G01X14800Y23600D02*
G01X14800Y24300D01*
G54D37*
G01X14800Y24300D03*

G04 Draw Text*
M00*
M02*
