;Holesize 1 =   28.0 PLATED MILS
;Holesize 2 =   23.0 PLATED MILS
;Holesize 3 =  157.0 PLATED MILS
;Holesize 4 =   30.0 PLATED MILS
;Holesize 5 =   75.0 PLATED MILS
;Holesize 6 =  125.0 PLATED MILS
;Holesize 7 =   14.0 PLATED MILS
M48
INCH,00.0000
T01C0.028
T02C0.023
T03C0.157
T04C0.030
T05C0.075
T06C0.125
T07C0.014
%
G05
G90
T01
X001250Y023000
X001250Y022000
X001250Y021000
X001187Y027118
X001187Y026118
X001187Y025118
X001250Y005500
X001250Y004500
X001250Y003500
X053624Y024368
X053624Y025352
X001250Y009750
X001250Y008750
X001250Y007750
X045124Y021868
X046108Y021868
X046374Y019618
X047358Y019618
X049124Y028368
X049124Y029352
X047374Y021868
X048358Y021868
X051124Y028368
X051124Y029352
X012500Y030250
X013500Y030250
X014500Y030250
X005000Y004500
X049874Y021868
X050858Y021868
X032874Y006118
X027874Y003368
X031124Y016868
X042624Y029868
X039874Y019368
X036874Y016618
X033374Y014368
X007250Y030250
X008250Y030250
X010250Y030250
X011250Y030250
X001187Y017118
X001187Y016118
X001187Y015118
X053624Y013368
X053624Y014368
X019437Y008118
T02
X037674Y007868
X034974Y007868
X036924Y010868
X034224Y010868
X041474Y013168
X041474Y015868
X044274Y013168
X044274Y015868
X045474Y011168
X045474Y008468
X022774Y021590
X021874Y020646
X015774Y021340
X014874Y020396
X034224Y019896
X035124Y020840
X036474Y023146
X037374Y024090
X009374Y014618
X009374Y013476
X018624Y012618
X018624Y013760
X018000Y004468
X018000Y003326
X012250Y009750
X011108Y009750
X045124Y025709
X044139Y024527
X047374Y025709
X046389Y024527
X048624Y024527
X049608Y025709
X050874Y024527
X051858Y025709
X042174Y012068
X040992Y012068
T03
X041574Y009868
T04
X053124Y022368
T05
X053124Y020368
T06
X001574Y001574
X053543Y001574
X053543Y029821
X001574Y029921
T07
X029600Y010800
X002900Y009900
X046500Y004700
X046500Y003400
X031900Y005900
X035500Y003300
X033974Y012068
X027900Y012100
X027800Y010100
X001800Y011300
X002800Y023400
X006500Y024200
X045800Y016100
X051500Y006300
X002600Y027600
X002600Y025500
X046600Y005300
X015700Y026400
X018600Y027200
X009500Y020600
X011400Y019100
X012900Y019500
X016300Y019500
X018900Y019500
X049200Y001700
X006300Y011800
X006900Y013500
X007900Y025000
X008700Y022500
X045100Y003900
X030900Y022600
X032800Y021500
X008600Y018000
X006100Y015300
X008000Y024200
X011600Y019500
X008900Y011500
X007600Y009200
X045700Y007100
X033100Y019200
X029500Y012400
X029500Y011500
X027900Y006100
X005500Y010300
X006900Y012900
X006700Y003400
X005300Y003400
X012800Y023500
X012800Y024600
X012800Y027000
X008800Y020600
X007500Y026200
X038600Y005300
X016900Y028000
X026800Y030600
X043300Y023600
X047900Y016600
X032074Y012568
X012674Y015368
X042074Y019868
X029674Y017768
X011500Y007000
X022300Y013500
X046100Y003400
X046100Y004600
X044200Y004600
X030400Y008100
X028200Y008100
X014600Y013700
X026074Y014268
X027274Y017068
X022974Y027368
X016200Y026300
X049200Y013600
X037174Y015868
X040174Y016468
X012274Y014568
X026574Y012668
X011700Y013600
X008900Y012200
X009000Y017900
X003700Y025600
X007600Y011700
X006700Y007200
X015600Y030700
X004500Y026900
X049200Y015100
X044500Y022400
X037300Y009500
X023000Y026500
X017000Y025700
X013900Y026000
X015600Y027200
X023000Y029600
X014500Y028500
X012600Y017000
X010300Y016000
X007500Y020500
X024900Y030600
X016800Y025200
X034574Y023868
X039374Y022068
X047300Y013100
X040000Y022900
X009200Y024700
X002900Y018700
X015200Y027100
X010100Y029000
X008500Y028700
X009200Y024700
X016200Y027200
X025300Y015900
X051900Y019600
X026600Y024800
X048874Y013868
X051174Y014468
X015300Y011300
X013100Y013100
X010000Y024800
X009200Y022500
X010600Y018100
X050800Y004000
X013300Y027000
X013300Y024600
X013300Y023500
X016800Y023100
X010400Y024800
X029400Y030800
X032300Y026200
X028600Y012100
X022700Y013900
X022700Y015800
X015000Y023700
X040600Y006600
X015200Y027600
M30
