;Holesize 1 =   28.0 PLATED MILS
;Holesize 2 =   20.0 PLATED MILS
;Holesize 3 =   23.0 PLATED MILS
;Holesize 4 =  157.0 PLATED MILS
;Holesize 5 =   30.0 PLATED MILS
;Holesize 6 =   75.0 PLATED MILS
;Holesize 7 =  100.0 PLATED MILS
;Holesize 8 =   14.0 PLATED MILS
M48
INCH,00.0000
T01C0.028
T02C0.020
T03C0.023
T04C0.157
T05C0.030
T06C0.075
T07C0.100
T08C0.014
%
G05
G90
T01
X001250Y023000
X001250Y022000
X001250Y021000
X001187Y027118
X001187Y026118
X001187Y025118
X039000Y001250
X040000Y001250
X041000Y001250
X053624Y024368
X053624Y025352
X034250Y001250
X035250Y001250
X036250Y001250
X045124Y021868
X046108Y021868
X044500Y028000
X044500Y028984
X045750Y019500
X044765Y019500
X047374Y021868
X048358Y021868
X048000Y019500
X047015Y019500
X012500Y030250
X013500Y030250
X014500Y030250
X005000Y004500
X049874Y021868
X050858Y021868
X033000Y004000
X027874Y003368
X031124Y016868
X042624Y029868
X039874Y019368
X036874Y016618
X033374Y014368
X007250Y030250
X008250Y030250
X010250Y030250
X011250Y030250
X001187Y017118
X001187Y016118
X001187Y015118
X053624Y013368
X053624Y014368
X019500Y008250
T02
X050550Y029000
X050000Y028500
X049450Y029000
X047550Y029000
X047000Y028500
X046450Y029000
T03
X037674Y007868
X034974Y007868
X036924Y010868
X034224Y010868
X045500Y007700
X045500Y010400
X043750Y008800
X043750Y006100
X039750Y008800
X039750Y006100
X022774Y021590
X021874Y020646
X015774Y021340
X014874Y020396
X034224Y019896
X035124Y020840
X036474Y023146
X037374Y024090
X009374Y014618
X009374Y013476
X018624Y012618
X018624Y013760
X018000Y004468
X018000Y003326
X012250Y009750
X011108Y009750
X045124Y025709
X044139Y024527
X047374Y025709
X046389Y024527
X048624Y024527
X049608Y025709
X050874Y024527
X051858Y025709
X042100Y013000
X040918Y013000
T04
X041500Y010800
T05
X053124Y022368
T06
X053124Y020368
T07
X001377Y001377
X053740Y001377
X053740Y030118
X001377Y030118
T08
X046500Y004700
X046500Y003400
X031800Y007200
X038300Y004700
X036700Y002900
X047100Y003100
X046600Y005200
X045000Y005200
X033974Y012068
X027900Y012100
X045600Y017300
X027800Y010100
X001800Y011300
X002800Y023400
X006500Y024200
X045800Y016100
X051500Y006300
X019100Y027000
X019100Y030800
X002600Y027600
X002600Y025500
X014400Y024500
X013900Y025900
X016000Y023100
X015700Y026000
X019100Y027000
X019100Y030800
X048300Y005700
X030900Y022600
X032800Y021500
X016600Y026600
X017800Y027800
X008100Y018100
X007100Y018100
X002600Y013900
X000600Y011100
X006000Y011000
X006900Y013500
X007900Y025000
X008700Y022500
X008600Y018000
X006100Y015300
X008000Y024200
X011600Y019500
X008900Y011500
X007600Y009200
X033100Y019200
X029500Y012400
X029500Y011500
X027900Y006100
X005500Y010300
X006900Y012900
X006700Y003400
X005300Y003400
X012900Y023200
X012900Y024100
X012900Y027500
X008800Y020600
X007500Y026200
X016200Y028700
X024400Y024500
X043000Y023600
X047900Y016600
X032074Y012568
X012674Y015368
X038000Y018000
X029900Y016700
X038400Y012000
X038900Y009100
X017000Y030400
X016600Y027200
X011500Y007000
X022300Y013500
X046100Y003400
X030400Y008100
X028200Y008100
X014600Y013700
X026074Y014268
X027274Y017068
X024000Y026100
X017400Y024900
X037174Y015868
X045000Y016500
X012274Y014568
X026574Y012668
X011700Y013600
X008900Y012200
X009000Y017900
X003700Y025600
X007600Y011700
X006700Y007200
X015600Y030700
X003200Y026200
X049200Y015100
X044500Y022400
X051600Y013400
X049200Y015100
X002000Y004600
X010100Y001800
X039300Y009500
X039300Y011700
X025000Y026100
X017900Y025300
X026900Y027500
X023000Y029600
X012600Y017000
X010000Y015400
X007500Y020500
X025000Y030700
X016600Y025600
X034574Y023868
X039374Y022068
X047300Y013100
X040000Y022900
X009200Y024700
X002900Y018700
X016000Y027200
X009200Y024700
X016000Y027200
X025400Y015800
X051900Y019600
X026600Y024800
X017000Y028400
X048874Y013868
X051174Y014468
X015300Y011300
X013100Y013100
X016600Y028400
X009800Y024600
X009200Y022500
X010600Y018100
X050800Y004000
X029400Y030800
X032300Y026200
X013400Y027200
X013400Y024100
X013400Y022500
X014600Y022800
X010400Y024800
X028700Y012100
X022700Y014000
X022700Y015800
X014800Y024300
M30
