G04 FreePCB version 1.359*
G04 Z:\home\jason\Ubuntu One\Etherkit\git\CC-Series\pcb\CAM\top_copper.grb*
G04 top copper layer *
G04 Scale: 100 percent, Rotated: No, Reflected: No *
%FSLAX24Y24*%
%MOIN*%
%LN top copper *%
G04 Rounded Rectangle Macro, params: W/2, H/2, R *
%AMRNDREC*
21,1,$1+$1,$2+$2-$3-$3,0,0,0*
21,1,$1+$1-$3-$3,$2+$2,0,0,0*
1,1,$3+$3,$1-$3,$2-$3*
1,1,$3+$3,$3-$1,$2-$3*
1,1,$3+$3,$1-$3,$3-$2*
1,1,$3+$3,$3-$1,$3-$2*%
G04 Rectangular Thermal Macro, params: W/2, H/2, T/2 *
%AMRECTHERM*
$4=$3/2*
21,1,$1-$3,$2-$3,0-$1/2-$4,0-$2/2-$4,0*
21,1,$1-$3,$2-$3,0-$1/2-$4,$2/2+$4,0*
21,1,$1-$3,$2-$3,$1/2+$4,0-$2/2-$4,0*
21,1,$1-$3,$2-$3,$1/2+$4,$2/2+$4,0*%
%ADD10C,0.005000*%
%ADD11R,0.071181X0.082992*%
%ADD12RECTHERM,0.035591X0.041496X0.007500*%
%ADD13C,0.001000*%
%ADD14R,0.071181X0.079055*%
%ADD15RECTHERM,0.035591X0.039528X0.007500*%
%ADD16R,0.082992X0.079055*%
%ADD17R,0.079055X0.071181*%
%ADD18R,0.079055X0.082992*%
%ADD19R,0.075118X0.071181*%
%ADD20RECTHERM,0.037559X0.035591X0.007500*%
%ADD21R,0.071181X0.075118*%
%ADD22RECTHERM,0.035591X0.037559X0.007500*%
%ADD23R,0.082992X0.071181*%
%ADD24RECTHERM,0.041496X0.035591X0.007500*%
%ADD25R,0.051496X0.114488*%
%ADD26RECTHERM,0.025748X0.057244X0.007500*%
%ADD27R,0.067244X0.095000*%
%ADD28RECTHERM,0.039528X0.035591X0.007500*%
%ADD29RECTHERM,0.040000X0.040000X0.007500*%
%ADD30C,0.080000*%
%ADD31R,0.080000X0.080000*%
%AMTHERM32*7,0,0,0.080000,0.060000,0.015000,45.0*%
%ADD32THERM32*%
%ADD33R,0.082992X0.118425*%
%ADD34RECTHERM,0.041496X0.059213X0.007500*%
%ADD35C,0.098740*%
%AMTHERM36*7,0,0,0.098740,0.078740,0.015000,45.0*%
%ADD36THERM36*%
%ADD37R,0.118425X0.082992*%
%ADD38RECTHERM,0.059213X0.041496X0.007500*%
%ADD39R,0.059000X0.046000*%
%ADD40RECTHERM,0.029500X0.023000X0.007500*%
%ADD41C,0.070000*%
%AMTHERM42*7,0,0,0.070000,0.050000,0.015000,45.0*%
%ADD42THERM42*%
%ADD43R,0.059370X0.034567*%
%ADD44RECTHERM,0.029685X0.017283X0.007500*%
%ADD45R,0.034567X0.059370*%
%ADD46R,0.046000X0.059000*%
%ADD47RECTHERM,0.023000X0.029500X0.007500*%
%ADD48R,0.095000X0.067244*%
%ADD49RECTHERM,0.045000X0.052500X0.007500*%
%ADD50R,0.090000X0.105000*%
%ADD51R,0.082992X0.138110*%
%ADD52RECTHERM,0.041496X0.069055X0.007500*%
%ADD53R,0.197165X0.082992*%
%ADD54RECTHERM,0.098583X0.041496X0.007500*%
%ADD55R,0.118425X0.197165*%
%ADD56RECTHERM,0.059213X0.098583X0.007500*%
%ADD57R,0.082992X0.197165*%
%ADD58RECTHERM,0.041496X0.098583X0.007500*%
%ADD59R,0.197165X0.118425*%
%ADD60RECTHERM,0.098583X0.059213X0.007500*%
%ADD61C,0.067244*%
%AMTHERM62*7,0,0,0.067244,0.047244,0.015000,45.0*%
%ADD62THERM62*%
%ADD63R,0.079055X0.079055*%
%ADD64RECTHERM,0.039528X0.039528X0.007500*%
%ADD65R,0.055433X0.055433*%
%ADD66R,0.240472X0.102677*%
%ADD67R,0.102677X0.240472*%
%ADD68R,0.059370X0.055433*%
%ADD69RECTHERM,0.029685X0.027717X0.007500*%
%ADD70R,0.063307X0.055433*%
%ADD71R,0.061732X0.045591*%
%ADD72RECTHERM,0.030866X0.022795X0.007500*%
%ADD73C,0.187480*%
%ADD74R,0.095000X0.095000*%
%AMTHERM75*7,0,0,0.170000,0.150000,0.015000,45.0*%
%ADD75THERM75*%
%ADD76R,0.070000X0.165000*%
%ADD77RECTHERM,0.035000X0.082500X0.007500*%
%ADD78RECTHERM,0.110000X0.110000X0.007500*%
%ADD79C,0.030000*%
%ADD80C,0.048000*%
%ADD81C,0.040000*%
%ADD82C,0.045000*%
%ADD83C,0.025906*%
%ADD84R,0.051181X0.062992*%
%ADD85R,0.051181X0.059055*%
%ADD86R,0.062992X0.059055*%
%ADD87R,0.059055X0.051181*%
%ADD88R,0.059055X0.062992*%
%ADD89R,0.055118X0.051181*%
%ADD90R,0.051181X0.055118*%
%ADD91R,0.062992X0.051181*%
%ADD92R,0.031496X0.094488*%
%ADD93R,0.047244X0.075000*%
%ADD94R,0.060000X0.060000*%
%ADD95C,0.060000*%
%ADD96R,0.062992X0.098425*%
%ADD97C,0.078740*%
%ADD98R,0.098425X0.062992*%
%ADD99R,0.039000X0.026000*%
%ADD100C,0.050000*%
%ADD101R,0.039370X0.014567*%
%ADD102R,0.014567X0.039370*%
%ADD103R,0.026000X0.039000*%
%ADD104R,0.075000X0.047244*%
%ADD105R,0.070000X0.085000*%
%ADD106R,0.062992X0.118110*%
%ADD107R,0.177165X0.062992*%
%ADD108R,0.098425X0.177165*%
%ADD109R,0.062992X0.177165*%
%ADD110R,0.177165X0.098425*%
%ADD111C,0.047244*%
%ADD112R,0.059055X0.059055*%
%ADD113R,0.035433X0.035433*%
%ADD114R,0.220472X0.082677*%
%ADD115R,0.082677X0.220472*%
%ADD116R,0.039370X0.035433*%
%ADD117R,0.043307X0.035433*%
%ADD118R,0.041732X0.025591*%
%ADD119R,0.075000X0.075000*%
%ADD120C,0.150000*%
%ADD121R,0.050000X0.145000*%
%ADD122R,0.200000X0.200000*%
%ADD123C,0.010000*%
%ADD124C,0.028000*%
%ADD125C,0.020000*%
%ADD126C,0.025000*%
%ADD127C,0.005906*%
G90*
G70D02*

G04 Step and Repeat for panelization *

G04 ----------------------- Draw board outline (positive)*
%LPD*%
G54D10*
G01X0Y0D02*
G01X55118Y0D01*
G04 end of side 1*
G01X55118Y31496D01*
G04 end of side 2*
G01X0Y31496D01*
G04 end of side 3*
G01X0Y0D01*

G04 ----------------------- Draw copper area (positive)*
G36*
G01X54803Y314D02*
G01X314Y314D01*
G01X314Y31181D01*
G01X54803Y31181D01*
G01X54803Y314D01*
G37*

G04 -------------------- Draw copper area clearances (negative)*
%LPC*%

G04 Draw clearances for pads*
G54D11*
G01X39500Y18000D03*
G01X38751Y18000D03*
G01X23374Y16618D03*
G01X22625Y16618D03*
G01X22124Y18368D03*
G54D12*
G01X22872Y18368D03*
G54D13*
G54D11*
G01X19374Y17118D03*
G01X18625Y17118D03*
G01X16374Y17118D03*
G54D12*
G01X17122Y17118D03*
G54D13*
G54D14*
G01X26124Y15618D03*
G54D15*
G01X26950Y15618D03*
G54D13*
G54D16*
G01X26537Y16602D03*
G54D17*
G01X27874Y17118D03*
G01X27874Y16291D03*
G54D18*
G01X28858Y16705D03*
G54D14*
G01X24124Y14118D03*
G54D15*
G01X23297Y14118D03*
G54D13*
G54D16*
G01X23710Y13134D03*
G54D19*
G01X24624Y16618D03*
G54D20*
G01X24624Y15870D03*
G54D13*
G54D19*
G01X26624Y13368D03*
G01X26624Y14116D03*
G01X25374Y14118D03*
G54D20*
G01X25374Y13370D03*
G54D13*
G54D19*
G01X13624Y20368D03*
G54D20*
G01X13624Y21116D03*
G54D13*
G54D14*
G01X12750Y17750D03*
G01X13576Y17750D03*
G54D16*
G01X13163Y18734D03*
G54D14*
G01X12000Y17750D03*
G01X11173Y17750D03*
G54D16*
G01X11586Y16765D03*
G54D21*
G01X14624Y17868D03*
G54D22*
G01X15372Y17868D03*
G54D13*
G54D21*
G01X12624Y16118D03*
G01X13372Y16118D03*
G54D11*
G01X14624Y16118D03*
G54D12*
G01X15372Y16118D03*
G54D13*
G54D21*
G01X11624Y15368D03*
G01X10875Y15368D03*
G54D23*
G01X11124Y12868D03*
G54D24*
G01X11124Y13616D03*
G54D13*
G54D23*
G01X9000Y16250D03*
G01X9000Y16998D03*
G54D19*
G01X12374Y13118D03*
G01X12374Y12370D03*
G54D14*
G01X15750Y13000D03*
G01X14923Y13000D03*
G54D16*
G01X15336Y12015D03*
G54D14*
G01X17374Y14868D03*
G01X16547Y14868D03*
G54D16*
G01X16960Y13884D03*
G54D19*
G01X13874Y13118D03*
G01X13874Y12370D03*
G54D21*
G01X18374Y15368D03*
G01X19122Y15368D03*
G54D11*
G01X12374Y11368D03*
G54D12*
G01X13122Y11368D03*
G54D13*
G54D11*
G01X20124Y15368D03*
G54D12*
G01X20872Y15368D03*
G54D13*
G54D23*
G01X20124Y13368D03*
G54D24*
G01X20124Y12620D03*
G54D13*
G54D19*
G01X21374Y12618D03*
G01X21374Y13366D03*
G54D23*
G01X17124Y11618D03*
G01X17124Y12366D03*
G54D11*
G01X17374Y10368D03*
G54D12*
G01X16625Y10368D03*
G54D13*
G54D11*
G01X26874Y11618D03*
G01X26125Y11618D03*
G01X24437Y9368D03*
G54D12*
G01X23688Y9368D03*
G54D13*
G54D11*
G01X25374Y3618D03*
G54D12*
G01X26122Y3618D03*
G54D13*
G54D23*
G01X19437Y4118D03*
G01X19437Y3370D03*
G54D11*
G01X21374Y9368D03*
G54D12*
G01X20625Y9368D03*
G54D13*
G54D23*
G01X19437Y5618D03*
G54D24*
G01X19437Y6366D03*
G54D13*
G54D19*
G01X46500Y2500D03*
G01X46500Y1751D03*
G01X47750Y1750D03*
G54D20*
G01X47750Y2498D03*
G54D13*
G54D19*
G01X51500Y4750D03*
G01X51500Y4001D03*
G01X52750Y4000D03*
G54D20*
G01X52750Y4748D03*
G54D13*
G54D19*
G01X2000Y5500D03*
G01X2000Y6248D03*
G01X1000Y5500D03*
G54D20*
G01X1000Y6248D03*
G54D13*
G54D23*
G01X10250Y17500D03*
G54D24*
G01X10250Y16751D03*
G54D13*
G54D23*
G01X18187Y8618D03*
G01X18187Y7870D03*
G54D19*
G01X16687Y8618D03*
G01X16687Y7870D03*
G54D14*
G01X15000Y9250D03*
G01X15826Y9250D03*
G54D16*
G01X15413Y10234D03*
G54D14*
G01X13500Y8750D03*
G01X14326Y8750D03*
G54D16*
G01X13913Y9734D03*
G54D19*
G01X15250Y7750D03*
G01X15250Y7001D03*
G01X11500Y7750D03*
G01X11500Y8498D03*
G54D11*
G01X3750Y4250D03*
G54D12*
G01X3001Y4250D03*
G54D13*
G54D11*
G01X3000Y6250D03*
G01X3748Y6250D03*
G54D19*
G01X8250Y12250D03*
G01X8250Y11501D03*
G54D23*
G01X10250Y8500D03*
G54D24*
G01X10250Y7751D03*
G54D13*
G54D11*
G01X10750Y1750D03*
G54D12*
G01X11498Y1750D03*
G54D13*
G54D23*
G01X5250Y1750D03*
G01X5250Y2498D03*
G54D11*
G01X13624Y14868D03*
G54D12*
G01X14372Y14868D03*
G54D13*
G54D19*
G01X6250Y9250D03*
G54D20*
G01X6250Y8501D03*
G54D13*
G54D14*
G01X5250Y11750D03*
G01X6076Y11750D03*
G54D16*
G01X5663Y12734D03*
G54D14*
G01X5000Y10250D03*
G01X4173Y10250D03*
G54D16*
G01X4586Y9265D03*
G54D21*
G01X5250Y7000D03*
G54D22*
G01X5998Y7000D03*
G54D13*
G54D21*
G01X3000Y8000D03*
G01X3748Y8000D03*
G01X9750Y18750D03*
G01X9001Y18750D03*
G54D23*
G01X7750Y17000D03*
G01X7750Y16251D03*
G54D19*
G01X7750Y14000D03*
G01X7750Y14748D03*
G54D21*
G01X5750Y19250D03*
G01X6498Y19250D03*
G54D25*
G01X6000Y23250D03*
G01X6500Y23250D03*
G01X7000Y23250D03*
G54D26*
G01X7500Y23250D03*
G54D13*
G54D25*
G01X7500Y25218D03*
G01X7000Y25218D03*
G01X6500Y25218D03*
G01X6000Y25218D03*
G54D19*
G01X6500Y21250D03*
G01X6500Y20501D03*
G54D21*
G01X4250Y21750D03*
G01X4998Y21750D03*
G54D27*
G01X5500Y20750D03*
G01X4050Y20750D03*
G01X3250Y19500D03*
G01X4700Y19500D03*
G54D21*
G01X4250Y26000D03*
G01X4998Y26000D03*
G54D11*
G01X4250Y24000D03*
G01X4998Y24000D03*
G54D17*
G01X2250Y18750D03*
G54D28*
G01X2250Y19576D03*
G54D13*
G54D18*
G01X1265Y19163D03*
G54D19*
G01X3000Y17250D03*
G54D20*
G01X3000Y16501D03*
G54D13*
G54D29*
G01X1250Y23000D03*
G54D13*
G54D30*
G01X1250Y22000D03*
G01X1250Y21000D03*
G54D11*
G01X8250Y21250D03*
G01X7501Y21250D03*
G01X4250Y22750D03*
G01X4998Y22750D03*
G54D21*
G01X9250Y21250D03*
G01X9998Y21250D03*
G54D19*
G01X10750Y19000D03*
G01X10750Y19748D03*
G54D23*
G01X10000Y22750D03*
G01X10000Y23498D03*
G01X8500Y25750D03*
G01X8500Y25001D03*
G54D19*
G01X10000Y26250D03*
G01X10000Y25501D03*
G54D21*
G01X9250Y27750D03*
G01X9998Y27750D03*
G01X8750Y20000D03*
G01X9498Y20000D03*
G01X6250Y28250D03*
G01X6998Y28250D03*
G54D11*
G01X6250Y27250D03*
G01X6998Y27250D03*
G54D31*
G01X1187Y27118D03*
G54D30*
G01X1187Y26118D03*
G54D32*
G01X1187Y25118D03*
G54D13*
G54D14*
G01X7500Y2500D03*
G01X6673Y2500D03*
G54D16*
G01X7086Y1515D03*
G54D21*
G01X9500Y1750D03*
G01X8751Y1750D03*
G54D19*
G01X3750Y2500D03*
G54D20*
G01X3750Y1751D03*
G54D13*
G54D21*
G01X10750Y3000D03*
G01X11498Y3000D03*
G54D23*
G01X18187Y5618D03*
G54D24*
G01X18187Y6366D03*
G54D13*
G54D23*
G01X14250Y7750D03*
G54D24*
G01X14250Y7001D03*
G54D13*
G54D21*
G01X12750Y1750D03*
G54D22*
G01X13498Y1750D03*
G54D13*
G54D23*
G01X7000Y11500D03*
G01X7000Y10751D03*
G01X16750Y6218D03*
G54D24*
G01X16750Y5470D03*
G54D13*
G54D21*
G01X42750Y3250D03*
G01X43498Y3250D03*
G54D19*
G01X29874Y4868D03*
G54D20*
G01X29874Y4120D03*
G54D13*
G54D14*
G01X38750Y10500D03*
G01X37923Y10500D03*
G54D16*
G01X38336Y9515D03*
G54D19*
G01X34500Y5500D03*
G54D20*
G01X34500Y4751D03*
G54D13*
G54D11*
G01X46624Y7118D03*
G54D12*
G01X47372Y7118D03*
G54D13*
G54D19*
G01X31124Y4868D03*
G54D20*
G01X31124Y4120D03*
G54D13*
G54D21*
G01X33624Y8118D03*
G01X32875Y8118D03*
G01X27874Y10868D03*
G01X28622Y10868D03*
G54D15*
G01X41000Y4250D03*
G54D13*
G54D14*
G01X41826Y4250D03*
G54D16*
G01X41413Y5234D03*
G54D15*
G01X39500Y4250D03*
G54D13*
G54D14*
G01X40326Y4250D03*
G54D16*
G01X39913Y5234D03*
G54D33*
G01X38874Y13068D03*
G54D34*
G01X38874Y16572D03*
G54D13*
G54D21*
G01X32374Y9868D03*
G54D22*
G01X33122Y9868D03*
G54D13*
G54D28*
G01X48274Y10168D03*
G54D13*
G54D17*
G01X48274Y10995D03*
G54D18*
G01X47289Y10581D03*
G54D23*
G01X36000Y5500D03*
G54D24*
G01X36000Y4751D03*
G54D13*
G54D19*
G01X47674Y8268D03*
G01X47674Y9016D03*
G01X37500Y4750D03*
G01X37500Y5498D03*
G54D31*
G01X39000Y1250D03*
G54D30*
G01X40000Y1250D03*
G01X41000Y1250D03*
G54D35*
G01X53624Y24368D03*
G54D36*
G01X53624Y25352D03*
G54D13*
G54D21*
G01X50000Y6500D03*
G54D22*
G01X50748Y6500D03*
G54D13*
G54D14*
G01X50000Y5000D03*
G01X49173Y5000D03*
G54D16*
G01X49586Y4015D03*
G54D21*
G01X46624Y6118D03*
G54D22*
G01X47372Y6118D03*
G54D13*
G54D14*
G01X28250Y29250D03*
G01X27423Y29250D03*
G54D16*
G01X27836Y28265D03*
G54D19*
G01X38374Y27368D03*
G54D20*
G01X38374Y28116D03*
G54D13*
G54D11*
G01X41874Y27868D03*
G01X42622Y27868D03*
G54D19*
G01X33624Y18118D03*
G54D20*
G01X33624Y17370D03*
G54D13*
G54D19*
G01X28374Y18868D03*
G01X28374Y18120D03*
G54D11*
G01X37874Y29868D03*
G54D12*
G01X38622Y29868D03*
G54D13*
G54D11*
G01X30374Y21368D03*
G01X29625Y21368D03*
G54D19*
G01X40624Y23118D03*
G54D20*
G01X40624Y22370D03*
G54D13*
G54D33*
G01X24874Y18618D03*
G54D34*
G01X24874Y22122D03*
G54D13*
G54D11*
G01X30874Y26118D03*
G01X31622Y26118D03*
G54D21*
G01X29374Y30118D03*
G54D22*
G01X30122Y30118D03*
G54D13*
G54D14*
G01X32250Y22000D03*
G01X31423Y22000D03*
G54D16*
G01X31836Y21015D03*
G54D17*
G01X31250Y24250D03*
G01X31250Y23423D03*
G54D18*
G01X32234Y23836D03*
G54D19*
G01X41124Y19618D03*
G54D20*
G01X41124Y18870D03*
G54D13*
G54D19*
G01X30874Y19368D03*
G54D20*
G01X30874Y18620D03*
G54D13*
G54D23*
G01X26874Y18868D03*
G54D24*
G01X26874Y18120D03*
G54D13*
G54D19*
G01X35374Y23868D03*
G01X35374Y23120D03*
G54D37*
G01X13000Y3500D03*
G54D38*
G01X16503Y3500D03*
G54D13*
G54D14*
G01X31250Y7250D03*
G01X30423Y7250D03*
G54D16*
G01X30836Y6265D03*
G54D21*
G01X27874Y8868D03*
G54D22*
G01X28622Y8868D03*
G54D13*
G54D21*
G01X21624Y29618D03*
G01X22372Y29618D03*
G54D23*
G01X33124Y12368D03*
G01X33124Y11620D03*
G54D11*
G01X37500Y3250D03*
G54D12*
G01X38248Y3250D03*
G54D13*
G54D31*
G01X34250Y1250D03*
G54D30*
G01X35250Y1250D03*
G01X36250Y1250D03*
G54D21*
G01X35250Y3250D03*
G54D22*
G01X34501Y3250D03*
G54D13*
G54D33*
G01X33624Y26368D03*
G54D34*
G01X33624Y29872D03*
G54D13*
G54D23*
G01X42874Y25118D03*
G54D24*
G01X42874Y25866D03*
G54D13*
G54D33*
G01X36124Y26368D03*
G54D34*
G01X36124Y29872D03*
G54D13*
G54D21*
G01X41624Y21368D03*
G01X42372Y21368D03*
G54D14*
G01X38750Y24750D03*
G01X39576Y24750D03*
G54D16*
G01X39163Y25734D03*
G54D19*
G01X29874Y24118D03*
G54D20*
G01X29874Y23370D03*
G54D13*
G54D23*
G01X33624Y23118D03*
G54D24*
G01X33624Y23866D03*
G54D13*
G54D11*
G01X38374Y21368D03*
G01X39122Y21368D03*
G54D19*
G01X31874Y28618D03*
G01X31874Y27870D03*
G54D21*
G01X33124Y19868D03*
G01X32375Y19868D03*
G54D39*
G01X41624Y23618D03*
G01X41624Y23248D03*
G54D40*
G01X41624Y22868D03*
G54D13*
G54D39*
G01X42644Y22868D03*
G01X42644Y23618D03*
G54D21*
G01X39624Y27868D03*
G54D22*
G01X40372Y27868D03*
G54D13*
G54D19*
G01X41124Y25118D03*
G01X41124Y25866D03*
G54D21*
G01X47500Y5000D03*
G01X48248Y5000D03*
G54D41*
G01X50550Y29000D03*
G01X50000Y28500D03*
G54D42*
G01X49450Y29000D03*
G54D13*
G54D41*
G01X47550Y29000D03*
G01X47000Y28500D03*
G54D42*
G01X46450Y29000D03*
G54D13*
G54D35*
G01X45124Y21868D03*
G01X46108Y21868D03*
G01X44500Y28000D03*
G54D36*
G01X44500Y28984D03*
G54D13*
G54D23*
G01X43874Y22368D03*
G54D24*
G01X43874Y21620D03*
G54D13*
G54D35*
G01X45750Y19500D03*
G54D36*
G01X44765Y19500D03*
G54D13*
G54D23*
G01X32374Y18118D03*
G54D24*
G01X32374Y17370D03*
G54D13*
G54D35*
G01X47374Y21868D03*
G01X48358Y21868D03*
G01X48000Y19500D03*
G54D36*
G01X47015Y19500D03*
G54D13*
G54D43*
G01X14277Y27500D03*
G01X14277Y27185D03*
G54D44*
G01X14277Y26870D03*
G54D13*
G54D43*
G01X14277Y26555D03*
G54D44*
G01X14277Y26240D03*
G54D13*
G54D43*
G01X14277Y25925D03*
G01X14277Y25610D03*
G01X14277Y25295D03*
G54D45*
G01X14750Y24822D03*
G01X15064Y24822D03*
G01X15379Y24822D03*
G01X15694Y24822D03*
G01X16009Y24822D03*
G01X16324Y24822D03*
G01X16639Y24822D03*
G01X16954Y24822D03*
G54D43*
G01X17427Y25295D03*
G01X17427Y25610D03*
G01X17427Y25925D03*
G01X17427Y26240D03*
G54D44*
G01X17427Y26555D03*
G54D13*
G54D43*
G01X17427Y26870D03*
G01X17427Y27185D03*
G01X17427Y27500D03*
G54D45*
G01X16954Y27972D03*
G01X16639Y27972D03*
G01X16324Y27972D03*
G01X16009Y27972D03*
G01X15694Y27972D03*
G01X15379Y27972D03*
G01X15064Y27972D03*
G01X14750Y27972D03*
G54D21*
G01X24374Y23868D03*
G54D22*
G01X23625Y23868D03*
G54D13*
G54D11*
G01X27874Y4868D03*
G01X28622Y4868D03*
G54D31*
G01X12500Y30250D03*
G54D30*
G01X13500Y30250D03*
G54D32*
G01X14500Y30250D03*
G54D13*
G54D11*
G01X17750Y28500D03*
G54D12*
G01X18498Y28500D03*
G54D13*
G54D11*
G01X12124Y28368D03*
G54D12*
G01X11375Y28368D03*
G54D13*
G54D11*
G01X15500Y23750D03*
G54D12*
G01X16248Y23750D03*
G54D13*
G54D21*
G01X20750Y28500D03*
G01X21498Y28500D03*
G54D19*
G01X22000Y27000D03*
G01X22000Y26251D03*
G54D11*
G01X28624Y12868D03*
G54D12*
G01X27875Y12868D03*
G54D13*
G54D23*
G01X20500Y24750D03*
G54D24*
G01X20500Y24001D03*
G54D13*
G54D14*
G01X25374Y23868D03*
G54D15*
G01X26200Y23868D03*
G54D13*
G54D16*
G01X25787Y24852D03*
G54D21*
G01X15624Y29618D03*
G01X16372Y29618D03*
G01X17624Y29618D03*
G54D22*
G01X18372Y29618D03*
G54D13*
G54D19*
G01X22000Y24750D03*
G01X22000Y24001D03*
G54D11*
G01X34874Y12868D03*
G54D12*
G01X35622Y12868D03*
G54D13*
G54D46*
G01X37124Y15118D03*
G54D47*
G01X36754Y15118D03*
G54D13*
G54D46*
G01X36374Y15118D03*
G01X36374Y14098D03*
G01X37124Y14098D03*
G01X31124Y14118D03*
G54D47*
G01X30754Y14118D03*
G54D13*
G54D46*
G01X30374Y14118D03*
G01X30374Y13098D03*
G01X31124Y13098D03*
G54D23*
G01X35374Y16618D03*
G54D24*
G01X35374Y17366D03*
G54D13*
G54D11*
G01X27874Y14868D03*
G54D12*
G01X28622Y14868D03*
G54D13*
G54D11*
G01X30374Y10868D03*
G54D12*
G01X31122Y10868D03*
G54D13*
G54D23*
G01X18500Y27000D03*
G54D24*
G01X18500Y26251D03*
G54D13*
G54D23*
G01X35124Y14118D03*
G54D24*
G01X35124Y14866D03*
G54D13*
G54D11*
G01X12500Y20250D03*
G54D12*
G01X11751Y20250D03*
G54D13*
G54D14*
G01X50624Y13868D03*
G01X49797Y13868D03*
G54D16*
G01X50210Y12884D03*
G54D14*
G01X47124Y16618D03*
G01X46297Y16618D03*
G54D16*
G01X46710Y15634D03*
G54D21*
G01X46500Y17500D03*
G01X47248Y17500D03*
G54D19*
G01X50374Y16618D03*
G01X50374Y17366D03*
G01X51874Y14368D03*
G01X51874Y15116D03*
G54D23*
G01X20500Y27000D03*
G54D24*
G01X20500Y26251D03*
G54D13*
G54D48*
G01X53624Y16368D03*
G01X53624Y17818D03*
G54D33*
G01X20124Y18618D03*
G54D34*
G01X20124Y22122D03*
G54D13*
G54D33*
G01X17624Y18618D03*
G54D34*
G01X17624Y22122D03*
G54D13*
G54D11*
G01X16000Y1750D03*
G54D12*
G01X16748Y1750D03*
G54D13*
G54D23*
G01X29624Y19368D03*
G54D24*
G01X29624Y18620D03*
G54D13*
G54D23*
G01X30124Y27868D03*
G54D24*
G01X30124Y28616D03*
G54D13*
G54D11*
G01X36374Y20118D03*
G54D12*
G01X37122Y20118D03*
G54D13*
G54D23*
G01X12750Y8500D03*
G54D24*
G01X12750Y7751D03*
G54D13*
G54D31*
G01X5000Y4500D03*
G54D11*
G01X47500Y12000D03*
G01X46751Y12000D03*
G01X32250Y6000D03*
G01X32998Y6000D03*
G01X31124Y8868D03*
G54D12*
G01X30375Y8868D03*
G54D13*
G54D11*
G01X27874Y6868D03*
G01X28622Y6868D03*
G01X39374Y22868D03*
G54D12*
G01X38625Y22868D03*
G54D13*
G54D35*
G01X49874Y21868D03*
G01X50858Y21868D03*
G54D31*
G01X33000Y4000D03*
G01X27874Y3368D03*
G01X31124Y16868D03*
G01X42624Y29868D03*
G01X39874Y19368D03*
G54D21*
G01X49874Y15118D03*
G01X50622Y15118D03*
G54D23*
G01X48124Y13118D03*
G01X48124Y13866D03*
G01X48624Y16618D03*
G01X48624Y17366D03*
G54D48*
G01X51874Y16618D03*
G01X51874Y18068D03*
G54D31*
G01X36874Y16618D03*
G01X33374Y14368D03*
G54D49*
G01X52250Y12000D03*
G54D13*
G54D50*
G01X53500Y12000D03*
G54D51*
G01X1500Y10000D03*
G54D52*
G01X1500Y8307D03*
G54D13*
G54D53*
G01X3850Y12750D03*
G54D54*
G01X1450Y12750D03*
G54D13*
G54D55*
G01X5250Y14900D03*
G54D56*
G01X5250Y17600D03*
G54D13*
G54D11*
G01X4250Y25000D03*
G54D12*
G01X4998Y25000D03*
G54D13*
G54D57*
G01X4250Y29850D03*
G01X4250Y27450D03*
G01X8250Y9350D03*
G54D58*
G01X8250Y6950D03*
G54D13*
G54D57*
G01X43000Y18600D03*
G54D58*
G01X43000Y16200D03*
G54D13*
G54D59*
G01X53350Y9000D03*
G54D60*
G01X50650Y9000D03*
G54D13*
G54D61*
G01X37674Y7868D03*
G01X34974Y7868D03*
G01X36924Y10868D03*
G54D62*
G01X34224Y10868D03*
G54D13*
G54D61*
G01X45500Y7700D03*
G54D62*
G01X45500Y10400D03*
G54D13*
G54D61*
G01X43750Y8800D03*
G54D62*
G01X43750Y6100D03*
G54D13*
G54D61*
G01X39750Y8800D03*
G01X39750Y6100D03*
G54D63*
G01X11124Y11368D03*
G54D64*
G01X9746Y11368D03*
G54D13*
G54D65*
G01X10424Y11668D03*
G54D63*
G01X15437Y5118D03*
G54D64*
G01X14059Y5118D03*
G54D13*
G54D65*
G01X14737Y5418D03*
G54D31*
G01X7250Y30250D03*
G54D32*
G01X8250Y30250D03*
G54D13*
G54D31*
G01X10250Y30250D03*
G54D32*
G01X11250Y30250D03*
G54D13*
G54D66*
G01X19374Y11118D03*
G01X23114Y11118D03*
G54D67*
G01X26124Y9368D03*
G01X26124Y5628D03*
G01X23624Y3618D03*
G01X23624Y7358D03*
G01X21124Y7368D03*
G01X21124Y3628D03*
G54D66*
G01X7000Y4750D03*
G01X10740Y4750D03*
G54D67*
G01X27874Y25368D03*
G01X27874Y21628D03*
G01X11624Y26368D03*
G01X11624Y22628D03*
G54D68*
G01X19250Y25000D03*
G54D69*
G01X18580Y25000D03*
G54D13*
G54D70*
G01X18915Y23900D03*
G54D71*
G01X8250Y23750D03*
G54D72*
G01X8250Y23375D03*
G54D13*
G54D71*
G01X8250Y23001D03*
G01X9116Y23001D03*
G01X9116Y23375D03*
G01X9116Y23750D03*
G54D62*
G01X22774Y21590D03*
G54D13*
G54D61*
G01X21874Y20646D03*
G54D62*
G01X15774Y21340D03*
G54D13*
G54D61*
G01X14874Y20396D03*
G01X34224Y19896D03*
G01X35124Y20840D03*
G54D62*
G01X36474Y23146D03*
G54D13*
G54D61*
G01X37374Y24090D03*
G01X9374Y14618D03*
G01X9374Y13476D03*
G01X18624Y12618D03*
G01X18624Y13760D03*
G01X18000Y4468D03*
G01X18000Y3326D03*
G01X12250Y9750D03*
G01X11108Y9750D03*
G01X45124Y25709D03*
G01X44139Y24527D03*
G01X47374Y25709D03*
G01X46389Y24527D03*
G01X48624Y24527D03*
G01X49608Y25709D03*
G01X50874Y24527D03*
G01X51858Y25709D03*
G01X42100Y13000D03*
G01X40918Y13000D03*
G54D73*
G01X41500Y10800D03*
G54D74*
G01X53124Y22368D03*
G54D75*
G01X53124Y20368D03*
G54D13*
G54D31*
G01X1187Y17118D03*
G54D30*
G01X1187Y16118D03*
G54D32*
G01X1187Y15118D03*
G54D13*
G54D31*
G01X53624Y13368D03*
G54D32*
G01X53624Y14368D03*
G54D13*
G54D76*
G01X24000Y27500D03*
G01X25000Y27500D03*
G01X26000Y27500D03*
G54D77*
G01X26000Y29260D03*
G54D13*
G54D76*
G01X25000Y29260D03*
G01X24000Y29260D03*
G54D23*
G01X41750Y7500D03*
G54D24*
G01X41750Y6751D03*
G54D13*
G54D78*
G01X1377Y1377D03*
G54D13*
G54D78*
G01X53740Y1377D03*
G54D13*
G54D78*
G01X53740Y30118D03*
G54D13*
G54D78*
G01X1377Y30118D03*
G54D13*
G54D29*
G01X19500Y8250D03*
G54D13*

G04 Draw clearances for traces*
G54D79*
G01X30374Y10868D02*
G01X30374Y10268D01*
G01X30374Y10268D02*
G01X31074Y9568D01*
G01X31074Y9568D02*
G01X31074Y8868D01*
G01X31074Y8868D02*
G01X31124Y8868D01*
G01X30374Y10868D02*
G01X30374Y11868D01*
G01X30374Y11868D02*
G01X31124Y12618D01*
G01X31124Y12618D02*
G01X31124Y13098D01*
G01X33374Y14368D02*
G01X32974Y14368D01*
G01X32974Y14368D02*
G01X32674Y14068D01*
G01X32674Y14068D02*
G01X32674Y13468D01*
G01X32674Y13468D02*
G01X32304Y13098D01*
G01X32304Y13098D02*
G01X31124Y13098D01*
G01X47500Y5000D02*
G01X47100Y5000D01*
G01X47100Y5000D02*
G01X46800Y4700D01*
G54D80*
G01X46500Y4700D03*
G54D79*
G01X46800Y4700D02*
G01X46500Y4700D01*
G54D80*
G01X46500Y3400D03*
G54D79*
G01X46500Y3400D02*
G01X46500Y2500D01*
G01X31250Y7250D02*
G01X31300Y7200D01*
G01X31300Y7200D02*
G01X31300Y8000D01*
G01X31300Y8000D02*
G01X31124Y8175D01*
G01X31124Y8175D02*
G01X31124Y8868D01*
G01X35250Y1250D02*
G01X35250Y2150D01*
G01X35250Y2150D02*
G01X36700Y3600D01*
G01X36700Y3600D02*
G01X36700Y4500D01*
G01X36700Y4500D02*
G01X36900Y4700D01*
G01X36900Y4700D02*
G01X37500Y4700D01*
G01X37500Y4700D02*
G01X37500Y4750D01*
G01X31250Y7250D02*
G01X31750Y7250D01*
G54D80*
G01X31800Y7200D03*
G54D79*
G01X31750Y7250D02*
G01X31800Y7200D01*
G54D80*
G01X38300Y4700D03*
G54D79*
G01X38300Y4700D02*
G01X37500Y4700D01*
G01X37500Y4700D02*
G01X37500Y4750D01*
G01X37500Y4750D02*
G01X37500Y4500D01*
G01X37500Y4500D02*
G01X37000Y4000D01*
G01X37000Y4000D02*
G01X37000Y3200D01*
G54D80*
G01X36700Y2900D03*
G54D79*
G01X37000Y3200D02*
G01X36700Y2900D01*
G54D80*
G01X47100Y3100D03*
G54D79*
G01X47100Y3100D02*
G01X47100Y2600D01*
G01X47100Y2600D02*
G01X47000Y2500D01*
G01X47000Y2500D02*
G01X46500Y2500D01*
G01X4250Y21750D02*
G01X4200Y21800D01*
G01X4200Y21800D02*
G01X4250Y21850D01*
G01X4250Y21850D02*
G01X4250Y22750D01*
G01X4250Y21750D02*
G01X4050Y21550D01*
G01X4050Y21550D02*
G01X4050Y20750D01*
G01X4998Y24000D02*
G01X5400Y24000D01*
G01X5400Y24000D02*
G01X5500Y23900D01*
G01X5500Y23900D02*
G01X5500Y23400D01*
G01X5500Y23400D02*
G01X5700Y23200D01*
G01X5700Y23200D02*
G01X6000Y23200D01*
G01X6000Y23200D02*
G01X6000Y23250D01*
G01X4998Y24000D02*
G01X5000Y23900D01*
G01X5000Y23900D02*
G01X5000Y23600D01*
G01X5000Y23600D02*
G01X4800Y23400D01*
G01X4800Y23400D02*
G01X4400Y23400D01*
G01X4400Y23400D02*
G01X4250Y23250D01*
G01X4250Y23250D02*
G01X4250Y22750D01*
G01X4050Y20750D02*
G01X4000Y20700D01*
G01X4000Y20700D02*
G01X3500Y20700D01*
G01X3500Y20700D02*
G01X3250Y20450D01*
G01X3250Y20450D02*
G01X3250Y19500D01*
G01X13000Y3500D02*
G01X12700Y3400D01*
G01X12700Y3400D02*
G01X12100Y3400D01*
G01X12100Y3400D02*
G01X11700Y3000D01*
G01X11700Y3000D02*
G01X11498Y3000D01*
G01X16000Y1750D02*
G01X15900Y1900D01*
G01X15900Y1900D02*
G01X15900Y2300D01*
G01X15900Y2300D02*
G01X15800Y2400D01*
G01X15800Y2400D02*
G01X13300Y2400D01*
G01X13300Y2400D02*
G01X13000Y2700D01*
G01X13000Y2700D02*
G01X13000Y3500D01*
G01X46624Y6118D02*
G01X46600Y6300D01*
G01X46600Y6300D02*
G01X46600Y6400D01*
G01X46600Y6400D02*
G01X46800Y6600D01*
G01X46800Y6600D02*
G01X48600Y6600D01*
G01X48600Y6600D02*
G01X49173Y6026D01*
G01X49173Y6026D02*
G01X49173Y5000D01*
G01X46624Y6118D02*
G01X46600Y6100D01*
G54D80*
G01X46600Y5200D03*
G54D79*
G01X46600Y6100D02*
G01X46600Y5200D01*
G54D80*
G01X45000Y5200D03*
G54D79*
G01X45000Y5200D02*
G01X45000Y2300D01*
G01X45000Y2300D02*
G01X44700Y2000D01*
G01X44700Y2000D02*
G01X39200Y2000D01*
G01X39200Y2000D02*
G01X39000Y1800D01*
G01X39000Y1800D02*
G01X39000Y1250D01*
G01X32250Y22000D02*
G01X32250Y22550D01*
G01X32250Y22550D02*
G01X32000Y22800D01*
G01X32000Y22800D02*
G01X31400Y22800D01*
G01X31400Y22800D02*
G01X31200Y23000D01*
G01X31200Y23000D02*
G01X31200Y23400D01*
G01X31200Y23400D02*
G01X31250Y23423D01*
G54D81*
G01X51858Y25709D02*
G01X50714Y25709D01*
G01X50714Y25709D02*
G01X49574Y24568D01*
G01X49574Y24568D02*
G01X48574Y24568D01*
G01X48574Y24568D02*
G01X48624Y24527D01*
G01X49874Y21868D02*
G01X48274Y21868D01*
G01X48274Y21868D02*
G01X48358Y21868D01*
G01X48624Y24527D02*
G01X48674Y24468D01*
G01X48674Y24468D02*
G01X48674Y23468D01*
G01X48674Y23468D02*
G01X48358Y23152D01*
G01X48358Y23152D02*
G01X48358Y21868D01*
G54D82*
G01X48000Y19500D02*
G01X48000Y20600D01*
G01X48000Y20600D02*
G01X48358Y20958D01*
G01X48358Y20958D02*
G01X48358Y21868D01*
G54D79*
G01X12124Y28368D02*
G01X12174Y28168D01*
G01X12174Y28168D02*
G01X12174Y27968D01*
G01X12174Y27968D02*
G01X11974Y27768D01*
G01X11974Y27768D02*
G01X11774Y27768D01*
G01X11774Y27768D02*
G01X11624Y27618D01*
G01X11624Y27618D02*
G01X11624Y26368D01*
G01X14277Y25610D02*
G01X14010Y25610D01*
G01X14010Y25610D02*
G01X13900Y25500D01*
G01X13900Y25500D02*
G01X13900Y24900D01*
G01X13900Y24900D02*
G01X13700Y24700D01*
G01X13700Y24700D02*
G01X11900Y24700D01*
G01X11900Y24700D02*
G01X11600Y25000D01*
G01X11600Y25000D02*
G01X11600Y26100D01*
G01X11600Y26100D02*
G01X11624Y26368D01*
G01X36874Y16618D02*
G01X37324Y16618D01*
G01X37324Y16618D02*
G01X37574Y16368D01*
G01X37574Y16368D02*
G01X37574Y14268D01*
G01X37574Y14268D02*
G01X37404Y14098D01*
G01X37404Y14098D02*
G01X37124Y14098D01*
G01X34874Y12868D02*
G01X34874Y13268D01*
G01X34874Y13268D02*
G01X35174Y13568D01*
G01X35174Y13568D02*
G01X37074Y13568D01*
G01X37074Y13568D02*
G01X37124Y13618D01*
G01X37124Y13618D02*
G01X37124Y14098D01*
G01X34874Y12868D02*
G01X34874Y12768D01*
G01X34874Y12768D02*
G01X34274Y12768D01*
G01X34274Y12768D02*
G01X33974Y12468D01*
G54D80*
G01X33974Y12068D03*
G54D79*
G01X33974Y12468D02*
G01X33974Y12068D01*
G54D80*
G01X27900Y12100D03*
G54D79*
G01X27900Y12100D02*
G01X27900Y11000D01*
G01X27900Y11000D02*
G01X27874Y10868D01*
G01X46297Y16618D02*
G01X46200Y16600D01*
G01X46200Y16600D02*
G01X45900Y16600D01*
G01X45900Y16600D02*
G01X45600Y16900D01*
G54D80*
G01X45600Y17300D03*
G54D79*
G01X45600Y16900D02*
G01X45600Y17300D01*
G01X27874Y10868D02*
G01X27800Y10800D01*
G54D80*
G01X27800Y10100D03*
G54D79*
G01X27800Y10800D02*
G01X27800Y10100D01*
G54D80*
G01X1800Y11300D03*
G54D79*
G01X1800Y11300D02*
G01X900Y11300D01*
G01X900Y11300D02*
G01X600Y11600D01*
G01X600Y11600D02*
G01X400Y11800D01*
G01X400Y11800D02*
G01X400Y23600D01*
G01X400Y23600D02*
G01X600Y23800D01*
G01X600Y23800D02*
G01X1100Y24300D01*
G01X1100Y24300D02*
G01X1900Y24300D01*
G54D80*
G01X2800Y23400D03*
G54D79*
G01X1900Y24300D02*
G01X2800Y23400D01*
G54D80*
G01X6500Y24200D03*
G54D79*
G01X6500Y24200D02*
G01X7500Y24200D01*
G01X7500Y24200D02*
G01X7800Y24500D01*
G01X7800Y24500D02*
G01X8600Y24500D01*
G01X8600Y24500D02*
G01X8700Y24400D01*
G01X8700Y24400D02*
G01X8700Y23500D01*
G01X8700Y23500D02*
G01X8824Y23375D01*
G01X8824Y23375D02*
G01X9116Y23375D01*
G01X46297Y16618D02*
G01X46400Y16400D01*
G01X46400Y16400D02*
G01X46100Y16100D01*
G54D80*
G01X45800Y16100D03*
G54D79*
G01X46100Y16100D02*
G01X45800Y16100D01*
G54D80*
G01X51500Y6300D03*
G54D79*
G01X51500Y6300D02*
G01X51500Y4750D01*
G54D80*
G01X19100Y27000D03*
G54D79*
G01X18500Y27000D02*
G01X19100Y27000D01*
G54D80*
G01X19100Y30800D03*
G54D79*
G01X19100Y30800D02*
G01X18800Y31100D01*
G01X18800Y31100D02*
G01X3700Y31100D01*
G01X3700Y31100D02*
G01X3100Y30500D01*
G01X3100Y30500D02*
G01X3100Y28100D01*
G54D80*
G01X2600Y27600D03*
G54D79*
G01X3100Y28100D02*
G01X2600Y27600D01*
G54D80*
G01X2600Y25500D03*
G54D79*
G01X2600Y25500D02*
G01X2800Y25300D01*
G01X2800Y25300D02*
G01X2800Y23400D01*
G01X17427Y25610D02*
G01X17400Y25600D01*
G01X17400Y25600D02*
G01X17200Y25600D01*
G01X17200Y25600D02*
G01X17000Y25800D01*
G01X17000Y25800D02*
G01X17000Y26100D01*
G01X17000Y26100D02*
G01X17140Y26240D01*
G01X17140Y26240D02*
G01X17427Y26240D01*
G01X14277Y25925D02*
G01X14525Y25925D01*
G01X14525Y25925D02*
G01X14700Y26100D01*
G01X14700Y26100D02*
G01X14700Y26400D01*
G01X14700Y26400D02*
G01X14500Y26600D01*
G01X14500Y26600D02*
G01X14300Y26600D01*
G01X14300Y26600D02*
G01X14277Y26555D01*
G01X15500Y23750D02*
G01X15600Y23800D01*
G01X15600Y23800D02*
G01X14600Y23800D01*
G01X14600Y23800D02*
G01X14400Y24000D01*
G54D80*
G01X14400Y24500D03*
G54D79*
G01X14400Y24000D02*
G01X14400Y24500D01*
G54D80*
G01X13900Y25900D03*
G54D79*
G01X13900Y25900D02*
G01X14300Y25900D01*
G01X14300Y25900D02*
G01X14277Y25925D01*
G01X46297Y16618D02*
G01X46297Y17397D01*
G01X46297Y17397D02*
G01X46400Y17500D01*
G01X46400Y17500D02*
G01X46500Y17500D01*
G01X17427Y26240D02*
G01X17740Y26240D01*
G01X17740Y26240D02*
G01X17900Y26400D01*
G01X17900Y26400D02*
G01X17900Y26800D01*
G01X17900Y26800D02*
G01X18100Y27000D01*
G01X18100Y27000D02*
G01X18400Y27000D01*
G01X18400Y27000D02*
G01X18500Y27000D01*
G01X24000Y29260D02*
G01X24000Y30500D01*
G01X24000Y30500D02*
G01X23900Y30600D01*
G01X23900Y30600D02*
G01X22000Y30600D01*
G01X22000Y30600D02*
G01X21600Y30200D01*
G01X21600Y30200D02*
G01X21600Y29600D01*
G01X21600Y29600D02*
G01X21624Y29618D01*
G01X15500Y23750D02*
G01X15500Y23700D01*
G01X15500Y23700D02*
G01X15500Y23400D01*
G01X15500Y23400D02*
G01X15800Y23100D01*
G54D80*
G01X16000Y23100D03*
G54D79*
G01X15800Y23100D02*
G01X16000Y23100D01*
G54D80*
G01X15700Y26000D03*
G54D79*
G01X15700Y26000D02*
G01X16800Y26000D01*
G01X16800Y26000D02*
G01X17200Y25600D01*
G01X17200Y25600D02*
G01X17400Y25600D01*
G01X17400Y25600D02*
G01X17427Y25610D01*
G54D80*
G01X19100Y27000D03*
G54D79*
G01X18500Y27000D02*
G01X19100Y27000D01*
G54D80*
G01X19100Y30800D03*
G54D79*
G01X19100Y30800D02*
G01X20700Y30800D01*
G01X20700Y30800D02*
G01X21000Y30500D01*
G01X21000Y30500D02*
G01X21000Y29800D01*
G01X21000Y29800D02*
G01X21181Y29618D01*
G01X21181Y29618D02*
G01X21624Y29618D01*
G01X5250Y11750D02*
G01X5200Y11700D01*
G01X5200Y11700D02*
G01X4600Y11700D01*
G01X4600Y11700D02*
G01X4200Y11300D01*
G01X4200Y11300D02*
G01X4200Y10300D01*
G01X4200Y10300D02*
G01X4173Y10250D01*
G01X4998Y21750D02*
G01X5000Y21900D01*
G01X5000Y21900D02*
G01X4998Y21901D01*
G01X4998Y21901D02*
G01X4998Y22750D01*
G01X5750Y19250D02*
G01X5350Y19250D01*
G01X5350Y19250D02*
G01X5100Y19500D01*
G01X5100Y19500D02*
G01X4600Y19500D01*
G01X4600Y19500D02*
G01X4700Y19500D01*
G01X4998Y21750D02*
G01X5100Y21700D01*
G01X5100Y21700D02*
G01X5400Y21700D01*
G01X5400Y21700D02*
G01X5500Y21600D01*
G01X5500Y21600D02*
G01X5500Y20750D01*
G01X5500Y20750D02*
G01X5500Y20200D01*
G01X5500Y20200D02*
G01X5400Y20100D01*
G01X5400Y20100D02*
G01X4800Y20100D01*
G01X4800Y20100D02*
G01X4700Y20000D01*
G01X4700Y20000D02*
G01X4700Y19500D01*
G01X6500Y23250D02*
G01X6500Y22500D01*
G01X6500Y22500D02*
G01X6300Y22300D01*
G01X6300Y22300D02*
G01X5800Y22300D01*
G01X5800Y22300D02*
G01X5350Y22750D01*
G01X5350Y22750D02*
G01X4998Y22750D01*
G01X10750Y3000D02*
G01X10750Y4650D01*
G01X10750Y4650D02*
G01X10700Y4700D01*
G01X10700Y4700D02*
G01X10740Y4750D01*
G01X48248Y5000D02*
G01X48300Y4900D01*
G01X48300Y4900D02*
G01X48600Y4900D01*
G01X48600Y4900D02*
G01X48700Y4800D01*
G01X48700Y4800D02*
G01X48700Y4500D01*
G01X48700Y4500D02*
G01X49184Y4015D01*
G01X49184Y4015D02*
G01X49586Y4015D01*
G54D80*
G01X48300Y5700D03*
G54D79*
G01X48300Y5700D02*
G01X48300Y5000D01*
G01X48300Y5000D02*
G01X48248Y5000D01*
G01X32374Y18118D02*
G01X33524Y18118D01*
G01X33524Y18118D02*
G01X33574Y18068D01*
G01X33574Y18068D02*
G01X33624Y18118D01*
G01X32374Y18118D02*
G01X32274Y17968D01*
G01X32274Y17968D02*
G01X32375Y18070D01*
G01X32375Y18070D02*
G01X32375Y19868D01*
G01X31423Y22000D02*
G01X31100Y22000D01*
G01X31100Y22000D02*
G01X30900Y22200D01*
G54D80*
G01X30900Y22600D03*
G54D79*
G01X30900Y22200D02*
G01X30900Y22600D01*
G54D80*
G01X32800Y21500D03*
G54D79*
G01X32800Y21500D02*
G01X32800Y21000D01*
G01X32800Y21000D02*
G01X32375Y20575D01*
G01X32375Y20575D02*
G01X32375Y19868D01*
G54D81*
G01X53124Y22368D02*
G01X53074Y22368D01*
G01X53074Y22368D02*
G01X53074Y23468D01*
G01X53074Y23468D02*
G01X53624Y24018D01*
G01X53624Y24018D02*
G01X53624Y24368D01*
G01X53124Y22368D02*
G01X52374Y22368D01*
G01X52374Y22368D02*
G01X51874Y21868D01*
G01X51874Y21868D02*
G01X50858Y21868D01*
G01X50874Y24527D02*
G01X50874Y24568D01*
G01X50874Y24568D02*
G01X50858Y24552D01*
G01X50858Y24552D02*
G01X50858Y21868D01*
G54D79*
G01X15064Y24822D02*
G01X15100Y24900D01*
G01X15100Y24900D02*
G01X15100Y26300D01*
G01X15100Y26300D02*
G01X15400Y26600D01*
G54D80*
G01X16600Y26600D03*
G54D79*
G01X15400Y26600D02*
G01X16600Y26600D01*
G54D80*
G01X17800Y27800D03*
G54D79*
G01X17800Y27800D02*
G01X19700Y27800D01*
G01X19700Y27800D02*
G01X19900Y28000D01*
G01X19900Y28000D02*
G01X19900Y28300D01*
G01X19900Y28300D02*
G01X20100Y28500D01*
G01X20100Y28500D02*
G01X20750Y28500D01*
G01X9498Y20000D02*
G01X9498Y19598D01*
G01X9498Y19598D02*
G01X9300Y19400D01*
G01X9300Y19400D02*
G01X8000Y19400D01*
G01X8000Y19400D02*
G01X6900Y20500D01*
G01X6900Y20500D02*
G01X6500Y20500D01*
G01X6500Y20500D02*
G01X6500Y20501D01*
G01X1000Y5500D02*
G01X1300Y5500D01*
G01X1300Y5500D02*
G01X1500Y5700D01*
G01X1500Y5700D02*
G01X1500Y6100D01*
G01X1500Y6100D02*
G01X1648Y6248D01*
G01X1648Y6248D02*
G01X2000Y6248D01*
G01X2000Y6248D02*
G01X2000Y6800D01*
G01X2000Y6800D02*
G01X2300Y7100D01*
G01X2300Y7100D02*
G01X2300Y9700D01*
G01X2300Y9700D02*
G01X2000Y10000D01*
G01X2000Y10000D02*
G01X1600Y10000D01*
G01X1600Y10000D02*
G01X1500Y10000D01*
G01X6500Y20501D02*
G01X6500Y20500D01*
G01X6500Y20500D02*
G01X6500Y20000D01*
G01X6500Y20000D02*
G01X6700Y19800D01*
G01X6700Y19800D02*
G01X7200Y19800D01*
G01X7200Y19800D02*
G01X8100Y18900D01*
G54D80*
G01X8100Y18100D03*
G54D79*
G01X8100Y18900D02*
G01X8100Y18100D01*
G54D80*
G01X7100Y18100D03*
G54D79*
G01X7100Y18100D02*
G01X7100Y16900D01*
G01X7100Y16900D02*
G01X6300Y16100D01*
G01X6300Y16100D02*
G01X3600Y16100D01*
G01X3600Y16100D02*
G01X3400Y15900D01*
G01X3400Y15900D02*
G01X2800Y15900D01*
G01X2800Y15900D02*
G01X2600Y15700D01*
G54D80*
G01X2600Y13900D03*
G54D79*
G01X2600Y15700D02*
G01X2600Y13900D01*
G54D80*
G01X600Y11100D03*
G54D79*
G01X600Y11100D02*
G01X600Y10300D01*
G01X600Y10300D02*
G01X900Y10000D01*
G01X900Y10000D02*
G01X1500Y10000D01*
G01X21124Y7368D02*
G01X21137Y7768D01*
G01X21137Y7768D02*
G01X21137Y8668D01*
G01X21137Y8668D02*
G01X21374Y8905D01*
G01X21374Y8905D02*
G01X21374Y9368D01*
G01X21124Y7368D02*
G01X21237Y7368D01*
G01X21237Y7368D02*
G01X21246Y7358D01*
G01X21246Y7358D02*
G01X23624Y7358D01*
G01X5250Y7000D02*
G01X4100Y7000D01*
G01X4100Y7000D02*
G01X3748Y7351D01*
G01X3748Y7351D02*
G01X3748Y8000D01*
G01X6076Y11750D02*
G01X6000Y11700D01*
G54D80*
G01X6000Y11000D03*
G54D79*
G01X6000Y11700D02*
G01X6000Y11000D01*
G54D80*
G01X6900Y13500D03*
G54D79*
G01X6900Y13500D02*
G01X5300Y13500D01*
G01X5300Y13500D02*
G01X4100Y13500D01*
G01X4100Y13500D02*
G01X3800Y13200D01*
G01X3800Y13200D02*
G01X3800Y12800D01*
G01X3800Y12800D02*
G01X3850Y12750D01*
G01X6076Y11750D02*
G01X6000Y11700D01*
G01X6000Y11700D02*
G01X6000Y11000D01*
G01X6000Y11000D02*
G01X6000Y10200D01*
G01X6000Y10200D02*
G01X5900Y10100D01*
G01X5900Y10100D02*
G01X5600Y9800D01*
G01X5600Y9800D02*
G01X5600Y9100D01*
G01X5600Y9100D02*
G01X4500Y8000D01*
G01X4500Y8000D02*
G01X3748Y8000D01*
G01X8500Y25001D02*
G01X9101Y25001D01*
G01X9101Y25001D02*
G01X9400Y25300D01*
G01X9400Y25300D02*
G01X9400Y26100D01*
G01X9400Y26100D02*
G01X9600Y26300D01*
G01X9600Y26300D02*
G01X9900Y26300D01*
G01X9900Y26300D02*
G01X10000Y26250D01*
G01X8500Y25001D02*
G01X8300Y25000D01*
G54D80*
G01X7900Y25000D03*
G54D79*
G01X8300Y25000D02*
G01X7900Y25000D01*
G54D80*
G01X8700Y22500D03*
G54D79*
G01X8700Y22500D02*
G01X9100Y22900D01*
G01X9100Y22900D02*
G01X9116Y23001D01*
G01X3000Y8000D02*
G01X3000Y6250D01*
G01X4586Y9265D02*
G01X4500Y9300D01*
G01X4500Y9300D02*
G01X3400Y9300D01*
G01X3400Y9300D02*
G01X3000Y8900D01*
G01X3000Y8900D02*
G01X3000Y8000D01*
G01X46624Y7118D02*
G01X46674Y7168D01*
G01X46674Y7168D02*
G01X46674Y7768D01*
G01X46674Y7768D02*
G01X47174Y8268D01*
G01X47174Y8268D02*
G01X47674Y8268D01*
G01X41000Y1250D02*
G01X45150Y1250D01*
G01X45150Y1250D02*
G01X45500Y1600D01*
G01X45500Y1600D02*
G01X45500Y6600D01*
G01X45500Y6600D02*
G01X46000Y7100D01*
G01X46000Y7100D02*
G01X46600Y7100D01*
G01X46600Y7100D02*
G01X46624Y7118D01*
G01X33624Y23118D02*
G01X33574Y23168D01*
G01X33574Y23168D02*
G01X33622Y23120D01*
G01X33622Y23120D02*
G01X35374Y23120D01*
G01X35124Y20840D02*
G01X35174Y20868D01*
G01X35174Y20868D02*
G01X35174Y22168D01*
G01X35174Y22168D02*
G01X35374Y22368D01*
G01X35374Y22368D02*
G01X35374Y23120D01*
G01X34974Y7868D02*
G01X34374Y7868D01*
G01X34374Y7868D02*
G01X34124Y8118D01*
G01X34124Y8118D02*
G01X33624Y8118D01*
G01X33624Y8118D02*
G01X33624Y8818D01*
G01X33624Y8818D02*
G01X33774Y8968D01*
G01X33774Y8968D02*
G01X33774Y10468D01*
G01X33774Y10468D02*
G01X33174Y11068D01*
G01X33174Y11068D02*
G01X33174Y11568D01*
G01X33174Y11568D02*
G01X33124Y11620D01*
G01X36924Y10868D02*
G01X36874Y10768D01*
G01X36874Y10768D02*
G01X36874Y10268D01*
G01X36874Y10268D02*
G01X35974Y9368D01*
G01X35974Y9368D02*
G01X35274Y9368D01*
G01X35274Y9368D02*
G01X34974Y9068D01*
G01X34974Y9068D02*
G01X34974Y7868D01*
G01X37923Y10500D02*
G01X37500Y10500D01*
G01X37500Y10500D02*
G01X37400Y10600D01*
G01X37400Y10600D02*
G01X37400Y10800D01*
G01X37400Y10800D02*
G01X37331Y10868D01*
G01X37331Y10868D02*
G01X36924Y10868D01*
G01X32998Y6000D02*
G01X32998Y4101D01*
G01X32998Y4101D02*
G01X33100Y4000D01*
G01X33100Y4000D02*
G01X33000Y4000D01*
G01X33624Y8118D02*
G01X33624Y7524D01*
G01X33624Y7524D02*
G01X33000Y6900D01*
G01X33000Y6900D02*
G01X33000Y6000D01*
G01X33000Y6000D02*
G01X32998Y6000D01*
G01X22000Y27000D02*
G01X20400Y27000D01*
G01X20400Y27000D02*
G01X20500Y27000D01*
G01X22000Y27000D02*
G01X22000Y28300D01*
G01X22000Y28300D02*
G01X21800Y28500D01*
G01X21800Y28500D02*
G01X21498Y28500D01*
G01X13624Y14868D02*
G01X13624Y14318D01*
G01X13624Y14318D02*
G01X13874Y14068D01*
G01X13874Y14068D02*
G01X13874Y13068D01*
G01X13874Y13068D02*
G01X13874Y13118D01*
G01X14923Y13000D02*
G01X14500Y13000D01*
G01X14500Y13000D02*
G01X14400Y13100D01*
G01X14400Y13100D02*
G01X13900Y13100D01*
G01X13900Y13100D02*
G01X13874Y13118D01*
G01X21124Y3628D02*
G01X20496Y3628D01*
G01X20496Y3628D02*
G01X20237Y3368D01*
G01X20237Y3368D02*
G01X19537Y3368D01*
G01X19537Y3368D02*
G01X19437Y3370D01*
G01X5250Y14900D02*
G01X5250Y14050D01*
G01X5250Y14050D02*
G01X5500Y13800D01*
G01X5500Y13800D02*
G01X6400Y13800D01*
G01X6400Y13800D02*
G01X6600Y14000D01*
G01X6600Y14000D02*
G01X7700Y14000D01*
G01X7700Y14000D02*
G01X7750Y14000D01*
G01X9001Y18750D02*
G01X9001Y18401D01*
G54D80*
G01X8600Y18000D03*
G54D79*
G01X9001Y18401D02*
G01X8600Y18000D01*
G54D80*
G01X6100Y15300D03*
G54D79*
G01X6100Y15300D02*
G01X6100Y15000D01*
G01X6100Y15000D02*
G01X6000Y14900D01*
G01X6000Y14900D02*
G01X5400Y14900D01*
G01X5400Y14900D02*
G01X5250Y14900D01*
G01X10000Y22750D02*
G01X10000Y22400D01*
G01X10000Y22400D02*
G01X10500Y21900D01*
G01X10500Y21900D02*
G01X10500Y21000D01*
G01X10500Y21000D02*
G01X10750Y20750D01*
G01X10750Y20750D02*
G01X10750Y19748D01*
G01X8250Y23750D02*
G01X8250Y23950D01*
G54D80*
G01X8000Y24200D03*
G54D79*
G01X8250Y23950D02*
G01X8000Y24200D01*
G54D80*
G01X11600Y19500D03*
G54D79*
G01X11600Y19500D02*
G01X11300Y19500D01*
G01X11300Y19500D02*
G01X11100Y19700D01*
G01X11100Y19700D02*
G01X10800Y19700D01*
G01X10800Y19700D02*
G01X10750Y19748D01*
G01X11108Y9750D02*
G01X10550Y9750D01*
G01X10550Y9750D02*
G01X10300Y9500D01*
G01X10300Y9500D02*
G01X10300Y8500D01*
G01X10300Y8500D02*
G01X10250Y8500D01*
G01X10250Y8500D02*
G01X10200Y8500D01*
G01X10200Y8500D02*
G01X9500Y8500D01*
G01X9500Y8500D02*
G01X8650Y9350D01*
G01X8650Y9350D02*
G01X8250Y9350D01*
G01X8250Y11501D02*
G01X8898Y11501D01*
G54D80*
G01X8900Y11500D03*
G54D79*
G01X8898Y11501D02*
G01X8900Y11500D01*
G54D80*
G01X7600Y9200D03*
G54D79*
G01X7600Y9200D02*
G01X8200Y9200D01*
G01X8200Y9200D02*
G01X8250Y9350D01*
G01X47289Y10581D02*
G01X47274Y10468D01*
G01X47274Y10468D02*
G01X47274Y9768D01*
G01X47274Y9768D02*
G01X47674Y9368D01*
G01X47674Y9368D02*
G01X47674Y9016D01*
G01X47500Y12000D02*
G01X47500Y11500D01*
G01X47500Y11500D02*
G01X47300Y11300D01*
G01X47300Y11300D02*
G01X47300Y10500D01*
G01X47300Y10500D02*
G01X47289Y10581D01*
G01X30836Y6265D02*
G01X30800Y6200D01*
G01X30800Y6200D02*
G01X30800Y5700D01*
G01X30800Y5700D02*
G01X31124Y5375D01*
G01X31124Y5375D02*
G01X31124Y4868D01*
G01X32250Y6000D02*
G01X31700Y6000D01*
G01X31700Y6000D02*
G01X31400Y6300D01*
G01X31400Y6300D02*
G01X30800Y6300D01*
G01X30800Y6300D02*
G01X30836Y6265D01*
G01X43750Y8800D02*
G01X43700Y8800D01*
G01X43700Y8800D02*
G01X44100Y8800D01*
G01X44100Y8800D02*
G01X45200Y7700D01*
G01X45200Y7700D02*
G01X45500Y7700D01*
G01X39750Y8800D02*
G01X39700Y8800D01*
G01X39700Y8800D02*
G01X40200Y8800D01*
G01X40200Y8800D02*
G01X40500Y8500D01*
G01X40500Y8500D02*
G01X41300Y8500D01*
G01X41300Y8500D02*
G01X41750Y8050D01*
G01X41750Y8050D02*
G01X41750Y7500D01*
G01X43750Y8800D02*
G01X43800Y8800D01*
G01X43800Y8800D02*
G01X43400Y8800D01*
G01X43400Y8800D02*
G01X42600Y8000D01*
G01X42600Y8000D02*
G01X42100Y7500D01*
G01X42100Y7500D02*
G01X41750Y7500D01*
G01X42100Y13000D02*
G01X42100Y13400D01*
G01X42100Y13400D02*
G01X42000Y13500D01*
G01X42000Y13500D02*
G01X39500Y13500D01*
G01X39500Y13500D02*
G01X39400Y13400D01*
G01X39400Y13400D02*
G01X39400Y13200D01*
G01X39400Y13200D02*
G01X39268Y13068D01*
G01X39268Y13068D02*
G01X38874Y13068D01*
G01X39750Y8800D02*
G01X39750Y9650D01*
G01X39750Y9650D02*
G01X39300Y10100D01*
G01X39300Y10100D02*
G01X39300Y11000D01*
G01X39300Y11000D02*
G01X38900Y11400D01*
G01X38900Y11400D02*
G01X38900Y12900D01*
G01X38900Y12900D02*
G01X38874Y13068D01*
G01X43750Y8800D02*
G01X43750Y9950D01*
G01X43750Y9950D02*
G01X45800Y12000D01*
G01X45800Y12000D02*
G01X46700Y12000D01*
G01X46700Y12000D02*
G01X46751Y12000D01*
G01X22000Y24750D02*
G01X20550Y24750D01*
G01X20550Y24750D02*
G01X20500Y24800D01*
G01X20500Y24800D02*
G01X20500Y24750D01*
G01X22000Y24750D02*
G01X22000Y26300D01*
G01X22000Y26300D02*
G01X22000Y26251D01*
G01X27874Y3368D02*
G01X27874Y4868D01*
G01X33124Y19868D02*
G01X33100Y19900D01*
G54D80*
G01X33100Y19200D03*
G54D79*
G01X33100Y19900D02*
G01X33100Y19200D01*
G54D80*
G01X29500Y12400D03*
G01X29500Y11500D03*
G54D79*
G01X29500Y12400D02*
G01X29500Y11500D01*
G54D80*
G01X27900Y6100D03*
G54D79*
G01X27900Y6100D02*
G01X27874Y6074D01*
G01X27874Y6074D02*
G01X27874Y4868D01*
G01X32234Y23836D02*
G01X32234Y23365D01*
G01X32234Y23365D02*
G01X32700Y22900D01*
G01X32700Y22900D02*
G01X32700Y22200D01*
G01X32700Y22200D02*
G01X33100Y21800D01*
G01X33100Y21800D02*
G01X33100Y19900D01*
G01X33100Y19900D02*
G01X33124Y19868D01*
G01X20124Y18618D02*
G01X20074Y18368D01*
G01X20074Y18368D02*
G01X20074Y17868D01*
G01X20074Y17868D02*
G01X19974Y17768D01*
G01X19974Y17768D02*
G01X19474Y17768D01*
G01X19474Y17768D02*
G01X19374Y17668D01*
G01X19374Y17668D02*
G01X19374Y17118D01*
G01X22124Y18368D02*
G01X22174Y18368D01*
G01X22174Y18368D02*
G01X22174Y17468D01*
G01X22174Y17468D02*
G01X22625Y17016D01*
G01X22625Y17016D02*
G01X22625Y16618D01*
G01X20124Y18618D02*
G01X20174Y18568D01*
G01X20174Y18568D02*
G01X20874Y18568D01*
G01X20874Y18568D02*
G01X21074Y18368D01*
G01X21074Y18368D02*
G01X22124Y18368D01*
G01X21874Y20646D02*
G01X21874Y19368D01*
G01X21874Y19368D02*
G01X22074Y19168D01*
G01X22074Y19168D02*
G01X22074Y18568D01*
G01X22074Y18568D02*
G01X22124Y18368D01*
G01X15750Y13000D02*
G01X15800Y13000D01*
G01X15800Y13000D02*
G01X15800Y14600D01*
G01X15800Y14600D02*
G01X16068Y14868D01*
G01X16068Y14868D02*
G01X16547Y14868D01*
G01X14250Y7750D02*
G01X14300Y7800D01*
G01X14300Y7800D02*
G01X14350Y7750D01*
G01X14350Y7750D02*
G01X15250Y7750D01*
G01X15826Y9250D02*
G01X15800Y9100D01*
G01X15800Y9100D02*
G01X15800Y8700D01*
G01X15800Y8700D02*
G01X15700Y8600D01*
G01X15700Y8600D02*
G01X15500Y8600D01*
G01X15500Y8600D02*
G01X15250Y8350D01*
G01X15250Y8350D02*
G01X15250Y7750D01*
G01X7750Y16251D02*
G01X7750Y14850D01*
G01X7750Y14850D02*
G01X7800Y14800D01*
G01X7800Y14800D02*
G01X7750Y14748D01*
G01X5000Y10250D02*
G01X5450Y10250D01*
G54D80*
G01X5500Y10300D03*
G54D79*
G01X5450Y10250D02*
G01X5500Y10300D01*
G54D80*
G01X6900Y12900D03*
G54D79*
G01X6900Y12900D02*
G01X7600Y12900D01*
G01X7600Y12900D02*
G01X8300Y13600D01*
G01X8300Y13600D02*
G01X8300Y14600D01*
G01X8300Y14600D02*
G01X8151Y14748D01*
G01X8151Y14748D02*
G01X7750Y14748D01*
G01X9998Y27750D02*
G01X9900Y27800D01*
G01X9900Y27800D02*
G01X9900Y27200D01*
G01X9900Y27200D02*
G01X9000Y26300D01*
G01X9000Y26300D02*
G01X9000Y25800D01*
G01X9000Y25800D02*
G01X8950Y25750D01*
G01X8950Y25750D02*
G01X8500Y25750D01*
G01X3750Y4250D02*
G01X4050Y4250D01*
G01X4050Y4250D02*
G01X4300Y4500D01*
G01X4300Y4500D02*
G01X5000Y4500D01*
G01X3750Y2500D02*
G01X3800Y2500D01*
G01X3800Y2500D02*
G01X3801Y2498D01*
G01X3801Y2498D02*
G01X5250Y2498D01*
G01X3750Y4250D02*
G01X3750Y2550D01*
G01X3750Y2550D02*
G01X3700Y2500D01*
G01X3700Y2500D02*
G01X3750Y2500D01*
G01X3750Y4250D02*
G01X3800Y4300D01*
G01X3800Y4300D02*
G01X3748Y4351D01*
G01X3748Y4351D02*
G01X3748Y6250D01*
G01X6673Y2500D02*
G01X6673Y3373D01*
G54D80*
G01X6700Y3400D03*
G54D79*
G01X6673Y3373D02*
G01X6700Y3400D01*
G54D80*
G01X5300Y3400D03*
G54D79*
G01X5300Y3400D02*
G01X5300Y2500D01*
G01X5300Y2500D02*
G01X5250Y2498D01*
G01X29874Y24118D02*
G01X30124Y24118D01*
G01X30124Y24118D02*
G01X30274Y24268D01*
G01X30274Y24268D02*
G01X30274Y25868D01*
G01X30274Y25868D02*
G01X30474Y26068D01*
G01X30474Y26068D02*
G01X30874Y26068D01*
G01X30874Y26068D02*
G01X30874Y26118D01*
G01X29874Y24118D02*
G01X29874Y25868D01*
G01X29874Y25868D02*
G01X29474Y26268D01*
G01X29474Y26268D02*
G01X27974Y26268D01*
G01X27974Y26268D02*
G01X27874Y25368D01*
G01X27836Y28265D02*
G01X27836Y25563D01*
G01X27836Y25563D02*
G01X27900Y25500D01*
G01X27900Y25500D02*
G01X27874Y25368D01*
G01X29874Y4868D02*
G01X28474Y4868D01*
G01X28474Y4868D02*
G01X28622Y4868D01*
G01X30423Y7250D02*
G01X29950Y7250D01*
G01X29950Y7250D02*
G01X29500Y6800D01*
G01X29500Y6800D02*
G01X28700Y6800D01*
G01X28700Y6800D02*
G01X28622Y6868D01*
G01X28622Y6868D02*
G01X28622Y4922D01*
G01X28622Y4922D02*
G01X28500Y4800D01*
G01X28500Y4800D02*
G01X28622Y4868D01*
G54D80*
G01X12900Y23200D03*
G01X12900Y24100D03*
G54D79*
G01X12900Y23200D02*
G01X12900Y24100D01*
G54D80*
G01X12900Y27500D03*
G54D79*
G01X12900Y27500D02*
G01X14200Y27500D01*
G01X14200Y27500D02*
G01X14277Y27500D01*
G01X19250Y25000D02*
G01X19300Y25000D01*
G01X19300Y25000D02*
G01X19500Y25000D01*
G01X19500Y25000D02*
G01X19800Y24700D01*
G01X19800Y24700D02*
G01X19800Y23500D01*
G01X19800Y23500D02*
G01X20000Y23300D01*
G01X20000Y23300D02*
G01X21900Y23300D01*
G01X21900Y23300D02*
G01X22000Y23400D01*
G01X22000Y23400D02*
G01X22000Y24001D01*
G01X51874Y16618D02*
G01X51674Y16568D01*
G01X51674Y16568D02*
G01X51274Y16568D01*
G01X51274Y16568D02*
G01X50974Y16868D01*
G01X50974Y16868D02*
G01X50974Y17168D01*
G01X50974Y17168D02*
G01X50775Y17366D01*
G01X50775Y17366D02*
G01X50374Y17366D01*
G01X26537Y16602D02*
G01X26674Y16568D01*
G01X26674Y16568D02*
G01X27174Y16568D01*
G01X27174Y16568D02*
G01X27450Y16291D01*
G01X27450Y16291D02*
G01X27874Y16291D01*
G01X24624Y16618D02*
G01X26424Y16618D01*
G01X26424Y16618D02*
G01X26474Y16668D01*
G01X26474Y16668D02*
G01X26537Y16602D01*
G01X23374Y16618D02*
G01X24524Y16618D01*
G01X24524Y16618D02*
G01X24574Y16568D01*
G01X24574Y16568D02*
G01X24624Y16618D01*
G01X12374Y11368D02*
G01X12374Y11268D01*
G01X12374Y11268D02*
G01X12374Y12370D01*
G01X11124Y11368D02*
G01X11074Y11368D01*
G01X11074Y11368D02*
G01X12374Y11368D01*
G01X12374Y12370D02*
G01X12374Y12368D01*
G01X12374Y12368D02*
G01X12375Y12370D01*
G01X12375Y12370D02*
G01X13874Y12370D01*
G01X15000Y9250D02*
G01X15000Y8800D01*
G01X15000Y8800D02*
G01X14900Y8700D01*
G01X14900Y8700D02*
G01X14400Y8700D01*
G01X14400Y8700D02*
G01X14326Y8750D01*
G01X7750Y17000D02*
G01X7700Y17000D01*
G01X7700Y17000D02*
G01X7700Y18800D01*
G01X7700Y18800D02*
G01X7250Y19250D01*
G01X7250Y19250D02*
G01X6498Y19250D01*
G01X8750Y20000D02*
G01X8750Y20550D01*
G54D80*
G01X8800Y20600D03*
G54D79*
G01X8750Y20550D02*
G01X8800Y20600D01*
G54D80*
G01X7500Y26200D03*
G54D79*
G01X7500Y26200D02*
G01X7500Y25218D01*
G01X35250Y3250D02*
G01X35250Y2850D01*
G01X35250Y2850D02*
G01X34300Y1900D01*
G01X34300Y1900D02*
G01X34300Y1200D01*
G01X34300Y1200D02*
G01X34250Y1250D01*
G01X31874Y27870D02*
G01X31874Y27868D01*
G01X31874Y27868D02*
G01X30124Y27868D01*
G01X28250Y29250D02*
G01X29150Y29250D01*
G01X29150Y29250D02*
G01X29400Y29000D01*
G01X29400Y29000D02*
G01X29400Y28100D01*
G01X29400Y28100D02*
G01X29600Y27900D01*
G01X29600Y27900D02*
G01X30100Y27900D01*
G01X30100Y27900D02*
G01X30124Y27868D01*
G01X36124Y26368D02*
G01X36974Y26368D01*
G01X36974Y26368D02*
G01X37974Y27368D01*
G01X37974Y27368D02*
G01X38374Y27368D01*
G01X37874Y29868D02*
G01X37874Y29168D01*
G01X37874Y29168D02*
G01X38174Y28868D01*
G01X38174Y28868D02*
G01X38674Y28868D01*
G01X38674Y28868D02*
G01X38974Y28568D01*
G01X38974Y28568D02*
G01X38974Y27468D01*
G01X38974Y27468D02*
G01X38874Y27368D01*
G01X38874Y27368D02*
G01X38374Y27368D01*
G01X37374Y24090D02*
G01X37374Y22868D01*
G01X37374Y22868D02*
G01X38074Y22168D01*
G01X38074Y22168D02*
G01X38774Y22168D01*
G01X38774Y22168D02*
G01X39122Y21820D01*
G01X39122Y21820D02*
G01X39122Y21368D01*
G01X37374Y24090D02*
G01X37300Y24100D01*
G01X37300Y24100D02*
G01X36124Y25275D01*
G01X36124Y25275D02*
G01X36124Y26368D01*
G01X39163Y25734D02*
G01X39163Y26136D01*
G01X39163Y26136D02*
G01X38800Y26500D01*
G01X38800Y26500D02*
G01X38600Y26500D01*
G01X38600Y26500D02*
G01X38400Y26700D01*
G01X38400Y26700D02*
G01X38400Y27300D01*
G01X38400Y27300D02*
G01X38374Y27368D01*
G01X11624Y22628D02*
G01X11600Y22200D01*
G01X11600Y22200D02*
G01X11600Y21200D01*
G01X11600Y21200D02*
G01X11800Y21000D01*
G01X11800Y21000D02*
G01X12300Y21000D01*
G01X12300Y21000D02*
G01X12500Y20800D01*
G01X12500Y20800D02*
G01X12500Y20250D01*
G01X11624Y22628D02*
G01X11600Y22700D01*
G01X11600Y22700D02*
G01X11600Y24100D01*
G01X11600Y24100D02*
G01X11900Y24400D01*
G01X11900Y24400D02*
G01X13800Y24400D01*
G01X13800Y24400D02*
G01X14277Y24877D01*
G01X14277Y24877D02*
G01X14277Y25295D01*
G01X24374Y23868D02*
G01X25374Y23868D01*
G01X16324Y27972D02*
G01X16300Y28100D01*
G01X16300Y28100D02*
G01X16300Y28300D01*
G01X16300Y28300D02*
G01X16200Y28400D01*
G54D80*
G01X16200Y28700D03*
G54D79*
G01X16200Y28400D02*
G01X16200Y28700D01*
G54D80*
G01X24400Y24500D03*
G54D79*
G01X24400Y24500D02*
G01X24374Y24474D01*
G01X24374Y24474D02*
G01X24374Y23868D01*
G01X48624Y16618D02*
G01X48574Y16468D01*
G01X48574Y16468D02*
G01X48574Y15968D01*
G01X48574Y15968D02*
G01X48239Y15634D01*
G01X48239Y15634D02*
G01X46710Y15634D01*
G01X42644Y23618D02*
G01X42644Y23938D01*
G01X42644Y23938D02*
G01X42874Y24168D01*
G01X42874Y24168D02*
G01X42874Y25118D01*
G01X41124Y25118D02*
G01X42824Y25118D01*
G01X42824Y25118D02*
G01X42874Y25068D01*
G01X42874Y25068D02*
G01X42874Y25118D01*
G01X42644Y23618D02*
G01X42600Y23600D01*
G54D80*
G01X43000Y23600D03*
G54D79*
G01X42600Y23600D02*
G01X43000Y23600D01*
G54D80*
G01X47900Y16600D03*
G54D79*
G01X47900Y16600D02*
G01X47918Y16618D01*
G01X47918Y16618D02*
G01X48624Y16618D01*
G01X33124Y12368D02*
G01X32274Y12368D01*
G54D80*
G01X32074Y12568D03*
G54D79*
G01X32274Y12368D02*
G01X32074Y12568D01*
G54D80*
G01X12674Y15368D03*
G54D79*
G01X12674Y15368D02*
G01X12674Y16168D01*
G01X12674Y16168D02*
G01X12624Y16118D01*
G01X11586Y16765D02*
G01X11586Y16313D01*
G01X11586Y16313D02*
G01X11800Y16100D01*
G01X11800Y16100D02*
G01X12600Y16100D01*
G01X12600Y16100D02*
G01X12624Y16118D01*
G54D82*
G01X45124Y25709D02*
G01X45074Y25668D01*
G01X45074Y25668D02*
G01X45124Y25618D01*
G01X45124Y25618D02*
G01X45124Y21868D01*
G01X47550Y29000D02*
G01X47600Y28900D01*
G01X47600Y28900D02*
G01X47600Y29400D01*
G01X47600Y29400D02*
G01X48100Y29900D01*
G01X48100Y29900D02*
G01X50000Y29900D01*
G01X50000Y29900D02*
G01X50550Y29350D01*
G01X50550Y29350D02*
G01X50550Y29000D01*
G01X44500Y28000D02*
G01X44500Y27500D01*
G01X44500Y27500D02*
G01X45100Y26900D01*
G01X45100Y26900D02*
G01X45100Y25800D01*
G01X45100Y25800D02*
G01X45124Y25709D01*
G01X44500Y28000D02*
G01X45200Y28000D01*
G01X45200Y28000D02*
G01X45500Y28300D01*
G01X45500Y28300D02*
G01X45500Y29400D01*
G01X45500Y29400D02*
G01X46000Y29900D01*
G01X46000Y29900D02*
G01X47200Y29900D01*
G01X47200Y29900D02*
G01X47600Y29500D01*
G01X47600Y29500D02*
G01X47600Y29100D01*
G01X47600Y29100D02*
G01X47550Y29000D01*
G54D79*
G01X45124Y21868D02*
G01X45100Y21800D01*
G01X45100Y21800D02*
G01X45100Y21200D01*
G01X45100Y21200D02*
G01X44200Y20300D01*
G01X44200Y20300D02*
G01X44200Y15000D01*
G01X44200Y15000D02*
G01X44000Y14800D01*
G01X44000Y14800D02*
G01X41700Y14800D01*
G01X41700Y14800D02*
G01X41400Y15100D01*
G01X41400Y15100D02*
G01X41400Y17100D01*
G01X41400Y17100D02*
G01X40500Y18000D01*
G01X40500Y18000D02*
G01X39500Y18000D01*
G54D80*
G01X38000Y18000D03*
G54D79*
G01X38751Y18000D02*
G01X38000Y18000D01*
G54D80*
G01X29900Y16700D03*
G54D79*
G01X29900Y16700D02*
G01X28700Y16700D01*
G01X28700Y16700D02*
G01X28858Y16705D01*
G01X20124Y15368D02*
G01X19122Y15368D01*
G01X17374Y14868D02*
G01X18974Y14868D01*
G01X18974Y14868D02*
G01X19074Y14968D01*
G01X19074Y14968D02*
G01X19074Y15268D01*
G01X19074Y15268D02*
G01X19122Y15368D01*
G01X16750Y6218D02*
G01X16700Y6368D01*
G01X16700Y6368D02*
G01X16687Y6381D01*
G01X16687Y6381D02*
G01X16687Y7870D01*
G01X16750Y6218D02*
G01X16350Y6218D01*
G01X16350Y6218D02*
G01X16100Y5968D01*
G01X16100Y5968D02*
G01X16100Y5368D01*
G01X16100Y5368D02*
G01X15900Y5168D01*
G01X15900Y5168D02*
G01X15500Y5168D01*
G01X15500Y5168D02*
G01X15437Y5118D01*
G01X16687Y7870D02*
G01X16270Y7870D01*
G01X16270Y7870D02*
G01X16100Y7700D01*
G01X16100Y7700D02*
G01X16100Y7200D01*
G01X16100Y7200D02*
G01X15900Y7000D01*
G01X15900Y7000D02*
G01X15200Y7000D01*
G01X15200Y7000D02*
G01X15250Y7001D01*
G01X7000Y23250D02*
G01X7000Y22400D01*
G01X7000Y22400D02*
G01X6500Y21900D01*
G01X6500Y21900D02*
G01X6500Y21250D01*
G01X6250Y28250D02*
G01X6250Y27350D01*
G01X6250Y27350D02*
G01X6200Y27300D01*
G01X6200Y27300D02*
G01X6250Y27250D01*
G01X6500Y25218D02*
G01X6500Y26300D01*
G01X6500Y26300D02*
G01X6300Y26500D01*
G01X6300Y26500D02*
G01X6300Y27200D01*
G01X6300Y27200D02*
G01X6250Y27250D01*
G01X4250Y29850D02*
G01X4300Y29800D01*
G01X4300Y29800D02*
G01X5600Y29800D01*
G01X5600Y29800D02*
G01X6200Y29200D01*
G01X6200Y29200D02*
G01X6200Y28300D01*
G01X6200Y28300D02*
G01X6250Y28250D01*
G01X37500Y5498D02*
G01X37500Y5500D01*
G01X37500Y5500D02*
G01X36000Y5500D01*
G01X38750Y10500D02*
G01X38700Y10500D01*
G01X38700Y10500D02*
G01X38700Y11200D01*
G01X38700Y11200D02*
G01X38400Y11500D01*
G54D80*
G01X38400Y12000D03*
G54D79*
G01X38400Y11500D02*
G01X38400Y12000D01*
G54D80*
G01X38900Y9100D03*
G54D79*
G01X38900Y9100D02*
G01X38900Y8400D01*
G01X38900Y8400D02*
G01X38800Y8300D01*
G01X38800Y8300D02*
G01X38300Y7800D01*
G01X38300Y7800D02*
G01X38300Y7600D01*
G01X38300Y7600D02*
G01X38300Y5900D01*
G01X38300Y5900D02*
G01X37898Y5498D01*
G01X37898Y5498D02*
G01X37500Y5498D01*
G01X26874Y18868D02*
G01X27374Y18868D01*
G01X27374Y18868D02*
G01X27574Y18668D01*
G01X27574Y18668D02*
G01X27574Y18368D01*
G01X27574Y18368D02*
G01X27874Y18068D01*
G01X27874Y18068D02*
G01X28274Y18068D01*
G01X28274Y18068D02*
G01X28374Y18120D01*
G01X26874Y18868D02*
G01X26374Y18868D01*
G01X26374Y18868D02*
G01X26074Y18568D01*
G01X26074Y18568D02*
G01X24974Y18568D01*
G01X24974Y18568D02*
G01X24874Y18618D01*
G01X42624Y29868D02*
G01X42624Y29518D01*
G01X42624Y29518D02*
G01X43374Y28768D01*
G01X43374Y28768D02*
G01X43374Y28168D01*
G01X43374Y28168D02*
G01X43074Y27868D01*
G01X43074Y27868D02*
G01X42622Y27868D01*
G01X39624Y27868D02*
G01X39674Y28068D01*
G01X39674Y28068D02*
G01X39674Y28568D01*
G01X39674Y28568D02*
G01X40174Y29068D01*
G01X40174Y29068D02*
G01X42174Y29068D01*
G01X42174Y29068D02*
G01X42622Y28620D01*
G01X42622Y28620D02*
G01X42622Y27868D01*
G01X39576Y24750D02*
G01X39500Y24800D01*
G01X39500Y24800D02*
G01X39900Y24800D01*
G01X39900Y24800D02*
G01X40100Y25000D01*
G01X40100Y25000D02*
G01X40100Y26200D01*
G01X40100Y26200D02*
G01X39624Y26675D01*
G01X39624Y26675D02*
G01X39624Y27868D01*
G01X17624Y29618D02*
G01X16424Y29618D01*
G01X16424Y29618D02*
G01X16374Y29668D01*
G01X16374Y29668D02*
G01X16372Y29618D01*
G01X17624Y29618D02*
G01X17600Y29600D01*
G01X17600Y29600D02*
G01X17600Y30300D01*
G01X17600Y30300D02*
G01X17500Y30400D01*
G54D80*
G01X17000Y30400D03*
G54D79*
G01X17500Y30400D02*
G01X17000Y30400D01*
G54D80*
G01X16600Y27200D03*
G54D79*
G01X16600Y27200D02*
G01X16614Y27185D01*
G01X16614Y27185D02*
G01X17427Y27185D01*
G01X47750Y1750D02*
G01X46550Y1750D01*
G01X46550Y1750D02*
G01X46500Y1700D01*
G01X46500Y1700D02*
G01X46500Y1751D01*
G54D80*
G01X11500Y7000D03*
G54D79*
G01X11500Y7750D02*
G01X11500Y7000D01*
G54D80*
G01X22300Y13500D03*
G54D79*
G01X22300Y13500D02*
G01X22300Y15400D01*
G01X22300Y15400D02*
G01X21500Y16200D01*
G01X21500Y16200D02*
G01X18600Y16200D01*
G01X18600Y16200D02*
G01X18374Y15974D01*
G01X18374Y15974D02*
G01X18374Y15368D01*
G01X46500Y1751D02*
G01X46500Y1700D01*
G01X46500Y1700D02*
G01X46100Y1700D01*
G01X46100Y1700D02*
G01X45900Y1900D01*
G01X45900Y1900D02*
G01X45900Y3200D01*
G54D80*
G01X46100Y3400D03*
G54D79*
G01X45900Y3200D02*
G01X46100Y3400D01*
G54D80*
G01X30400Y8100D03*
G01X28200Y8100D03*
G54D79*
G01X30400Y8100D02*
G01X28200Y8100D01*
G54D80*
G01X14600Y13700D03*
G54D79*
G01X14600Y13700D02*
G01X15000Y14100D01*
G01X15000Y14100D02*
G01X15000Y14700D01*
G01X15000Y14700D02*
G01X15668Y15368D01*
G01X15668Y15368D02*
G01X18374Y15368D01*
G01X23710Y13134D02*
G01X24408Y13134D01*
G01X24408Y13134D02*
G01X24774Y12768D01*
G01X24774Y12768D02*
G01X25874Y12768D01*
G01X25874Y12768D02*
G01X26074Y12968D01*
G01X26074Y12968D02*
G01X26074Y14268D01*
G01X26074Y14268D02*
G01X26574Y14268D01*
G01X26574Y14268D02*
G01X26624Y14116D01*
G01X26624Y14116D02*
G01X26574Y14268D01*
G54D80*
G01X26074Y14268D03*
G54D79*
G01X26574Y14268D02*
G01X26074Y14268D01*
G54D80*
G01X27274Y17068D03*
G54D79*
G01X27274Y17068D02*
G01X27324Y17118D01*
G01X27324Y17118D02*
G01X27874Y17118D01*
G01X17124Y12366D02*
G01X17972Y12366D01*
G01X17972Y12366D02*
G01X18174Y12568D01*
G01X18174Y12568D02*
G01X18674Y12568D01*
G01X18674Y12568D02*
G01X18624Y12618D01*
G01X16960Y13884D02*
G01X16974Y13868D01*
G01X16974Y13868D02*
G01X16974Y13268D01*
G01X16974Y13268D02*
G01X17124Y13118D01*
G01X17124Y13118D02*
G01X17124Y12366D01*
G01X12750Y8500D02*
G01X12900Y8500D01*
G01X12900Y8500D02*
G01X13200Y8800D01*
G01X13200Y8800D02*
G01X13400Y8800D01*
G01X13400Y8800D02*
G01X13500Y8750D01*
G01X12750Y8500D02*
G01X12600Y8500D01*
G01X12600Y8500D02*
G01X12598Y8498D01*
G01X12598Y8498D02*
G01X11500Y8498D01*
G01X4998Y26000D02*
G01X5000Y25900D01*
G01X5000Y25900D02*
G01X5000Y25700D01*
G01X5000Y25700D02*
G01X4800Y25500D01*
G01X4800Y25500D02*
G01X4500Y25500D01*
G01X4500Y25500D02*
G01X4250Y25250D01*
G01X4250Y25250D02*
G01X4250Y25000D01*
G01X4998Y26000D02*
G01X5100Y26000D01*
G01X5100Y26000D02*
G01X5800Y26000D01*
G01X5800Y26000D02*
G01X6000Y25800D01*
G01X6000Y25800D02*
G01X6000Y25218D01*
G01X6998Y28250D02*
G01X6998Y27401D01*
G01X6998Y27401D02*
G01X7000Y27400D01*
G01X7000Y27400D02*
G01X6998Y27250D01*
G01X7000Y25218D02*
G01X7000Y27200D01*
G01X7000Y27200D02*
G01X7100Y27300D01*
G01X7100Y27300D02*
G01X6998Y27250D01*
G01X9250Y27750D02*
G01X9200Y27800D01*
G01X9200Y27800D02*
G01X8300Y27800D01*
G01X8300Y27800D02*
G01X7850Y28250D01*
G01X7850Y28250D02*
G01X6998Y28250D01*
G01X32374Y9868D02*
G01X32374Y8468D01*
G01X32374Y8468D02*
G01X32724Y8118D01*
G01X32724Y8118D02*
G01X32875Y8118D01*
G01X28374Y18868D02*
G01X28374Y19368D01*
G01X28374Y19368D02*
G01X27874Y19868D01*
G01X27874Y19868D02*
G01X27874Y21628D01*
G01X24000Y27500D02*
G01X24000Y27300D01*
G54D80*
G01X24000Y26100D03*
G54D79*
G01X24000Y27300D02*
G01X24000Y26100D01*
G54D80*
G01X17400Y24900D03*
G54D79*
G01X17400Y24900D02*
G01X17322Y24822D01*
G01X17322Y24822D02*
G01X16954Y24822D01*
G01X30374Y14118D02*
G01X30374Y13768D01*
G01X30374Y13768D02*
G01X30474Y13668D01*
G01X30474Y13668D02*
G01X30974Y13668D01*
G01X30974Y13668D02*
G01X31124Y13818D01*
G01X31124Y13818D02*
G01X31124Y14118D01*
G01X30374Y14118D02*
G01X29124Y14118D01*
G01X29124Y14118D02*
G01X28974Y14268D01*
G01X28974Y14268D02*
G01X27974Y14268D01*
G01X27974Y14268D02*
G01X27874Y14368D01*
G01X27874Y14368D02*
G01X27874Y14868D01*
G54D82*
G01X49797Y13868D02*
G01X49774Y13868D01*
G01X49774Y13868D02*
G01X49874Y13968D01*
G01X49874Y13968D02*
G01X49874Y15118D01*
G54D79*
G01X36374Y15118D02*
G01X36374Y14768D01*
G01X36374Y14768D02*
G01X36474Y14668D01*
G01X36474Y14668D02*
G01X36974Y14668D01*
G01X36974Y14668D02*
G01X37074Y14768D01*
G01X37074Y14768D02*
G01X37074Y15068D01*
G01X37074Y15068D02*
G01X37124Y15118D01*
G01X36374Y15118D02*
G01X36124Y15118D01*
G01X36124Y15118D02*
G01X35874Y15368D01*
G01X35874Y15368D02*
G01X35874Y15768D01*
G01X35874Y15768D02*
G01X35374Y16268D01*
G01X35374Y16268D02*
G01X35374Y16618D01*
G01X35374Y16618D02*
G01X34624Y16618D01*
G01X34624Y16618D02*
G01X34274Y16268D01*
G01X34274Y16268D02*
G01X34274Y15668D01*
G01X34274Y15668D02*
G01X33674Y15068D01*
G01X33674Y15068D02*
G01X32674Y15068D01*
G01X32674Y15068D02*
G01X31674Y14068D01*
G01X31674Y14068D02*
G01X31174Y14068D01*
G01X31174Y14068D02*
G01X31124Y14118D01*
G01X37124Y15118D02*
G01X37174Y15168D01*
G54D80*
G01X37174Y15868D03*
G54D79*
G01X37174Y15168D02*
G01X37174Y15868D01*
G54D80*
G01X45000Y16500D03*
G54D79*
G01X45000Y16500D02*
G01X45000Y15400D01*
G01X45000Y15400D02*
G01X45400Y15000D01*
G01X45400Y15000D02*
G01X48600Y15000D01*
G01X48600Y15000D02*
G01X49400Y14200D01*
G01X49400Y14200D02*
G01X49400Y14000D01*
G01X49400Y14000D02*
G01X49600Y13800D01*
G01X49600Y13800D02*
G01X49797Y13868D01*
G54D81*
G01X44139Y24527D02*
G01X44074Y24468D01*
G01X44074Y24468D02*
G01X44074Y23568D01*
G01X44074Y23568D02*
G01X43874Y23368D01*
G01X43874Y23368D02*
G01X43874Y22368D01*
G54D79*
G01X27874Y14868D02*
G01X27474Y14868D01*
G01X27474Y14868D02*
G01X27274Y14668D01*
G01X27274Y14668D02*
G01X27274Y13568D01*
G01X27274Y13568D02*
G01X27074Y13368D01*
G01X27074Y13368D02*
G01X26574Y13368D01*
G01X26574Y13368D02*
G01X26624Y13368D01*
G01X11624Y15368D02*
G01X11574Y15268D01*
G01X11574Y15268D02*
G01X12074Y15268D01*
G01X12074Y15268D02*
G01X12274Y15068D01*
G54D80*
G01X12274Y14568D03*
G54D79*
G01X12274Y15068D02*
G01X12274Y14568D01*
G54D80*
G01X26574Y12668D03*
G54D79*
G01X26574Y12668D02*
G01X26624Y12718D01*
G01X26624Y12718D02*
G01X26574Y12768D01*
G01X26574Y12768D02*
G01X26574Y13268D01*
G01X26574Y13268D02*
G01X26624Y13368D01*
G01X21374Y12618D02*
G01X21781Y12618D01*
G01X21781Y12618D02*
G01X22000Y12400D01*
G01X22000Y12400D02*
G01X27100Y12400D01*
G01X27100Y12400D02*
G01X27300Y12600D01*
G01X27300Y12600D02*
G01X27300Y13200D01*
G01X27300Y13200D02*
G01X27100Y13400D01*
G01X27100Y13400D02*
G01X26600Y13400D01*
G01X26600Y13400D02*
G01X26624Y13368D01*
G01X11624Y15368D02*
G01X11600Y15500D01*
G01X11600Y15500D02*
G01X11600Y15700D01*
G01X11600Y15700D02*
G01X11400Y15900D01*
G01X11400Y15900D02*
G01X11100Y15900D01*
G01X11100Y15900D02*
G01X10000Y15900D01*
G01X10000Y15900D02*
G01X9700Y16200D01*
G01X9700Y16200D02*
G01X9700Y18200D01*
G01X9700Y18200D02*
G01X9700Y18700D01*
G01X9700Y18700D02*
G01X9750Y18750D01*
G01X11624Y15368D02*
G01X11700Y15300D01*
G54D80*
G01X11700Y13600D03*
G54D79*
G01X11700Y15300D02*
G01X11700Y13600D01*
G54D80*
G01X8900Y12200D03*
G54D79*
G01X8900Y12200D02*
G01X8850Y12250D01*
G01X8850Y12250D02*
G01X8250Y12250D01*
G01X9750Y18750D02*
G01X9750Y18650D01*
G54D80*
G01X9000Y17900D03*
G54D79*
G01X9750Y18650D02*
G01X9000Y17900D01*
G54D80*
G01X3700Y25600D03*
G54D79*
G01X3700Y25600D02*
G01X3700Y25800D01*
G01X3700Y25800D02*
G01X3900Y26000D01*
G01X3900Y26000D02*
G01X4100Y26000D01*
G01X4100Y26000D02*
G01X4250Y26000D01*
G01X8250Y12250D02*
G01X8300Y12200D01*
G01X8300Y12200D02*
G01X7800Y12200D01*
G01X7800Y12200D02*
G01X7600Y12000D01*
G54D80*
G01X7600Y11700D03*
G54D79*
G01X7600Y12000D02*
G01X7600Y11700D01*
G54D80*
G01X6700Y7200D03*
G54D79*
G01X6700Y7200D02*
G01X6700Y6600D01*
G01X6700Y6600D02*
G01X6700Y6000D01*
G01X6700Y6000D02*
G01X7100Y5600D01*
G01X7100Y5600D02*
G01X8700Y5600D01*
G01X8700Y5600D02*
G01X8800Y5500D01*
G01X8800Y5500D02*
G01X8800Y4200D01*
G01X8800Y4200D02*
G01X9500Y3500D01*
G01X9500Y3500D02*
G01X9500Y1750D01*
G01X15624Y29618D02*
G01X15600Y29800D01*
G54D80*
G01X15600Y30700D03*
G54D79*
G01X15600Y29800D02*
G01X15600Y30700D01*
G54D80*
G01X3200Y26200D03*
G54D79*
G01X3200Y26200D02*
G01X3700Y26200D01*
G01X3700Y26200D02*
G01X3900Y26000D01*
G01X3900Y26000D02*
G01X4200Y26000D01*
G01X4200Y26000D02*
G01X4250Y26000D01*
G54D82*
G01X49874Y15118D02*
G01X49218Y15118D01*
G54D80*
G01X49200Y15100D03*
G54D82*
G01X49218Y15118D02*
G01X49200Y15100D01*
G54D80*
G01X44500Y22400D03*
G54D82*
G01X44500Y22400D02*
G01X43700Y22400D01*
G01X43700Y22400D02*
G01X43874Y22368D01*
G01X53624Y13368D02*
G01X51631Y13368D01*
G54D80*
G01X51600Y13400D03*
G54D82*
G01X51631Y13368D02*
G01X51600Y13400D01*
G54D80*
G01X49200Y15100D03*
G54D82*
G01X49200Y15100D02*
G01X49900Y15100D01*
G01X49900Y15100D02*
G01X49874Y15118D01*
G54D80*
G01X2000Y4600D03*
G54D79*
G01X2000Y5500D02*
G01X2000Y4600D01*
G54D80*
G01X10100Y1800D03*
G54D79*
G01X10100Y1800D02*
G01X10050Y1750D01*
G01X10050Y1750D02*
G01X9500Y1750D01*
G01X43874Y22368D02*
G01X43600Y22400D01*
G01X43600Y22400D02*
G01X43300Y22100D01*
G01X43300Y22100D02*
G01X43300Y20200D01*
G01X43300Y20200D02*
G01X43000Y19900D01*
G01X43000Y19900D02*
G01X43000Y18600D01*
G01X53624Y13368D02*
G01X53624Y12124D01*
G01X53624Y12124D02*
G01X53500Y12000D01*
G01X53500Y12000D02*
G01X53500Y10100D01*
G01X53500Y10100D02*
G01X53300Y9900D01*
G01X53300Y9900D02*
G01X53300Y9100D01*
G01X53300Y9100D02*
G01X53350Y9000D01*
G01X18625Y17118D02*
G01X18625Y17616D01*
G01X18625Y17616D02*
G01X18474Y17768D01*
G01X18474Y17768D02*
G01X17774Y17768D01*
G01X17774Y17768D02*
G01X17574Y17968D01*
G01X17574Y17968D02*
G01X17574Y18368D01*
G01X17574Y18368D02*
G01X17624Y18618D01*
G01X17624Y18618D02*
G01X17224Y18618D01*
G01X17224Y18618D02*
G01X17074Y18468D01*
G01X17074Y18468D02*
G01X17074Y17868D01*
G01X17074Y17868D02*
G01X16974Y17768D01*
G01X16974Y17768D02*
G01X16574Y17768D01*
G01X16574Y17768D02*
G01X16374Y17568D01*
G01X16374Y17568D02*
G01X16374Y17118D01*
G01X14874Y20396D02*
G01X14974Y20468D01*
G01X14974Y20468D02*
G01X14874Y20368D01*
G01X14874Y20368D02*
G01X13624Y20368D01*
G01X13163Y18734D02*
G01X13200Y18900D01*
G01X13200Y18900D02*
G01X13200Y19400D01*
G01X13200Y19400D02*
G01X13624Y19824D01*
G01X13624Y19824D02*
G01X13624Y20368D01*
G01X14874Y20396D02*
G01X14800Y20400D01*
G01X14800Y20400D02*
G01X14800Y19100D01*
G01X14800Y19100D02*
G01X15100Y18800D01*
G01X15100Y18800D02*
G01X17100Y18800D01*
G01X17100Y18800D02*
G01X17281Y18618D01*
G01X17281Y18618D02*
G01X17624Y18618D01*
G01X20124Y13368D02*
G01X19974Y13368D01*
G01X19974Y13368D02*
G01X19975Y13366D01*
G01X19975Y13366D02*
G01X21374Y13366D01*
G01X18624Y13760D02*
G01X18674Y13768D01*
G01X18674Y13768D02*
G01X19074Y13768D01*
G01X19074Y13768D02*
G01X19474Y13368D01*
G01X19474Y13368D02*
G01X20124Y13368D01*
G01X13913Y9734D02*
G01X12234Y9734D01*
G01X12234Y9734D02*
G01X12200Y9700D01*
G01X12200Y9700D02*
G01X12250Y9750D01*
G01X7000Y10751D02*
G01X7100Y10700D01*
G01X7100Y10700D02*
G01X7400Y10700D01*
G01X7400Y10700D02*
G01X7600Y10500D01*
G01X7600Y10500D02*
G01X12000Y10500D01*
G01X12000Y10500D02*
G01X12200Y10300D01*
G01X12200Y10300D02*
G01X12200Y9800D01*
G01X12200Y9800D02*
G01X12250Y9750D01*
G01X1250Y22000D02*
G01X2300Y22000D01*
G01X2300Y22000D02*
G01X3500Y23200D01*
G01X3500Y23200D02*
G01X3500Y23800D01*
G01X3500Y23800D02*
G01X3700Y24000D01*
G01X3700Y24000D02*
G01X4250Y24000D01*
G01X1187Y27118D02*
G01X1200Y27100D01*
G01X1200Y27100D02*
G01X1187Y27087D01*
G01X1187Y27087D02*
G01X1187Y26118D01*
G01X1187Y27118D02*
G01X1200Y27100D01*
G01X1200Y27100D02*
G01X3300Y27100D01*
G01X3300Y27100D02*
G01X3600Y27400D01*
G01X3600Y27400D02*
G01X4200Y27400D01*
G01X4200Y27400D02*
G01X4250Y27450D01*
G01X38336Y9515D02*
G01X38300Y9500D01*
G01X38300Y9500D02*
G01X38300Y8300D01*
G01X38300Y8300D02*
G01X37868Y7868D01*
G01X37868Y7868D02*
G01X37674Y7868D01*
G01X34500Y5500D02*
G01X34500Y6000D01*
G01X34500Y6000D02*
G01X34900Y6400D01*
G01X34900Y6400D02*
G01X36700Y6400D01*
G01X36700Y6400D02*
G01X37600Y7300D01*
G01X37600Y7300D02*
G01X37600Y7800D01*
G01X37600Y7800D02*
G01X37674Y7868D01*
G01X38336Y9515D02*
G01X38300Y9500D01*
G54D80*
G01X39300Y9500D03*
G54D79*
G01X38300Y9500D02*
G01X39300Y9500D01*
G54D80*
G01X39300Y11700D03*
G54D79*
G01X39300Y11700D02*
G01X40600Y13000D01*
G01X40600Y13000D02*
G01X40918Y13000D01*
G01X25000Y27500D02*
G01X25000Y27300D01*
G54D80*
G01X25000Y26100D03*
G54D79*
G01X25000Y27300D02*
G01X25000Y26100D01*
G54D80*
G01X17900Y25300D03*
G54D79*
G01X17900Y25300D02*
G01X17895Y25295D01*
G01X17895Y25295D02*
G01X17427Y25295D01*
G01X41124Y19618D02*
G01X41074Y19568D01*
G01X41074Y19568D02*
G01X40474Y19568D01*
G01X40474Y19568D02*
G01X40274Y19368D01*
G01X40274Y19368D02*
G01X39874Y19368D01*
G01X41124Y19618D02*
G01X41174Y19668D01*
G01X41174Y19668D02*
G01X41174Y20368D01*
G01X41174Y20368D02*
G01X41574Y20768D01*
G01X41574Y20768D02*
G01X42174Y20768D01*
G01X42174Y20768D02*
G01X42372Y20966D01*
G01X42372Y20966D02*
G01X42372Y21368D01*
G01X47000Y28500D02*
G01X50000Y28500D01*
G01X50000Y28500D02*
G01X50900Y28500D01*
G01X50900Y28500D02*
G01X51200Y28800D01*
G01X51200Y28800D02*
G01X51200Y30200D01*
G01X51200Y30200D02*
G01X50800Y30600D01*
G01X50800Y30600D02*
G01X44300Y30600D01*
G01X44300Y30600D02*
G01X43800Y30100D01*
G01X43800Y30100D02*
G01X43800Y27500D01*
G01X43800Y27500D02*
G01X43500Y27200D01*
G01X43500Y27200D02*
G01X43500Y23100D01*
G01X43500Y23100D02*
G01X43100Y22700D01*
G01X43100Y22700D02*
G01X43100Y21600D01*
G01X43100Y21600D02*
G01X42868Y21368D01*
G01X42868Y21368D02*
G01X42372Y21368D01*
G54D80*
G01X26900Y27500D03*
G54D79*
G01X26000Y27500D02*
G01X26900Y27500D01*
G54D80*
G01X23000Y29600D03*
G54D79*
G01X23000Y29600D02*
G01X22981Y29618D01*
G01X22981Y29618D02*
G01X22372Y29618D01*
G01X17750Y28500D02*
G01X17400Y28500D01*
G01X17400Y28500D02*
G01X17300Y28600D01*
G01X17300Y28600D02*
G01X17300Y28800D01*
G01X17300Y28800D02*
G01X17000Y29100D01*
G01X17000Y29100D02*
G01X16000Y29100D01*
G01X16000Y29100D02*
G01X15700Y28800D01*
G01X15700Y28800D02*
G01X15700Y28500D01*
G01X15700Y28500D02*
G01X15700Y28100D01*
G01X15700Y28100D02*
G01X15694Y27972D01*
G01X22372Y29618D02*
G01X22400Y29400D01*
G01X22400Y29400D02*
G01X22100Y29100D01*
G01X22100Y29100D02*
G01X17900Y29100D01*
G01X17900Y29100D02*
G01X17750Y28950D01*
G01X17750Y28950D02*
G01X17750Y28500D01*
G01X9374Y14618D02*
G01X9374Y15174D01*
G01X9374Y15174D02*
G01X9374Y15574D01*
G01X9374Y15574D02*
G01X9500Y15700D01*
G01X9500Y15700D02*
G01X9500Y16800D01*
G01X9500Y16800D02*
G01X9300Y17000D01*
G01X9300Y17000D02*
G01X9000Y16998D01*
G01X12000Y17750D02*
G01X12000Y17400D01*
G01X12000Y17400D02*
G01X12100Y17300D01*
G01X12100Y17300D02*
G01X12300Y17300D01*
G54D80*
G01X12600Y17000D03*
G54D79*
G01X12300Y17300D02*
G01X12600Y17000D01*
G54D80*
G01X10000Y15400D03*
G54D79*
G01X10000Y15400D02*
G01X9800Y15200D01*
G01X9800Y15200D02*
G01X9800Y14800D01*
G01X9800Y14800D02*
G01X9600Y14600D01*
G01X9600Y14600D02*
G01X9374Y14618D01*
G01X17374Y10368D02*
G01X17437Y10268D01*
G01X17437Y10268D02*
G01X17437Y10968D01*
G01X17437Y10968D02*
G01X17124Y11281D01*
G01X17124Y11281D02*
G01X17124Y11618D01*
G01X19374Y11118D02*
G01X19437Y10968D01*
G01X19437Y10968D02*
G01X19437Y10568D01*
G01X19437Y10568D02*
G01X19237Y10368D01*
G01X19237Y10368D02*
G01X17374Y10368D01*
G01X18187Y8618D02*
G01X16850Y8618D01*
G01X16850Y8618D02*
G01X16800Y8668D01*
G01X16800Y8668D02*
G01X16687Y8618D01*
G01X15413Y10234D02*
G01X15500Y10300D01*
G01X15500Y10300D02*
G01X15800Y10300D01*
G01X15800Y10300D02*
G01X16000Y10100D01*
G01X16000Y10100D02*
G01X16000Y10000D01*
G01X16000Y10000D02*
G01X16687Y9312D01*
G01X16687Y9312D02*
G01X16687Y8618D01*
G01X7501Y21250D02*
G01X7500Y21200D01*
G54D80*
G01X7500Y20500D03*
G54D79*
G01X7500Y21200D02*
G01X7500Y20500D01*
G01X1265Y19163D02*
G01X1200Y19200D01*
G01X1200Y19200D02*
G01X1250Y19250D01*
G01X1250Y19250D02*
G01X1250Y21000D01*
G01X7086Y1515D02*
G01X7086Y986D01*
G01X7086Y986D02*
G01X6900Y800D01*
G01X6900Y800D02*
G01X5400Y800D01*
G01X5400Y800D02*
G01X5200Y1000D01*
G01X5200Y1000D02*
G01X5200Y1600D01*
G01X5200Y1600D02*
G01X5250Y1750D01*
G01X7086Y1515D02*
G01X7100Y1500D01*
G01X7100Y1500D02*
G01X6100Y1500D01*
G01X6100Y1500D02*
G01X6000Y1600D01*
G01X6000Y1600D02*
G01X6000Y3700D01*
G01X6000Y3700D02*
G01X6200Y3900D01*
G01X6200Y3900D02*
G01X6900Y3900D01*
G01X6900Y3900D02*
G01X7000Y4000D01*
G01X7000Y4000D02*
G01X7000Y4750D01*
G01X7086Y1515D02*
G01X7086Y1013D01*
G01X7086Y1013D02*
G01X7300Y800D01*
G01X7300Y800D02*
G01X12500Y800D01*
G01X12500Y800D02*
G01X12800Y1100D01*
G01X12800Y1100D02*
G01X12800Y1700D01*
G01X12800Y1700D02*
G01X12750Y1750D01*
G01X25000Y29260D02*
G01X25000Y29200D01*
G54D80*
G01X25000Y30700D03*
G54D79*
G01X25000Y29200D02*
G01X25000Y30700D01*
G54D80*
G01X16600Y25600D03*
G54D79*
G01X16600Y25600D02*
G01X16639Y25560D01*
G01X16639Y25560D02*
G01X16639Y24822D01*
G54D82*
G01X48124Y13118D02*
G01X48274Y13268D01*
G01X48274Y13268D02*
G01X49074Y13268D01*
G01X49074Y13268D02*
G01X49474Y12868D01*
G01X49474Y12868D02*
G01X49489Y12884D01*
G01X49489Y12884D02*
G01X50210Y12884D01*
G01X35374Y23868D02*
G01X35474Y23868D01*
G54D80*
G01X34574Y23868D03*
G54D82*
G01X35474Y23868D02*
G01X34574Y23868D01*
G54D80*
G01X39374Y22068D03*
G54D82*
G01X39374Y22068D02*
G01X39374Y22868D01*
G01X35374Y23868D02*
G01X35374Y24368D01*
G01X35374Y24368D02*
G01X34874Y24868D01*
G01X34874Y24868D02*
G01X34874Y28068D01*
G01X34874Y28068D02*
G01X34274Y28668D01*
G01X34274Y28668D02*
G01X31874Y28668D01*
G01X31874Y28668D02*
G01X31874Y28618D01*
G01X50000Y6500D02*
G01X50000Y5000D01*
G01X50210Y12884D02*
G01X50210Y12310D01*
G01X50210Y12310D02*
G01X50110Y12310D01*
G01X50110Y12310D02*
G01X49300Y11500D01*
G01X49300Y11500D02*
G01X49300Y6800D01*
G01X49300Y6800D02*
G01X49600Y6500D01*
G01X49600Y6500D02*
G01X50000Y6500D01*
G01X48124Y13118D02*
G01X47318Y13118D01*
G54D80*
G01X47300Y13100D03*
G54D82*
G01X47318Y13118D02*
G01X47300Y13100D01*
G54D80*
G01X40000Y22900D03*
G54D82*
G01X40000Y22900D02*
G01X39300Y22900D01*
G01X39300Y22900D02*
G01X39374Y22868D01*
G01X38750Y24750D02*
G01X38750Y24250D01*
G01X38750Y24250D02*
G01X39400Y23600D01*
G01X39400Y23600D02*
G01X39400Y22900D01*
G01X39400Y22900D02*
G01X39374Y22868D01*
G54D79*
G01X24124Y14118D02*
G01X24174Y14168D01*
G01X24174Y14168D02*
G01X24224Y14118D01*
G01X24224Y14118D02*
G01X25374Y14118D01*
G01X26124Y15618D02*
G01X25624Y15618D01*
G01X25624Y15618D02*
G01X25374Y15368D01*
G01X25374Y15368D02*
G01X25374Y14118D01*
G01X3000Y17250D02*
G01X3000Y17200D01*
G01X3000Y17200D02*
G01X2400Y17200D01*
G01X2400Y17200D02*
G01X2250Y17350D01*
G01X2250Y17350D02*
G01X2250Y18750D01*
G01X9116Y23750D02*
G01X9200Y23700D01*
G54D80*
G01X9200Y24700D03*
G54D79*
G01X9200Y23700D02*
G01X9200Y24700D01*
G54D80*
G01X2900Y18700D03*
G54D79*
G01X2900Y18700D02*
G01X2850Y18750D01*
G01X2850Y18750D02*
G01X2250Y18750D01*
G01X16009Y27972D02*
G01X16009Y27209D01*
G54D80*
G01X16000Y27200D03*
G54D79*
G01X16009Y27209D02*
G01X16000Y27200D01*
G54D80*
G01X9200Y24700D03*
G54D79*
G01X9200Y24700D02*
G01X9200Y23800D01*
G01X9200Y23800D02*
G01X9116Y23750D01*
G01X16009Y27972D02*
G01X16000Y27900D01*
G54D80*
G01X16000Y27200D03*
G54D79*
G01X16000Y27900D02*
G01X16000Y27200D01*
G54D80*
G01X25400Y15800D03*
G54D79*
G01X25400Y15800D02*
G01X25581Y15618D01*
G01X25581Y15618D02*
G01X26124Y15618D01*
G01X51874Y18068D02*
G01X52674Y18068D01*
G01X52674Y18068D02*
G01X52924Y17818D01*
G01X52924Y17818D02*
G01X53624Y17818D01*
G01X51874Y18068D02*
G01X51900Y18000D01*
G54D80*
G01X51900Y19600D03*
G54D79*
G01X51900Y18000D02*
G01X51900Y19600D01*
G54D80*
G01X26600Y24800D03*
G54D79*
G01X26600Y24800D02*
G01X26547Y24852D01*
G01X26547Y24852D02*
G01X25787Y24852D01*
G01X12750Y17750D02*
G01X12700Y17900D01*
G01X12700Y17900D02*
G01X12700Y18200D01*
G01X12700Y18200D02*
G01X12500Y18400D01*
G01X12500Y18400D02*
G01X11400Y18400D01*
G01X11400Y18400D02*
G01X11173Y18173D01*
G01X11173Y18173D02*
G01X11173Y17750D01*
G01X26125Y11618D02*
G01X24987Y11618D01*
G01X24987Y11618D02*
G01X24437Y11068D01*
G01X24437Y11068D02*
G01X23637Y11068D01*
G01X23637Y11068D02*
G01X23114Y11118D01*
G01X18000Y4468D02*
G01X18000Y4868D01*
G01X18000Y4868D02*
G01X18200Y5068D01*
G01X18200Y5068D02*
G01X18200Y5568D01*
G01X18200Y5568D02*
G01X18187Y5618D01*
G01X18187Y5618D02*
G01X18650Y5618D01*
G01X18650Y5618D02*
G01X18800Y5768D01*
G01X18800Y5768D02*
G01X18800Y7668D01*
G01X18800Y7668D02*
G01X18600Y7868D01*
G01X18600Y7868D02*
G01X18200Y7868D01*
G01X18200Y7868D02*
G01X18187Y7870D01*
G01X9250Y21250D02*
G01X8250Y21250D01*
G01X8250Y23001D02*
G01X8250Y22750D01*
G01X8250Y22750D02*
G01X8100Y22600D01*
G01X8100Y22600D02*
G01X7800Y22600D01*
G01X7800Y22600D02*
G01X7700Y22500D01*
G01X7700Y22500D02*
G01X7700Y22100D01*
G01X7700Y22100D02*
G01X8100Y21700D01*
G01X8100Y21700D02*
G01X8100Y21300D01*
G01X8100Y21300D02*
G01X8250Y21250D01*
G01X36374Y14098D02*
G01X36374Y14068D01*
G01X36374Y14068D02*
G01X36324Y14118D01*
G01X36324Y14118D02*
G01X35124Y14118D01*
G01X14624Y16118D02*
G01X13424Y16118D01*
G01X13424Y16118D02*
G01X13374Y16068D01*
G01X13374Y16068D02*
G01X13372Y16118D01*
G01X13576Y17750D02*
G01X13950Y17750D01*
G01X13950Y17750D02*
G01X14100Y17900D01*
G01X14100Y17900D02*
G01X14500Y17900D01*
G01X14500Y17900D02*
G01X14624Y17868D01*
G01X13576Y17750D02*
G01X13576Y17076D01*
G01X13576Y17076D02*
G01X13400Y16900D01*
G01X13400Y16900D02*
G01X13400Y16300D01*
G01X13400Y16300D02*
G01X13372Y16118D01*
G01X26124Y9368D02*
G01X26137Y10168D01*
G01X26137Y10168D02*
G01X26137Y10768D01*
G01X26137Y10768D02*
G01X26337Y10968D01*
G01X26337Y10968D02*
G01X26737Y10968D01*
G01X26737Y10968D02*
G01X26874Y11105D01*
G01X26874Y11105D02*
G01X26874Y11618D01*
G01X26124Y9368D02*
G01X24437Y9368D01*
G01X7000Y11500D02*
G01X6700Y11500D01*
G01X6700Y11500D02*
G01X6500Y11300D01*
G01X6500Y11300D02*
G01X6500Y10800D01*
G01X6500Y10800D02*
G01X6300Y10600D01*
G01X6300Y10600D02*
G01X6250Y10550D01*
G01X6250Y10550D02*
G01X6250Y9250D01*
G01X5663Y12734D02*
G01X5700Y12800D01*
G01X5700Y12800D02*
G01X6400Y12800D01*
G01X6400Y12800D02*
G01X7000Y12200D01*
G01X7000Y12200D02*
G01X7000Y11500D01*
G01X30374Y13098D02*
G01X30104Y13098D01*
G01X30104Y13098D02*
G01X29874Y12868D01*
G01X29874Y12868D02*
G01X28624Y12868D01*
G01X9374Y13476D02*
G01X9374Y13468D01*
G01X9374Y13468D02*
G01X10074Y13468D01*
G01X10074Y13468D02*
G01X10674Y12868D01*
G01X10674Y12868D02*
G01X11124Y12868D01*
G01X9374Y13476D02*
G01X9374Y13868D01*
G01X9374Y13868D02*
G01X9474Y13968D01*
G01X9474Y13968D02*
G01X10074Y13968D01*
G01X10074Y13968D02*
G01X10274Y14168D01*
G01X10274Y14168D02*
G01X10274Y15168D01*
G01X10274Y15168D02*
G01X10474Y15368D01*
G01X10474Y15368D02*
G01X10875Y15368D01*
G01X23624Y3618D02*
G01X23637Y3568D01*
G01X23637Y3568D02*
G01X23687Y3618D01*
G01X23687Y3618D02*
G01X25374Y3618D01*
G01X25374Y3618D02*
G01X25374Y5505D01*
G01X25374Y5505D02*
G01X25537Y5668D01*
G01X25537Y5668D02*
G01X26137Y5668D01*
G01X26137Y5668D02*
G01X26124Y5628D01*
G54D80*
G01X17000Y28400D03*
G54D79*
G01X17000Y28400D02*
G01X16954Y28354D01*
G01X16954Y28354D02*
G01X16954Y27972D01*
G01X50622Y15118D02*
G01X50674Y15068D01*
G01X50674Y15068D02*
G01X50624Y15018D01*
G01X50624Y15018D02*
G01X50624Y13868D01*
G01X51874Y14368D02*
G01X51874Y14168D01*
G01X51874Y14168D02*
G01X51574Y13868D01*
G01X51574Y13868D02*
G01X50624Y13868D01*
G01X48124Y13866D02*
G01X48872Y13866D01*
G54D80*
G01X48874Y13868D03*
G54D79*
G01X48872Y13866D02*
G01X48874Y13868D01*
G54D80*
G01X51174Y14468D03*
G54D79*
G01X51174Y14468D02*
G01X51174Y14168D01*
G01X51174Y14168D02*
G01X50674Y13668D01*
G01X50674Y13668D02*
G01X50624Y13868D01*
G01X12374Y13118D02*
G01X12174Y13168D01*
G01X12174Y13168D02*
G01X11974Y13168D01*
G01X11974Y13168D02*
G01X11774Y12968D01*
G01X11774Y12968D02*
G01X11774Y12568D01*
G01X11774Y12568D02*
G01X11474Y12268D01*
G01X11474Y12268D02*
G01X9374Y12268D01*
G01X9374Y12268D02*
G01X8574Y13068D01*
G01X8574Y13068D02*
G01X8574Y15274D01*
G01X8574Y15274D02*
G01X9000Y15700D01*
G01X9000Y15700D02*
G01X9000Y16200D01*
G01X9000Y16200D02*
G01X9000Y16250D01*
G01X15336Y12015D02*
G01X15300Y12000D01*
G54D80*
G01X15300Y11300D03*
G54D79*
G01X15300Y12000D02*
G01X15300Y11300D01*
G54D80*
G01X13100Y13100D03*
G54D79*
G01X13100Y13100D02*
G01X13081Y13118D01*
G01X13081Y13118D02*
G01X12374Y13118D01*
G01X41624Y23248D02*
G01X40694Y23248D01*
G01X40694Y23248D02*
G01X40674Y23268D01*
G01X40674Y23268D02*
G01X40624Y23118D01*
G01X41874Y27868D02*
G01X41874Y27168D01*
G01X41874Y27168D02*
G01X41174Y26468D01*
G01X41174Y26468D02*
G01X41174Y25868D01*
G01X41174Y25868D02*
G01X41124Y25866D01*
G01X41624Y23248D02*
G01X41854Y23248D01*
G01X41854Y23248D02*
G01X42074Y23468D01*
G01X42074Y23468D02*
G01X42074Y23868D01*
G01X42074Y23868D02*
G01X41474Y24468D01*
G01X41474Y24468D02*
G01X40774Y24468D01*
G01X40774Y24468D02*
G01X40474Y24768D01*
G01X40474Y24768D02*
G01X40474Y25468D01*
G01X40474Y25468D02*
G01X40774Y25768D01*
G01X40774Y25768D02*
G01X40974Y25768D01*
G01X40974Y25768D02*
G01X41124Y25866D01*
G01X16639Y27972D02*
G01X16639Y28360D01*
G54D80*
G01X16600Y28400D03*
G54D79*
G01X16639Y28360D02*
G01X16600Y28400D01*
G01X48624Y17366D02*
G01X48674Y17368D01*
G01X48674Y17368D02*
G01X49174Y17368D01*
G01X49174Y17368D02*
G01X49924Y16618D01*
G01X49924Y16618D02*
G01X50374Y16618D01*
G01X47124Y16618D02*
G01X47124Y17424D01*
G01X47124Y17424D02*
G01X47200Y17500D01*
G01X47200Y17500D02*
G01X47248Y17500D01*
G01X48624Y17366D02*
G01X48500Y17300D01*
G01X48500Y17300D02*
G01X48000Y17300D01*
G01X48000Y17300D02*
G01X47800Y17500D01*
G01X47800Y17500D02*
G01X47248Y17500D01*
G01X10750Y19000D02*
G01X10400Y19000D01*
G01X10400Y19000D02*
G01X10200Y19200D01*
G01X10200Y19200D02*
G01X10200Y20500D01*
G01X10200Y20500D02*
G01X10000Y20700D01*
G01X10000Y20700D02*
G01X10000Y21300D01*
G01X10000Y21300D02*
G01X9998Y21250D01*
G01X10000Y25501D02*
G01X10000Y25400D01*
G01X10000Y25400D02*
G01X10000Y25100D01*
G01X10000Y25100D02*
G01X9800Y24900D01*
G54D80*
G01X9800Y24600D03*
G54D79*
G01X9800Y24900D02*
G01X9800Y24600D01*
G54D80*
G01X9200Y22500D03*
G54D79*
G01X9200Y22500D02*
G01X10000Y21700D01*
G01X10000Y21700D02*
G01X10000Y21300D01*
G01X10000Y21300D02*
G01X9998Y21250D01*
G01X52750Y4000D02*
G01X51500Y4000D01*
G01X51500Y4000D02*
G01X51500Y4001D01*
G01X10750Y19000D02*
G01X10800Y18900D01*
G01X10800Y18900D02*
G01X10800Y18300D01*
G54D80*
G01X10600Y18100D03*
G54D79*
G01X10800Y18300D02*
G01X10600Y18100D01*
G54D80*
G01X50800Y4000D03*
G54D79*
G01X50800Y4000D02*
G01X51400Y4000D01*
G01X51400Y4000D02*
G01X51500Y4001D01*
G01X10750Y19000D02*
G01X10800Y18900D01*
G01X10800Y18900D02*
G01X10800Y18300D01*
G01X10800Y18300D02*
G01X10600Y18100D01*
G01X10600Y18100D02*
G01X10300Y18100D01*
G01X10300Y18100D02*
G01X10250Y18050D01*
G01X10250Y18050D02*
G01X10250Y17500D01*
G01X19437Y5618D02*
G01X19437Y4118D01*
G01X18000Y3326D02*
G01X17900Y3268D01*
G01X17900Y3268D02*
G01X18500Y3268D01*
G01X18500Y3268D02*
G01X18800Y3568D01*
G01X18800Y3568D02*
G01X18800Y3968D01*
G01X18800Y3968D02*
G01X18950Y4118D01*
G01X18950Y4118D02*
G01X19437Y4118D01*
G01X29624Y19368D02*
G01X29674Y19368D01*
G01X29674Y19368D02*
G01X29625Y19416D01*
G01X29625Y19416D02*
G01X29625Y21368D01*
G01X29624Y19368D02*
G01X29674Y19468D01*
G01X29674Y19468D02*
G01X30074Y19468D01*
G01X30074Y19468D02*
G01X30274Y19268D01*
G01X30274Y19268D02*
G01X30274Y18068D01*
G01X30274Y18068D02*
G01X31124Y17218D01*
G01X31124Y17218D02*
G01X31124Y16868D01*
G01X31622Y26118D02*
G01X31674Y26068D01*
G01X31674Y26068D02*
G01X31674Y25568D01*
G01X31674Y25568D02*
G01X30574Y24468D01*
G01X30574Y24468D02*
G01X30574Y22968D01*
G01X30574Y22968D02*
G01X29625Y22020D01*
G01X29625Y22020D02*
G01X29625Y21368D01*
G01X27423Y29250D02*
G01X27400Y29300D01*
G01X27400Y29300D02*
G01X27400Y29700D01*
G01X27400Y29700D02*
G01X27818Y30118D01*
G01X27818Y30118D02*
G01X29374Y30118D01*
G01X29374Y30118D02*
G01X29400Y30200D01*
G54D80*
G01X29400Y30800D03*
G54D79*
G01X29400Y30200D02*
G01X29400Y30800D01*
G54D80*
G01X32300Y26200D03*
G54D79*
G01X32300Y26200D02*
G01X32218Y26118D01*
G01X32218Y26118D02*
G01X31622Y26118D01*
G01X42644Y22868D02*
G01X42644Y22638D01*
G01X42644Y22638D02*
G01X42474Y22468D01*
G01X42474Y22468D02*
G01X42074Y22468D01*
G01X42074Y22468D02*
G01X41674Y22068D01*
G01X41674Y22068D02*
G01X41674Y21468D01*
G01X41674Y21468D02*
G01X41624Y21368D01*
G01X14277Y27185D02*
G01X14300Y27200D01*
G54D80*
G01X13400Y27200D03*
G54D79*
G01X14300Y27200D02*
G01X13400Y27200D01*
G54D80*
G01X13400Y24100D03*
G01X13400Y22500D03*
G54D79*
G01X13400Y24100D02*
G01X13400Y22500D01*
G01X53624Y16368D02*
G01X52974Y16368D01*
G01X52974Y16368D02*
G01X52774Y16168D01*
G01X52774Y16168D02*
G01X52774Y15568D01*
G01X52774Y15568D02*
G01X52374Y15168D01*
G01X52374Y15168D02*
G01X51974Y15168D01*
G01X51974Y15168D02*
G01X51874Y15116D01*
G01X18915Y23900D02*
G01X18900Y23900D01*
G01X18900Y23900D02*
G01X18900Y23400D01*
G01X18900Y23400D02*
G01X18300Y22800D01*
G54D80*
G01X14600Y22800D03*
G54D79*
G01X18300Y22800D02*
G01X14600Y22800D01*
G54D80*
G01X10400Y24800D03*
G54D79*
G01X10400Y24800D02*
G01X10100Y24500D01*
G01X10100Y24500D02*
G01X10100Y23600D01*
G01X10100Y23600D02*
G01X10000Y23498D01*
G01X39913Y5234D02*
G01X39900Y5300D01*
G01X39900Y5300D02*
G01X39900Y5600D01*
G01X39900Y5600D02*
G01X39750Y5750D01*
G01X39750Y5750D02*
G01X39750Y6100D01*
G01X39913Y5234D02*
G01X41334Y5234D01*
G01X41334Y5234D02*
G01X41400Y5300D01*
G01X41400Y5300D02*
G01X41413Y5234D01*
G01X41413Y5234D02*
G01X42365Y5234D01*
G01X42365Y5234D02*
G01X43500Y4100D01*
G01X43500Y4100D02*
G01X43500Y3300D01*
G01X43500Y3300D02*
G01X43498Y3250D01*
G01X30374Y21368D02*
G01X30374Y20825D01*
G01X30374Y20825D02*
G01X30900Y20300D01*
G01X30900Y20300D02*
G01X30900Y19400D01*
G01X30900Y19400D02*
G01X30874Y19368D01*
G01X31836Y21015D02*
G01X31800Y21000D01*
G01X31800Y21000D02*
G01X31100Y21000D01*
G01X31100Y21000D02*
G01X30731Y21368D01*
G01X30731Y21368D02*
G01X30374Y21368D01*
G54D81*
G01X46389Y24527D02*
G01X46374Y24568D01*
G01X46374Y24568D02*
G01X46374Y23468D01*
G01X46374Y23468D02*
G01X46108Y23202D01*
G01X46108Y23202D02*
G01X46108Y21868D01*
G54D79*
G01X14750Y27972D02*
G01X14750Y28250D01*
G01X14750Y28250D02*
G01X14600Y28400D01*
G01X14600Y28400D02*
G01X13600Y28400D01*
G01X13600Y28400D02*
G01X13000Y29000D01*
G01X13000Y29000D02*
G01X12400Y29000D01*
G01X12400Y29000D02*
G01X12000Y29400D01*
G01X12000Y29400D02*
G01X10300Y29400D01*
G01X10300Y29400D02*
G01X10100Y29600D01*
G01X10100Y29600D02*
G01X7500Y29600D01*
G01X7500Y29600D02*
G01X7300Y29800D01*
G01X7300Y29800D02*
G01X7300Y30200D01*
G01X7300Y30200D02*
G01X7250Y30250D01*
G01X27874Y8868D02*
G01X27874Y6868D01*
G01X27874Y8868D02*
G01X27874Y9568D01*
G01X27874Y9568D02*
G01X28574Y10268D01*
G01X28574Y10268D02*
G01X28574Y10768D01*
G01X28574Y10768D02*
G01X28622Y10868D01*
G01X28622Y10868D02*
G01X28622Y12022D01*
G54D80*
G01X28700Y12100D03*
G54D79*
G01X28622Y12022D02*
G01X28700Y12100D01*
G54D80*
G01X22700Y14000D03*
G01X22700Y15800D03*
G54D79*
G01X22700Y14000D02*
G01X22700Y15800D01*
G54D80*
G01X14800Y24300D03*
G54D79*
G01X14800Y24300D02*
G01X14800Y24800D01*
G01X14800Y24800D02*
G01X14750Y24822D01*
G01X8751Y1750D02*
G01X8700Y1700D01*
G01X8700Y1700D02*
G01X8700Y1300D01*
G01X8700Y1300D02*
G01X8800Y1200D01*
G01X8800Y1200D02*
G01X10700Y1200D01*
G01X10700Y1200D02*
G01X10750Y1250D01*
G01X10750Y1250D02*
G01X10750Y1750D01*
G01X7500Y2500D02*
G01X8500Y2500D01*
G01X8500Y2500D02*
G01X8700Y2300D01*
G01X8700Y2300D02*
G01X8700Y1800D01*
G01X8700Y1800D02*
G01X8751Y1750D01*
G01X36250Y1250D02*
G01X37050Y1250D01*
G01X37050Y1250D02*
G01X37500Y1700D01*
G01X37500Y1700D02*
G01X37500Y3200D01*
G01X37500Y3200D02*
G01X37500Y3250D01*
G01X37500Y3250D02*
G01X37500Y3300D01*
G01X37500Y3300D02*
G01X37500Y3800D01*
G01X37500Y3800D02*
G01X37800Y4100D01*
G01X37800Y4100D02*
G01X38700Y4100D01*
G01X38700Y4100D02*
G01X39550Y3250D01*
G01X39550Y3250D02*
G01X42750Y3250D01*
G01X36374Y20118D02*
G01X35324Y20118D01*
G01X35324Y20118D02*
G01X35174Y19968D01*
G01X35174Y19968D02*
G01X34174Y19968D01*
G01X34174Y19968D02*
G01X34224Y19896D01*
G01X38374Y21368D02*
G01X37774Y21368D01*
G01X37774Y21368D02*
G01X37374Y20968D01*
G01X37374Y20968D02*
G01X36674Y20968D01*
G01X36674Y20968D02*
G01X36374Y20668D01*
G01X36374Y20668D02*
G01X36374Y20118D01*
G01X33624Y26368D02*
G01X33624Y25224D01*
G01X33624Y25224D02*
G01X33000Y24600D01*
G01X33000Y24600D02*
G01X33000Y22500D01*
G01X33000Y22500D02*
G01X34200Y21300D01*
G01X34200Y21300D02*
G01X34200Y19800D01*
G01X34200Y19800D02*
G01X34224Y19896D01*
G01X31250Y24250D02*
G01X31250Y24550D01*
G01X31250Y24550D02*
G01X31500Y24800D01*
G01X31500Y24800D02*
G01X31800Y24800D01*
G01X31800Y24800D02*
G01X33200Y26200D01*
G01X33200Y26200D02*
G01X33600Y26200D01*
G01X33600Y26200D02*
G01X33624Y26368D01*
G54D81*
G01X49608Y25709D02*
G01X49674Y25768D01*
G01X49674Y25768D02*
G01X49614Y25709D01*
G01X49614Y25709D02*
G01X47374Y25709D01*
G01X47374Y25709D02*
G01X47374Y21868D01*
G54D82*
G01X45750Y19500D02*
G01X45750Y20150D01*
G01X45750Y20150D02*
G01X46300Y20700D01*
G01X46300Y20700D02*
G01X47000Y20700D01*
G01X47000Y20700D02*
G01X47300Y21000D01*
G01X47300Y21000D02*
G01X47300Y21800D01*
G01X47300Y21800D02*
G01X47374Y21868D01*
G54D79*
G01X15064Y27972D02*
G01X15064Y28435D01*
G01X15064Y28435D02*
G01X14900Y28600D01*
G01X14900Y28600D02*
G01X13700Y28600D01*
G01X13700Y28600D02*
G01X13100Y29200D01*
G01X13100Y29200D02*
G01X12500Y29200D01*
G01X12500Y29200D02*
G01X12100Y29600D01*
G01X12100Y29600D02*
G01X10500Y29600D01*
G01X10500Y29600D02*
G01X10200Y29900D01*
G01X10200Y29900D02*
G01X10200Y30200D01*
G01X10200Y30200D02*
G01X10250Y30250D01*

G04 Draw clearances for text*
G54D83*
G01X43500Y13813D02*
G01X43500Y13250D01*
G01X43500Y13813D02*
G01X43741Y13813D01*
G01X43741Y13813D02*
G01X43822Y13786D01*
G01X43822Y13786D02*
G01X43848Y13760D01*
G01X43848Y13760D02*
G01X43875Y13706D01*
G01X43875Y13706D02*
G01X43875Y13652D01*
G01X43875Y13652D02*
G01X43848Y13598D01*
G01X43848Y13598D02*
G01X43822Y13572D01*
G01X43822Y13572D02*
G01X43741Y13545D01*
G01X43741Y13545D02*
G01X43500Y13545D01*
G01X43687Y13545D02*
G01X43875Y13250D01*
G01X44090Y13464D02*
G01X44412Y13464D01*
G01X44412Y13464D02*
G01X44412Y13518D01*
G01X44412Y13518D02*
G01X44385Y13572D01*
G01X44385Y13572D02*
G01X44358Y13598D01*
G01X44358Y13598D02*
G01X44305Y13625D01*
G01X44305Y13625D02*
G01X44224Y13625D01*
G01X44224Y13625D02*
G01X44171Y13598D01*
G01X44171Y13598D02*
G01X44117Y13545D01*
G01X44117Y13545D02*
G01X44090Y13464D01*
G01X44090Y13464D02*
G01X44090Y13411D01*
G01X44090Y13411D02*
G01X44117Y13330D01*
G01X44117Y13330D02*
G01X44171Y13276D01*
G01X44171Y13276D02*
G01X44224Y13250D01*
G01X44224Y13250D02*
G01X44305Y13250D01*
G01X44305Y13250D02*
G01X44358Y13276D01*
G01X44358Y13276D02*
G01X44412Y13330D01*
G01X44627Y13625D02*
G01X44788Y13250D01*
G01X44949Y13625D02*
G01X44788Y13250D01*
G01X45808Y13813D02*
G01X45593Y13250D01*
G01X45808Y13813D02*
G01X46023Y13250D01*
G01X45674Y13437D02*
G01X45942Y13437D01*
G01X43526Y12929D02*
G01X43526Y12956D01*
G01X43526Y12956D02*
G01X43553Y13010D01*
G01X43553Y13010D02*
G01X43580Y13036D01*
G01X43580Y13036D02*
G01X43634Y13063D01*
G01X43634Y13063D02*
G01X43741Y13063D01*
G01X43741Y13063D02*
G01X43795Y13036D01*
G01X43795Y13036D02*
G01X43822Y13010D01*
G01X43822Y13010D02*
G01X43848Y12956D01*
G01X43848Y12956D02*
G01X43848Y12902D01*
G01X43848Y12902D02*
G01X43822Y12848D01*
G01X43822Y12848D02*
G01X43768Y12768D01*
G01X43768Y12768D02*
G01X43500Y12500D01*
G01X43500Y12500D02*
G01X43875Y12500D01*
G01X44251Y13063D02*
G01X44171Y13036D01*
G01X44171Y13036D02*
G01X44117Y12956D01*
G01X44117Y12956D02*
G01X44090Y12822D01*
G01X44090Y12822D02*
G01X44090Y12741D01*
G01X44090Y12741D02*
G01X44117Y12607D01*
G01X44117Y12607D02*
G01X44171Y12526D01*
G01X44171Y12526D02*
G01X44251Y12500D01*
G01X44251Y12500D02*
G01X44305Y12500D01*
G01X44305Y12500D02*
G01X44385Y12526D01*
G01X44385Y12526D02*
G01X44439Y12607D01*
G01X44439Y12607D02*
G01X44466Y12741D01*
G01X44466Y12741D02*
G01X44466Y12822D01*
G01X44466Y12822D02*
G01X44439Y12956D01*
G01X44439Y12956D02*
G01X44385Y13036D01*
G01X44385Y13036D02*
G01X44305Y13063D01*
G01X44305Y13063D02*
G01X44251Y13063D01*
G01X44681Y12956D02*
G01X44734Y12983D01*
G01X44734Y12983D02*
G01X44815Y13063D01*
G01X44815Y13063D02*
G01X44815Y12500D01*
G01X45030Y12956D02*
G01X45083Y12983D01*
G01X45083Y12983D02*
G01X45164Y13063D01*
G01X45164Y13063D02*
G01X45164Y12500D01*

G04 -------------- Draw Parts, Pads, Traces, Vias and Text (positive)*
%LPD*%
G04 Draw part C16*
G54D84*
G01X39500Y18000D03*
G01X38751Y18000D03*
G04 Draw part C17*
G01X23374Y16618D03*
G01X22625Y16618D03*
G04 Draw part C20*
G01X22124Y18368D03*
G01X22872Y18368D03*
G04 Draw part C18*
G01X19374Y17118D03*
G01X18625Y17118D03*
G04 Draw part C23*
G01X16374Y17118D03*
G01X17122Y17118D03*
G04 Draw part Q6*
G54D85*
G01X26124Y15618D03*
G01X26950Y15618D03*
G54D86*
G01X26537Y16602D03*
G04 Draw part Q5*
G54D87*
G01X27874Y17118D03*
G01X27874Y16291D03*
G54D88*
G01X28858Y16705D03*
G04 Draw part Q7*
G54D85*
G01X24124Y14118D03*
G01X23297Y14118D03*
G54D86*
G01X23710Y13134D03*
G04 Draw part R13*
G54D89*
G01X24624Y16618D03*
G01X24624Y15870D03*
G04 Draw part R15*
G01X26624Y13368D03*
G01X26624Y14116D03*
G04 Draw part R17*
G01X25374Y14118D03*
G01X25374Y13370D03*
G04 Draw part R14*
G01X13624Y20368D03*
G01X13624Y21116D03*
G04 Draw part Q4*
G54D85*
G01X12750Y17750D03*
G01X13576Y17750D03*
G54D86*
G01X13163Y18734D03*
G04 Draw part Q3*
G54D85*
G01X12000Y17750D03*
G01X11173Y17750D03*
G54D86*
G01X11586Y16765D03*
G04 Draw part R16*
G54D90*
G01X14624Y17868D03*
G01X15372Y17868D03*
G04 Draw part R12*
G01X12624Y16118D03*
G01X13372Y16118D03*
G04 Draw part C24*
G54D84*
G01X14624Y16118D03*
G01X15372Y16118D03*
G04 Draw part R5*
G54D90*
G01X11624Y15368D03*
G01X10875Y15368D03*
G04 Draw part C12*
G54D91*
G01X11124Y12868D03*
G01X11124Y13616D03*
G04 Draw part C14*
G01X9000Y16250D03*
G01X9000Y16998D03*
G04 Draw part R10*
G54D89*
G01X12374Y13118D03*
G01X12374Y12370D03*
G04 Draw part Q2*
G54D85*
G01X15750Y13000D03*
G01X14923Y13000D03*
G54D86*
G01X15336Y12015D03*
G04 Draw part Q1*
G54D85*
G01X17374Y14868D03*
G01X16547Y14868D03*
G54D86*
G01X16960Y13884D03*
G04 Draw part R11*
G54D89*
G01X13874Y13118D03*
G01X13874Y12370D03*
G04 Draw part R9*
G54D90*
G01X18374Y15368D03*
G01X19122Y15368D03*
G04 Draw part C19*
G54D84*
G01X12374Y11368D03*
G01X13122Y11368D03*
G04 Draw part C13*
G01X20124Y15368D03*
G01X20872Y15368D03*
G04 Draw part C1*
G54D91*
G01X20124Y13368D03*
G01X20124Y12620D03*
G04 Draw part R1*
G54D89*
G01X21374Y12618D03*
G01X21374Y13366D03*
G04 Draw part C2*
G54D91*
G01X17124Y11618D03*
G01X17124Y12366D03*
G04 Draw part C7*
G54D84*
G01X17374Y10368D03*
G01X16625Y10368D03*
G04 Draw part C3*
G01X26874Y11618D03*
G01X26125Y11618D03*
G04 Draw part C8*
G01X24437Y9368D03*
G01X23688Y9368D03*
G04 Draw part C9*
G01X25374Y3618D03*
G01X26122Y3618D03*
G04 Draw part C4*
G54D91*
G01X19437Y4118D03*
G01X19437Y3370D03*
G04 Draw part C10*
G54D84*
G01X21374Y9368D03*
G01X20625Y9368D03*
G04 Draw part C11*
G54D91*
G01X19437Y5618D03*
G01X19437Y6366D03*
G04 Draw part R2*
G54D89*
G01X46500Y2500D03*
G01X46500Y1751D03*
G04 Draw part R6*
G01X47750Y1750D03*
G01X47750Y2498D03*
G04 Draw part R3*
G01X51500Y4750D03*
G01X51500Y4001D03*
G04 Draw part R7*
G01X52750Y4000D03*
G01X52750Y4748D03*
G04 Draw part R4*
G01X2000Y5500D03*
G01X2000Y6248D03*
G04 Draw part R8*
G01X1000Y5500D03*
G01X1000Y6248D03*
G04 Draw part C5*
G54D91*
G01X10250Y17500D03*
G01X10250Y16751D03*
G04 Draw part C42*
G01X18187Y8618D03*
G01X18187Y7870D03*
G04 Draw part R39*
G54D89*
G01X16687Y8618D03*
G01X16687Y7870D03*
G04 Draw part Q12*
G54D85*
G01X15000Y9250D03*
G01X15826Y9250D03*
G54D86*
G01X15413Y10234D03*
G04 Draw part Q11*
G54D85*
G01X13500Y8750D03*
G01X14326Y8750D03*
G54D86*
G01X13913Y9734D03*
G04 Draw part R40*
G54D89*
G01X15250Y7750D03*
G01X15250Y7001D03*
G04 Draw part R34*
G01X11500Y7750D03*
G01X11500Y8498D03*
G04 Draw part C46*
G54D84*
G01X3750Y4250D03*
G01X3001Y4250D03*
G04 Draw part C38*
G01X3000Y6250D03*
G01X3748Y6250D03*
G04 Draw part R24*
G54D89*
G01X8250Y12250D03*
G01X8250Y11501D03*
G04 Draw part C36*
G54D91*
G01X10250Y8500D03*
G01X10250Y7751D03*
G04 Draw part C41*
G54D84*
G01X10750Y1750D03*
G01X11498Y1750D03*
G04 Draw part C44*
G54D91*
G01X5250Y1750D03*
G01X5250Y2498D03*
G04 Draw part C15*
G54D84*
G01X13624Y14868D03*
G01X14372Y14868D03*
G04 Draw part R33*
G54D89*
G01X6250Y9250D03*
G01X6250Y8501D03*
G04 Draw part Q9*
G54D85*
G01X5250Y11750D03*
G01X6076Y11750D03*
G54D86*
G01X5663Y12734D03*
G04 Draw part Q8*
G54D85*
G01X5000Y10250D03*
G01X4173Y10250D03*
G54D86*
G01X4586Y9265D03*
G04 Draw part R35*
G54D90*
G01X5250Y7000D03*
G01X5998Y7000D03*
G04 Draw part R32*
G01X3000Y8000D03*
G01X3748Y8000D03*
G04 Draw part R19*
G01X9750Y18750D03*
G01X9001Y18750D03*
G04 Draw part C30*
G54D91*
G01X7750Y17000D03*
G01X7750Y16251D03*
G04 Draw part R22*
G54D89*
G01X7750Y14000D03*
G01X7750Y14748D03*
G04 Draw part R25*
G54D90*
G01X5750Y19250D03*
G01X6498Y19250D03*
G04 Draw part U1*
G54D92*
G01X6000Y23250D03*
G01X6500Y23250D03*
G01X7000Y23250D03*
G01X7500Y23250D03*
G01X7500Y25218D03*
G01X7000Y25218D03*
G01X6500Y25218D03*
G01X6000Y25218D03*
G04 Draw part R28*
G54D89*
G01X6500Y21250D03*
G01X6500Y20501D03*
G04 Draw part R21*
G54D90*
G01X4250Y21750D03*
G01X4998Y21750D03*
G04 Draw part D3*
G54D93*
G01X5500Y20750D03*
G01X4050Y20750D03*
G04 Draw part D2*
G01X3250Y19500D03*
G01X4700Y19500D03*
G04 Draw part R18*
G54D90*
G01X4250Y26000D03*
G01X4998Y26000D03*
G04 Draw part C31*
G54D84*
G01X4250Y24000D03*
G01X4998Y24000D03*
G04 Draw part Q10*
G54D87*
G01X2250Y18750D03*
G01X2250Y19576D03*
G54D88*
G01X1265Y19163D03*
G04 Draw part R36*
G54D89*
G01X3000Y17250D03*
G01X3000Y16501D03*
G04 Draw part R27*
G54D94*
G01X1250Y23000D03*
G54D95*
G01X1250Y22000D03*
G01X1250Y21000D03*
G04 Draw part C33*
G54D84*
G01X8250Y21250D03*
G01X7501Y21250D03*
G04 Draw part C25*
G01X4250Y22750D03*
G01X4998Y22750D03*
G04 Draw part R29*
G54D90*
G01X9250Y21250D03*
G01X9998Y21250D03*
G04 Draw part R20*
G54D89*
G01X10750Y19000D03*
G01X10750Y19748D03*
G04 Draw part C29*
G54D91*
G01X10000Y22750D03*
G01X10000Y23498D03*
G04 Draw part C32*
G01X8500Y25750D03*
G01X8500Y25001D03*
G04 Draw part R30*
G54D89*
G01X10000Y26250D03*
G01X10000Y25501D03*
G04 Draw part R26*
G54D90*
G01X9250Y27750D03*
G01X9998Y27750D03*
G04 Draw part R31*
G01X8750Y20000D03*
G01X9498Y20000D03*
G04 Draw part R23*
G01X6250Y28250D03*
G01X6998Y28250D03*
G04 Draw part C28*
G54D84*
G01X6250Y27250D03*
G01X6998Y27250D03*
G04 Draw part J1*
G54D94*
G01X1187Y27118D03*
G54D95*
G01X1187Y26118D03*
G01X1187Y25118D03*
G04 Draw part Q13*
G54D85*
G01X7500Y2500D03*
G01X6673Y2500D03*
G54D86*
G01X7086Y1515D03*
G04 Draw part R37*
G54D90*
G01X9500Y1750D03*
G01X8751Y1750D03*
G04 Draw part R41*
G54D89*
G01X3750Y2500D03*
G01X3750Y1751D03*
G04 Draw part L7*
G54D90*
G01X10750Y3000D03*
G01X11498Y3000D03*
G04 Draw part C43*
G54D91*
G01X18187Y5618D03*
G01X18187Y6366D03*
G04 Draw part C45*
G01X14250Y7750D03*
G01X14250Y7001D03*
G04 Draw part R38*
G54D90*
G01X12750Y1750D03*
G01X13498Y1750D03*
G04 Draw part C37*
G54D91*
G01X7000Y11500D03*
G01X7000Y10751D03*
G04 Draw part C47*
G01X16750Y6218D03*
G01X16750Y5470D03*
G04 Draw part R64*
G54D90*
G01X42750Y3250D03*
G01X43498Y3250D03*
G04 Draw part R69*
G54D89*
G01X29874Y4868D03*
G01X29874Y4120D03*
G04 Draw part Q21*
G54D85*
G01X38750Y10500D03*
G01X37923Y10500D03*
G54D86*
G01X38336Y9515D03*
G04 Draw part R61*
G54D89*
G01X34500Y5500D03*
G01X34500Y4751D03*
G04 Draw part C75*
G54D84*
G01X46624Y7118D03*
G01X47372Y7118D03*
G04 Draw part R66*
G54D89*
G01X31124Y4868D03*
G01X31124Y4120D03*
G04 Draw part L16*
G54D90*
G01X33624Y8118D03*
G01X32875Y8118D03*
G04 Draw part R62*
G01X27874Y10868D03*
G01X28622Y10868D03*
G04 Draw part D7*
G54D85*
G01X41000Y4250D03*
G01X41826Y4250D03*
G54D86*
G01X41413Y5234D03*
G04 Draw part D6*
G54D85*
G01X39500Y4250D03*
G01X40326Y4250D03*
G54D86*
G01X39913Y5234D03*
G04 Draw part C87*
G54D96*
G01X38874Y13068D03*
G01X38874Y16572D03*
G04 Draw part R65*
G54D90*
G01X32374Y9868D03*
G01X33122Y9868D03*
G04 Draw part D5*
G54D87*
G01X48274Y10168D03*
G01X48274Y10995D03*
G54D88*
G01X47289Y10581D03*
G04 Draw part C76*
G54D91*
G01X36000Y5500D03*
G01X36000Y4751D03*
G04 Draw part R57*
G54D89*
G01X47674Y8268D03*
G01X47674Y9016D03*
G04 Draw part R60*
G01X37500Y4750D03*
G01X37500Y5498D03*
G04 Draw part R56*
G54D94*
G01X39000Y1250D03*
G54D95*
G01X40000Y1250D03*
G01X41000Y1250D03*
G04 Draw part C74*
G54D97*
G01X53624Y24368D03*
G01X53624Y25352D03*
G04 Draw part R58*
G54D90*
G01X50000Y6500D03*
G01X50748Y6500D03*
G04 Draw part Q20*
G54D85*
G01X50000Y5000D03*
G01X49173Y5000D03*
G54D86*
G01X49586Y4015D03*
G04 Draw part R59*
G54D90*
G01X46624Y6118D03*
G01X47372Y6118D03*
G04 Draw part Q15*
G54D85*
G01X28250Y29250D03*
G01X27423Y29250D03*
G54D86*
G01X27836Y28265D03*
G04 Draw part R45*
G54D89*
G01X38374Y27368D03*
G01X38374Y28116D03*
G04 Draw part C54*
G54D84*
G01X41874Y27868D03*
G01X42622Y27868D03*
G04 Draw part R53*
G54D89*
G01X33624Y18118D03*
G01X33624Y17370D03*
G04 Draw part L10*
G01X28374Y18868D03*
G01X28374Y18120D03*
G04 Draw part C59*
G54D84*
G01X37874Y29868D03*
G01X38622Y29868D03*
G04 Draw part C61*
G01X30374Y21368D03*
G01X29625Y21368D03*
G04 Draw part R49*
G54D89*
G01X40624Y23118D03*
G01X40624Y22370D03*
G04 Draw part C63*
G54D96*
G01X24874Y18618D03*
G01X24874Y22122D03*
G04 Draw part C60*
G54D84*
G01X30874Y26118D03*
G01X31622Y26118D03*
G04 Draw part R52*
G54D90*
G01X29374Y30118D03*
G01X30122Y30118D03*
G04 Draw part Q17*
G54D85*
G01X32250Y22000D03*
G01X31423Y22000D03*
G54D86*
G01X31836Y21015D03*
G04 Draw part Q16*
G54D87*
G01X31250Y24250D03*
G01X31250Y23423D03*
G54D88*
G01X32234Y23836D03*
G04 Draw part R54*
G54D89*
G01X41124Y19618D03*
G01X41124Y18870D03*
G04 Draw part R51*
G01X30874Y19368D03*
G01X30874Y18620D03*
G04 Draw part C64*
G54D91*
G01X26874Y18868D03*
G01X26874Y18120D03*
G04 Draw part R42*
G54D89*
G01X35374Y23868D03*
G01X35374Y23120D03*
G04 Draw part C49*
G54D98*
G01X13000Y3500D03*
G01X16503Y3500D03*
G04 Draw part Q22*
G54D85*
G01X31250Y7250D03*
G01X30423Y7250D03*
G54D86*
G01X30836Y6265D03*
G04 Draw part R67*
G54D90*
G01X27874Y8868D03*
G01X28622Y8868D03*
G04 Draw part R70*
G01X21624Y29618D03*
G01X22372Y29618D03*
G04 Draw part C79*
G54D91*
G01X33124Y12368D03*
G01X33124Y11620D03*
G04 Draw part C88*
G54D84*
G01X37500Y3250D03*
G01X38248Y3250D03*
G04 Draw part R63*
G54D94*
G01X34250Y1250D03*
G54D95*
G01X35250Y1250D03*
G01X36250Y1250D03*
G04 Draw part R68*
G54D90*
G01X35250Y3250D03*
G01X34501Y3250D03*
G04 Draw part C56*
G54D96*
G01X33624Y26368D03*
G01X33624Y29872D03*
G04 Draw part C52*
G54D91*
G01X42874Y25118D03*
G01X42874Y25866D03*
G04 Draw part C58*
G54D96*
G01X36124Y26368D03*
G01X36124Y29872D03*
G04 Draw part R46*
G54D90*
G01X41624Y21368D03*
G01X42372Y21368D03*
G04 Draw part Q14*
G54D85*
G01X38750Y24750D03*
G01X39576Y24750D03*
G54D86*
G01X39163Y25734D03*
G04 Draw part R48*
G54D89*
G01X29874Y24118D03*
G01X29874Y23370D03*
G04 Draw part C50*
G54D91*
G01X33624Y23118D03*
G01X33624Y23866D03*
G04 Draw part C53*
G54D84*
G01X38374Y21368D03*
G01X39122Y21368D03*
G04 Draw part R44*
G54D89*
G01X31874Y28618D03*
G01X31874Y27870D03*
G04 Draw part R50*
G54D90*
G01X33124Y19868D03*
G01X32375Y19868D03*
G04 Draw part U3*
G54D99*
G01X41624Y23618D03*
G01X41624Y23248D03*
G01X41624Y22868D03*
G01X42644Y22868D03*
G01X42644Y23618D03*
G04 Draw part R47*
G54D90*
G01X39624Y27868D03*
G01X40372Y27868D03*
G04 Draw part R43*
G54D89*
G01X41124Y25118D03*
G01X41124Y25866D03*
G04 Draw part R55*
G54D90*
G01X47500Y5000D03*
G01X48248Y5000D03*
G04 Draw part Q18*
G54D100*
G01X50550Y29000D03*
G01X50000Y28500D03*
G01X49450Y29000D03*
G04 Draw part Q19*
G01X47550Y29000D03*
G01X47000Y28500D03*
G01X46450Y29000D03*
G04 Draw part C70*
G54D97*
G01X45124Y21868D03*
G01X46108Y21868D03*
G04 Draw part C71*
G01X44500Y28000D03*
G01X44500Y28984D03*
G04 Draw part C69*
G54D91*
G01X43874Y22368D03*
G01X43874Y21620D03*
G04 Draw part C72*
G54D97*
G01X45750Y19500D03*
G01X44765Y19500D03*
G04 Draw part C65*
G54D91*
G01X32374Y18118D03*
G01X32374Y17370D03*
G04 Draw part C66*
G54D97*
G01X47374Y21868D03*
G01X48358Y21868D03*
G04 Draw part C73*
G01X48000Y19500D03*
G01X47015Y19500D03*
G04 Draw part U5*
G54D101*
G01X14277Y27500D03*
G01X14277Y27185D03*
G01X14277Y26870D03*
G01X14277Y26555D03*
G01X14277Y26240D03*
G01X14277Y25925D03*
G01X14277Y25610D03*
G01X14277Y25295D03*
G54D102*
G01X14750Y24822D03*
G01X15064Y24822D03*
G01X15379Y24822D03*
G01X15694Y24822D03*
G01X16009Y24822D03*
G01X16324Y24822D03*
G01X16639Y24822D03*
G01X16954Y24822D03*
G54D101*
G01X17427Y25295D03*
G01X17427Y25610D03*
G01X17427Y25925D03*
G01X17427Y26240D03*
G01X17427Y26555D03*
G01X17427Y26870D03*
G01X17427Y27185D03*
G01X17427Y27500D03*
G54D102*
G01X16954Y27972D03*
G01X16639Y27972D03*
G01X16324Y27972D03*
G01X16009Y27972D03*
G01X15694Y27972D03*
G01X15379Y27972D03*
G01X15064Y27972D03*
G01X14750Y27972D03*
G04 Draw part R71*
G54D90*
G01X24374Y23868D03*
G01X23625Y23868D03*
G04 Draw part C89*
G54D84*
G01X27874Y4868D03*
G01X28622Y4868D03*
G04 Draw part J3*
G54D94*
G01X12500Y30250D03*
G54D95*
G01X13500Y30250D03*
G01X14500Y30250D03*
G04 Draw part C90*
G54D84*
G01X17750Y28500D03*
G01X18498Y28500D03*
G04 Draw part C96*
G01X12124Y28368D03*
G01X11375Y28368D03*
G04 Draw part C95*
G01X15500Y23750D03*
G01X16248Y23750D03*
G04 Draw part R76*
G54D90*
G01X20750Y28500D03*
G01X21498Y28500D03*
G04 Draw part R75*
G54D89*
G01X22000Y27000D03*
G01X22000Y26251D03*
G04 Draw part C100*
G54D84*
G01X28624Y12868D03*
G01X27875Y12868D03*
G04 Draw part C101*
G54D91*
G01X20500Y24750D03*
G01X20500Y24001D03*
G04 Draw part Q23*
G54D85*
G01X25374Y23868D03*
G01X26200Y23868D03*
G54D86*
G01X25787Y24852D03*
G04 Draw part R72*
G54D90*
G01X15624Y29618D03*
G01X16372Y29618D03*
G04 Draw part R73*
G01X17624Y29618D03*
G01X18372Y29618D03*
G04 Draw part R74*
G54D89*
G01X22000Y24750D03*
G01X22000Y24001D03*
G04 Draw part C94*
G54D84*
G01X34874Y12868D03*
G01X35622Y12868D03*
G04 Draw part U4*
G54D103*
G01X37124Y15118D03*
G01X36754Y15118D03*
G01X36374Y15118D03*
G01X36374Y14098D03*
G01X37124Y14098D03*
G04 Draw part U6*
G01X31124Y14118D03*
G01X30754Y14118D03*
G01X30374Y14118D03*
G01X30374Y13098D03*
G01X31124Y13098D03*
G04 Draw part C92*
G54D91*
G01X35374Y16618D03*
G01X35374Y17366D03*
G04 Draw part C99*
G54D84*
G01X27874Y14868D03*
G01X28622Y14868D03*
G04 Draw part C98*
G01X30374Y10868D03*
G01X31122Y10868D03*
G04 Draw part C91*
G54D91*
G01X18500Y27000D03*
G01X18500Y26251D03*
G04 Draw part C93*
G01X35124Y14118D03*
G01X35124Y14866D03*
G04 Draw part C97*
G54D84*
G01X12500Y20250D03*
G01X11751Y20250D03*
G04 Draw part Q24*
G54D85*
G01X50624Y13868D03*
G01X49797Y13868D03*
G54D86*
G01X50210Y12884D03*
G04 Draw part Q25*
G54D85*
G01X47124Y16618D03*
G01X46297Y16618D03*
G54D86*
G01X46710Y15634D03*
G04 Draw part R79*
G54D90*
G01X46500Y17500D03*
G01X47248Y17500D03*
G04 Draw part R81*
G54D89*
G01X50374Y16618D03*
G01X50374Y17366D03*
G04 Draw part R80*
G01X51874Y14368D03*
G01X51874Y15116D03*
G04 Draw part C102*
G54D91*
G01X20500Y27000D03*
G01X20500Y26251D03*
G04 Draw part D9*
G54D104*
G01X53624Y16368D03*
G01X53624Y17818D03*
G04 Draw part C21*
G54D96*
G01X20124Y18618D03*
G01X20124Y22122D03*
G04 Draw part C22*
G01X17624Y18618D03*
G01X17624Y22122D03*
G04 Draw part C48*
G54D84*
G01X16000Y1750D03*
G01X16748Y1750D03*
G04 Draw part C62*
G54D91*
G01X29624Y19368D03*
G01X29624Y18620D03*
G04 Draw part C55*
G01X30124Y27868D03*
G01X30124Y28616D03*
G04 Draw part C57*
G54D84*
G01X36374Y20118D03*
G01X37122Y20118D03*
G04 Draw part C39*
G54D91*
G01X12750Y8500D03*
G01X12750Y7751D03*
G04 Draw part TP1*
G54D94*
G01X5000Y4500D03*
G04 Draw part C77*
G54D84*
G01X47500Y12000D03*
G01X46751Y12000D03*
G04 Draw part C84*
G01X32250Y6000D03*
G01X32998Y6000D03*
G04 Draw part C80*
G01X31124Y8868D03*
G01X30375Y8868D03*
G04 Draw part C82*
G01X27874Y6868D03*
G01X28622Y6868D03*
G04 Draw part C51*
G01X39374Y22868D03*
G01X38625Y22868D03*
G04 Draw part C67*
G54D97*
G01X49874Y21868D03*
G01X50858Y21868D03*
G04 Draw part TP5*
G54D94*
G01X33000Y4000D03*
G04 Draw part TP6*
G01X27874Y3368D03*
G04 Draw part TP4*
G01X31124Y16868D03*
G04 Draw part TP3*
G01X42624Y29868D03*
G04 Draw part TP2*
G01X39874Y19368D03*
G04 Draw part R78*
G54D90*
G01X49874Y15118D03*
G01X50622Y15118D03*
G04 Draw part C104*
G54D91*
G01X48124Y13118D03*
G01X48124Y13866D03*
G04 Draw part C105*
G01X48624Y16618D03*
G01X48624Y17366D03*
G04 Draw part D10*
G54D104*
G01X51874Y16618D03*
G01X51874Y18068D03*
G04 Draw part TP7*
G54D94*
G01X36874Y16618D03*
G04 Draw part TP8*
G01X33374Y14368D03*
G04 Draw part D8*
G54D105*
G01X52250Y12000D03*
G01X53500Y12000D03*
G04 Draw part C6*
G54D106*
G01X1500Y10000D03*
G01X1500Y8307D03*
G04 Draw part C40*
G54D107*
G01X3850Y12750D03*
G01X1450Y12750D03*
G04 Draw part C27*
G54D108*
G01X5250Y14900D03*
G01X5250Y17600D03*
G04 Draw part C26*
G54D84*
G01X4250Y25000D03*
G01X4998Y25000D03*
G04 Draw part C34*
G54D109*
G01X4250Y29850D03*
G01X4250Y27450D03*
G04 Draw part C35*
G01X8250Y9350D03*
G01X8250Y6950D03*
G04 Draw part C68*
G01X43000Y18600D03*
G01X43000Y16200D03*
G04 Draw part C103*
G54D110*
G01X53350Y9000D03*
G01X50650Y9000D03*
G04 Draw part C78*
G54D111*
G01X37674Y7868D03*
G01X34974Y7868D03*
G04 Draw part C83*
G01X36924Y10868D03*
G01X34224Y10868D03*
G04 Draw part C86*
G01X45500Y7700D03*
G01X45500Y10400D03*
G04 Draw part C85*
G01X43750Y8800D03*
G01X43750Y6100D03*
G04 Draw part C81*
G01X39750Y8800D03*
G01X39750Y6100D03*
G04 Draw part D1*
G54D112*
G01X11124Y11368D03*
G01X9746Y11368D03*
G54D113*
G01X10424Y11668D03*
G04 Draw part D4*
G54D112*
G01X15437Y5118D03*
G01X14059Y5118D03*
G54D113*
G01X14737Y5418D03*
G04 Draw part S2*
G54D94*
G01X7250Y30250D03*
G54D95*
G01X8250Y30250D03*
G04 Draw part S1*
G54D94*
G01X10250Y30250D03*
G54D95*
G01X11250Y30250D03*
G04 Draw part X1*
G54D114*
G01X19374Y11118D03*
G01X23114Y11118D03*
G04 Draw part X2*
G54D115*
G01X26124Y9368D03*
G01X26124Y5628D03*
G04 Draw part X3*
G01X23624Y3618D03*
G01X23624Y7358D03*
G04 Draw part X4*
G01X21124Y7368D03*
G01X21124Y3628D03*
G04 Draw part X5*
G54D114*
G01X7000Y4750D03*
G01X10740Y4750D03*
G04 Draw part X6*
G54D115*
G01X27874Y25368D03*
G01X27874Y21628D03*
G04 Draw part X7*
G01X11624Y26368D03*
G01X11624Y22628D03*
G04 Draw part R77*
G54D116*
G01X19250Y25000D03*
G01X18580Y25000D03*
G54D117*
G01X18915Y23900D03*
G04 Draw part U2*
G54D118*
G01X8250Y23750D03*
G01X8250Y23375D03*
G01X8250Y23001D03*
G01X9116Y23001D03*
G01X9116Y23375D03*
G01X9116Y23750D03*
G04 Draw part L3*
G54D111*
G01X22774Y21590D03*
G01X21874Y20646D03*
G04 Draw part L4*
G01X15774Y21340D03*
G01X14874Y20396D03*
G04 Draw part L8*
G01X34224Y19896D03*
G01X35124Y20840D03*
G04 Draw part L9*
G01X36474Y23146D03*
G01X37374Y24090D03*
G04 Draw part L2*
G01X9374Y14618D03*
G01X9374Y13476D03*
G04 Draw part L1*
G01X18624Y12618D03*
G01X18624Y13760D03*
G04 Draw part L6*
G01X18000Y4468D03*
G01X18000Y3326D03*
G04 Draw part L5*
G01X12250Y9750D03*
G01X11108Y9750D03*
G04 Draw part L11*
G01X45124Y25709D03*
G01X44139Y24527D03*
G04 Draw part L12*
G01X47374Y25709D03*
G01X46389Y24527D03*
G04 Draw part L13*
G01X48624Y24527D03*
G01X49608Y25709D03*
G04 Draw part L14*
G01X50874Y24527D03*
G01X51858Y25709D03*
G04 Draw part L15*
G01X42100Y13000D03*
G01X40918Y13000D03*
G04 Draw part J2*
G54D119*
G01X53124Y22368D03*
G54D120*
G01X53124Y20368D03*
G04 Draw part J4*
G54D94*
G01X1187Y17118D03*
G54D95*
G01X1187Y16118D03*
G01X1187Y15118D03*
G04 Draw part J6*
G54D94*
G01X53624Y13368D03*
G54D95*
G01X53624Y14368D03*
G04 Draw part J5*
G54D121*
G01X24000Y27500D03*
G01X25000Y27500D03*
G01X26000Y27500D03*
G01X26000Y29260D03*
G01X25000Y29260D03*
G01X24000Y29260D03*
G04 Draw part C106*
G54D91*
G01X41750Y7500D03*
G01X41750Y6751D03*
G04 Draw part H1*
G54D122*
G01X1377Y1377D03*
G04 Draw part H2*
G01X53740Y1377D03*
G04 Draw part H3*
G01X53740Y30118D03*
G04 Draw part H4*
G01X1377Y30118D03*
G04 Draw part H5*
G54D94*
G01X19500Y8250D03*

G04 Draw traces*
G54D123*
G01X30374Y10868D02*
G01X30374Y10268D01*
G01X30374Y10268D02*
G01X31074Y9568D01*
G01X31074Y9568D02*
G01X31074Y8868D01*
G01X31074Y8868D02*
G01X31124Y8868D01*
G01X30374Y10868D02*
G01X30374Y11868D01*
G01X30374Y11868D02*
G01X31124Y12618D01*
G01X31124Y12618D02*
G01X31124Y13098D01*
G01X33374Y14368D02*
G01X32974Y14368D01*
G01X32974Y14368D02*
G01X32674Y14068D01*
G01X32674Y14068D02*
G01X32674Y13468D01*
G01X32674Y13468D02*
G01X32304Y13098D01*
G01X32304Y13098D02*
G01X31124Y13098D01*
G01X47500Y5000D02*
G01X47100Y5000D01*
G01X47100Y5000D02*
G01X46800Y4700D01*
G01X46800Y4700D02*
G01X46500Y4700D01*
G54D124*
G01X46500Y4700D03*
G01X46500Y3400D03*
G54D123*
G01X46500Y3400D02*
G01X46500Y2500D01*
G01X31250Y7250D02*
G01X31300Y7200D01*
G01X31300Y7200D02*
G01X31300Y8000D01*
G01X31300Y8000D02*
G01X31124Y8175D01*
G01X31124Y8175D02*
G01X31124Y8868D01*
G01X35250Y1250D02*
G01X35250Y2150D01*
G01X35250Y2150D02*
G01X36700Y3600D01*
G01X36700Y3600D02*
G01X36700Y4500D01*
G01X36700Y4500D02*
G01X36900Y4700D01*
G01X36900Y4700D02*
G01X37500Y4700D01*
G01X37500Y4700D02*
G01X37500Y4750D01*
G01X31250Y7250D02*
G01X31750Y7250D01*
G01X31750Y7250D02*
G01X31800Y7200D01*
G54D124*
G01X31800Y7200D03*
G01X38300Y4700D03*
G54D123*
G01X38300Y4700D02*
G01X37500Y4700D01*
G01X37500Y4700D02*
G01X37500Y4750D01*
G01X37500Y4750D02*
G01X37500Y4500D01*
G01X37500Y4500D02*
G01X37000Y4000D01*
G01X37000Y4000D02*
G01X37000Y3200D01*
G01X37000Y3200D02*
G01X36700Y2900D01*
G54D124*
G01X36700Y2900D03*
G01X47100Y3100D03*
G54D123*
G01X47100Y3100D02*
G01X47100Y2600D01*
G01X47100Y2600D02*
G01X47000Y2500D01*
G01X47000Y2500D02*
G01X46500Y2500D01*
G01X4250Y21750D02*
G01X4200Y21800D01*
G01X4200Y21800D02*
G01X4250Y21850D01*
G01X4250Y21850D02*
G01X4250Y22750D01*
G01X4250Y21750D02*
G01X4050Y21550D01*
G01X4050Y21550D02*
G01X4050Y20750D01*
G01X4998Y24000D02*
G01X5400Y24000D01*
G01X5400Y24000D02*
G01X5500Y23900D01*
G01X5500Y23900D02*
G01X5500Y23400D01*
G01X5500Y23400D02*
G01X5700Y23200D01*
G01X5700Y23200D02*
G01X6000Y23200D01*
G01X6000Y23200D02*
G01X6000Y23250D01*
G01X4998Y24000D02*
G01X5000Y23900D01*
G01X5000Y23900D02*
G01X5000Y23600D01*
G01X5000Y23600D02*
G01X4800Y23400D01*
G01X4800Y23400D02*
G01X4400Y23400D01*
G01X4400Y23400D02*
G01X4250Y23250D01*
G01X4250Y23250D02*
G01X4250Y22750D01*
G01X4050Y20750D02*
G01X4000Y20700D01*
G01X4000Y20700D02*
G01X3500Y20700D01*
G01X3500Y20700D02*
G01X3250Y20450D01*
G01X3250Y20450D02*
G01X3250Y19500D01*
G01X13000Y3500D02*
G01X12700Y3400D01*
G01X12700Y3400D02*
G01X12100Y3400D01*
G01X12100Y3400D02*
G01X11700Y3000D01*
G01X11700Y3000D02*
G01X11498Y3000D01*
G01X16000Y1750D02*
G01X15900Y1900D01*
G01X15900Y1900D02*
G01X15900Y2300D01*
G01X15900Y2300D02*
G01X15800Y2400D01*
G01X15800Y2400D02*
G01X13300Y2400D01*
G01X13300Y2400D02*
G01X13000Y2700D01*
G01X13000Y2700D02*
G01X13000Y3500D01*
G01X46624Y6118D02*
G01X46600Y6300D01*
G01X46600Y6300D02*
G01X46600Y6400D01*
G01X46600Y6400D02*
G01X46800Y6600D01*
G01X46800Y6600D02*
G01X48600Y6600D01*
G01X48600Y6600D02*
G01X49173Y6026D01*
G01X49173Y6026D02*
G01X49173Y5000D01*
G01X46624Y6118D02*
G01X46600Y6100D01*
G01X46600Y6100D02*
G01X46600Y5200D01*
G54D124*
G01X46600Y5200D03*
G01X45000Y5200D03*
G54D123*
G01X45000Y5200D02*
G01X45000Y2300D01*
G01X45000Y2300D02*
G01X44700Y2000D01*
G01X44700Y2000D02*
G01X39200Y2000D01*
G01X39200Y2000D02*
G01X39000Y1800D01*
G01X39000Y1800D02*
G01X39000Y1250D01*
G01X32250Y22000D02*
G01X32250Y22550D01*
G01X32250Y22550D02*
G01X32000Y22800D01*
G01X32000Y22800D02*
G01X31400Y22800D01*
G01X31400Y22800D02*
G01X31200Y23000D01*
G01X31200Y23000D02*
G01X31200Y23400D01*
G01X31200Y23400D02*
G01X31250Y23423D01*
G54D125*
G01X51858Y25709D02*
G01X50714Y25709D01*
G01X50714Y25709D02*
G01X49574Y24568D01*
G01X49574Y24568D02*
G01X48574Y24568D01*
G01X48574Y24568D02*
G01X48624Y24527D01*
G01X49874Y21868D02*
G01X48274Y21868D01*
G01X48274Y21868D02*
G01X48358Y21868D01*
G01X48624Y24527D02*
G01X48674Y24468D01*
G01X48674Y24468D02*
G01X48674Y23468D01*
G01X48674Y23468D02*
G01X48358Y23152D01*
G01X48358Y23152D02*
G01X48358Y21868D01*
G54D126*
G01X48000Y19500D02*
G01X48000Y20600D01*
G01X48000Y20600D02*
G01X48358Y20958D01*
G01X48358Y20958D02*
G01X48358Y21868D01*
G54D123*
G01X12124Y28368D02*
G01X12174Y28168D01*
G01X12174Y28168D02*
G01X12174Y27968D01*
G01X12174Y27968D02*
G01X11974Y27768D01*
G01X11974Y27768D02*
G01X11774Y27768D01*
G01X11774Y27768D02*
G01X11624Y27618D01*
G01X11624Y27618D02*
G01X11624Y26368D01*
G01X14277Y25610D02*
G01X14010Y25610D01*
G01X14010Y25610D02*
G01X13900Y25500D01*
G01X13900Y25500D02*
G01X13900Y24900D01*
G01X13900Y24900D02*
G01X13700Y24700D01*
G01X13700Y24700D02*
G01X11900Y24700D01*
G01X11900Y24700D02*
G01X11600Y25000D01*
G01X11600Y25000D02*
G01X11600Y26100D01*
G01X11600Y26100D02*
G01X11624Y26368D01*
G01X36874Y16618D02*
G01X37324Y16618D01*
G01X37324Y16618D02*
G01X37574Y16368D01*
G01X37574Y16368D02*
G01X37574Y14268D01*
G01X37574Y14268D02*
G01X37404Y14098D01*
G01X37404Y14098D02*
G01X37124Y14098D01*
G01X34874Y12868D02*
G01X34874Y13268D01*
G01X34874Y13268D02*
G01X35174Y13568D01*
G01X35174Y13568D02*
G01X37074Y13568D01*
G01X37074Y13568D02*
G01X37124Y13618D01*
G01X37124Y13618D02*
G01X37124Y14098D01*
G01X34874Y12868D02*
G01X34874Y12768D01*
G01X34874Y12768D02*
G01X34274Y12768D01*
G01X34274Y12768D02*
G01X33974Y12468D01*
G01X33974Y12468D02*
G01X33974Y12068D01*
G54D124*
G01X33974Y12068D03*
G01X27900Y12100D03*
G54D123*
G01X27900Y12100D02*
G01X27900Y11000D01*
G01X27900Y11000D02*
G01X27874Y10868D01*
G01X46297Y16618D02*
G01X46200Y16600D01*
G01X46200Y16600D02*
G01X45900Y16600D01*
G01X45900Y16600D02*
G01X45600Y16900D01*
G01X45600Y16900D02*
G01X45600Y17300D01*
G54D124*
G01X45600Y17300D03*
G54D123*
G01X27874Y10868D02*
G01X27800Y10800D01*
G01X27800Y10800D02*
G01X27800Y10100D01*
G54D124*
G01X27800Y10100D03*
G01X1800Y11300D03*
G54D123*
G01X1800Y11300D02*
G01X900Y11300D01*
G01X900Y11300D02*
G01X600Y11600D01*
G01X600Y11600D02*
G01X400Y11800D01*
G01X400Y11800D02*
G01X400Y23600D01*
G01X400Y23600D02*
G01X600Y23800D01*
G01X600Y23800D02*
G01X1100Y24300D01*
G01X1100Y24300D02*
G01X1900Y24300D01*
G01X1900Y24300D02*
G01X2800Y23400D01*
G54D124*
G01X2800Y23400D03*
G01X6500Y24200D03*
G54D123*
G01X6500Y24200D02*
G01X7500Y24200D01*
G01X7500Y24200D02*
G01X7800Y24500D01*
G01X7800Y24500D02*
G01X8600Y24500D01*
G01X8600Y24500D02*
G01X8700Y24400D01*
G01X8700Y24400D02*
G01X8700Y23500D01*
G01X8700Y23500D02*
G01X8824Y23375D01*
G01X8824Y23375D02*
G01X9116Y23375D01*
G01X46297Y16618D02*
G01X46400Y16400D01*
G01X46400Y16400D02*
G01X46100Y16100D01*
G01X46100Y16100D02*
G01X45800Y16100D01*
G54D124*
G01X45800Y16100D03*
G01X51500Y6300D03*
G54D123*
G01X51500Y6300D02*
G01X51500Y4750D01*
G01X18500Y27000D02*
G01X19100Y27000D01*
G54D124*
G01X19100Y27000D03*
G01X19100Y30800D03*
G54D123*
G01X19100Y30800D02*
G01X18800Y31100D01*
G01X18800Y31100D02*
G01X3700Y31100D01*
G01X3700Y31100D02*
G01X3100Y30500D01*
G01X3100Y30500D02*
G01X3100Y28100D01*
G01X3100Y28100D02*
G01X2600Y27600D01*
G54D124*
G01X2600Y27600D03*
G01X2600Y25500D03*
G54D123*
G01X2600Y25500D02*
G01X2800Y25300D01*
G01X2800Y25300D02*
G01X2800Y23400D01*
G01X17427Y25610D02*
G01X17400Y25600D01*
G01X17400Y25600D02*
G01X17200Y25600D01*
G01X17200Y25600D02*
G01X17000Y25800D01*
G01X17000Y25800D02*
G01X17000Y26100D01*
G01X17000Y26100D02*
G01X17140Y26240D01*
G01X17140Y26240D02*
G01X17427Y26240D01*
G01X14277Y25925D02*
G01X14525Y25925D01*
G01X14525Y25925D02*
G01X14700Y26100D01*
G01X14700Y26100D02*
G01X14700Y26400D01*
G01X14700Y26400D02*
G01X14500Y26600D01*
G01X14500Y26600D02*
G01X14300Y26600D01*
G01X14300Y26600D02*
G01X14277Y26555D01*
G01X15500Y23750D02*
G01X15600Y23800D01*
G01X15600Y23800D02*
G01X14600Y23800D01*
G01X14600Y23800D02*
G01X14400Y24000D01*
G01X14400Y24000D02*
G01X14400Y24500D01*
G54D124*
G01X14400Y24500D03*
G01X13900Y25900D03*
G54D123*
G01X13900Y25900D02*
G01X14300Y25900D01*
G01X14300Y25900D02*
G01X14277Y25925D01*
G01X46297Y16618D02*
G01X46297Y17397D01*
G01X46297Y17397D02*
G01X46400Y17500D01*
G01X46400Y17500D02*
G01X46500Y17500D01*
G01X17427Y26240D02*
G01X17740Y26240D01*
G01X17740Y26240D02*
G01X17900Y26400D01*
G01X17900Y26400D02*
G01X17900Y26800D01*
G01X17900Y26800D02*
G01X18100Y27000D01*
G01X18100Y27000D02*
G01X18400Y27000D01*
G01X18400Y27000D02*
G01X18500Y27000D01*
G01X24000Y29260D02*
G01X24000Y30500D01*
G01X24000Y30500D02*
G01X23900Y30600D01*
G01X23900Y30600D02*
G01X22000Y30600D01*
G01X22000Y30600D02*
G01X21600Y30200D01*
G01X21600Y30200D02*
G01X21600Y29600D01*
G01X21600Y29600D02*
G01X21624Y29618D01*
G01X15500Y23750D02*
G01X15500Y23700D01*
G01X15500Y23700D02*
G01X15500Y23400D01*
G01X15500Y23400D02*
G01X15800Y23100D01*
G01X15800Y23100D02*
G01X16000Y23100D01*
G54D124*
G01X16000Y23100D03*
G01X15700Y26000D03*
G54D123*
G01X15700Y26000D02*
G01X16800Y26000D01*
G01X16800Y26000D02*
G01X17200Y25600D01*
G01X17200Y25600D02*
G01X17400Y25600D01*
G01X17400Y25600D02*
G01X17427Y25610D01*
G01X18500Y27000D02*
G01X19100Y27000D01*
G54D124*
G01X19100Y27000D03*
G01X19100Y30800D03*
G54D123*
G01X19100Y30800D02*
G01X20700Y30800D01*
G01X20700Y30800D02*
G01X21000Y30500D01*
G01X21000Y30500D02*
G01X21000Y29800D01*
G01X21000Y29800D02*
G01X21181Y29618D01*
G01X21181Y29618D02*
G01X21624Y29618D01*
G01X5250Y11750D02*
G01X5200Y11700D01*
G01X5200Y11700D02*
G01X4600Y11700D01*
G01X4600Y11700D02*
G01X4200Y11300D01*
G01X4200Y11300D02*
G01X4200Y10300D01*
G01X4200Y10300D02*
G01X4173Y10250D01*
G01X4998Y21750D02*
G01X5000Y21900D01*
G01X5000Y21900D02*
G01X4998Y21901D01*
G01X4998Y21901D02*
G01X4998Y22750D01*
G01X5750Y19250D02*
G01X5350Y19250D01*
G01X5350Y19250D02*
G01X5100Y19500D01*
G01X5100Y19500D02*
G01X4600Y19500D01*
G01X4600Y19500D02*
G01X4700Y19500D01*
G01X4998Y21750D02*
G01X5100Y21700D01*
G01X5100Y21700D02*
G01X5400Y21700D01*
G01X5400Y21700D02*
G01X5500Y21600D01*
G01X5500Y21600D02*
G01X5500Y20750D01*
G01X5500Y20750D02*
G01X5500Y20200D01*
G01X5500Y20200D02*
G01X5400Y20100D01*
G01X5400Y20100D02*
G01X4800Y20100D01*
G01X4800Y20100D02*
G01X4700Y20000D01*
G01X4700Y20000D02*
G01X4700Y19500D01*
G01X6500Y23250D02*
G01X6500Y22500D01*
G01X6500Y22500D02*
G01X6300Y22300D01*
G01X6300Y22300D02*
G01X5800Y22300D01*
G01X5800Y22300D02*
G01X5350Y22750D01*
G01X5350Y22750D02*
G01X4998Y22750D01*
G01X10750Y3000D02*
G01X10750Y4650D01*
G01X10750Y4650D02*
G01X10700Y4700D01*
G01X10700Y4700D02*
G01X10740Y4750D01*
G01X48248Y5000D02*
G01X48300Y4900D01*
G01X48300Y4900D02*
G01X48600Y4900D01*
G01X48600Y4900D02*
G01X48700Y4800D01*
G01X48700Y4800D02*
G01X48700Y4500D01*
G01X48700Y4500D02*
G01X49184Y4015D01*
G01X49184Y4015D02*
G01X49586Y4015D01*
G54D124*
G01X48300Y5700D03*
G54D123*
G01X48300Y5700D02*
G01X48300Y5000D01*
G01X48300Y5000D02*
G01X48248Y5000D01*
G01X32374Y18118D02*
G01X33524Y18118D01*
G01X33524Y18118D02*
G01X33574Y18068D01*
G01X33574Y18068D02*
G01X33624Y18118D01*
G01X32374Y18118D02*
G01X32274Y17968D01*
G01X32274Y17968D02*
G01X32375Y18070D01*
G01X32375Y18070D02*
G01X32375Y19868D01*
G01X31423Y22000D02*
G01X31100Y22000D01*
G01X31100Y22000D02*
G01X30900Y22200D01*
G01X30900Y22200D02*
G01X30900Y22600D01*
G54D124*
G01X30900Y22600D03*
G01X32800Y21500D03*
G54D123*
G01X32800Y21500D02*
G01X32800Y21000D01*
G01X32800Y21000D02*
G01X32375Y20575D01*
G01X32375Y20575D02*
G01X32375Y19868D01*
G54D125*
G01X53124Y22368D02*
G01X53074Y22368D01*
G01X53074Y22368D02*
G01X53074Y23468D01*
G01X53074Y23468D02*
G01X53624Y24018D01*
G01X53624Y24018D02*
G01X53624Y24368D01*
G01X53124Y22368D02*
G01X52374Y22368D01*
G01X52374Y22368D02*
G01X51874Y21868D01*
G01X51874Y21868D02*
G01X50858Y21868D01*
G01X50874Y24527D02*
G01X50874Y24568D01*
G01X50874Y24568D02*
G01X50858Y24552D01*
G01X50858Y24552D02*
G01X50858Y21868D01*
G54D123*
G01X15064Y24822D02*
G01X15100Y24900D01*
G01X15100Y24900D02*
G01X15100Y26300D01*
G01X15100Y26300D02*
G01X15400Y26600D01*
G01X15400Y26600D02*
G01X16600Y26600D01*
G54D124*
G01X16600Y26600D03*
G01X17800Y27800D03*
G54D123*
G01X17800Y27800D02*
G01X19700Y27800D01*
G01X19700Y27800D02*
G01X19900Y28000D01*
G01X19900Y28000D02*
G01X19900Y28300D01*
G01X19900Y28300D02*
G01X20100Y28500D01*
G01X20100Y28500D02*
G01X20750Y28500D01*
G01X9498Y20000D02*
G01X9498Y19598D01*
G01X9498Y19598D02*
G01X9300Y19400D01*
G01X9300Y19400D02*
G01X8000Y19400D01*
G01X8000Y19400D02*
G01X6900Y20500D01*
G01X6900Y20500D02*
G01X6500Y20500D01*
G01X6500Y20500D02*
G01X6500Y20501D01*
G01X1000Y5500D02*
G01X1300Y5500D01*
G01X1300Y5500D02*
G01X1500Y5700D01*
G01X1500Y5700D02*
G01X1500Y6100D01*
G01X1500Y6100D02*
G01X1648Y6248D01*
G01X1648Y6248D02*
G01X2000Y6248D01*
G01X2000Y6248D02*
G01X2000Y6800D01*
G01X2000Y6800D02*
G01X2300Y7100D01*
G01X2300Y7100D02*
G01X2300Y9700D01*
G01X2300Y9700D02*
G01X2000Y10000D01*
G01X2000Y10000D02*
G01X1600Y10000D01*
G01X1600Y10000D02*
G01X1500Y10000D01*
G01X6500Y20501D02*
G01X6500Y20500D01*
G01X6500Y20500D02*
G01X6500Y20000D01*
G01X6500Y20000D02*
G01X6700Y19800D01*
G01X6700Y19800D02*
G01X7200Y19800D01*
G01X7200Y19800D02*
G01X8100Y18900D01*
G01X8100Y18900D02*
G01X8100Y18100D01*
G54D124*
G01X8100Y18100D03*
G01X7100Y18100D03*
G54D123*
G01X7100Y18100D02*
G01X7100Y16900D01*
G01X7100Y16900D02*
G01X6300Y16100D01*
G01X6300Y16100D02*
G01X3600Y16100D01*
G01X3600Y16100D02*
G01X3400Y15900D01*
G01X3400Y15900D02*
G01X2800Y15900D01*
G01X2800Y15900D02*
G01X2600Y15700D01*
G01X2600Y15700D02*
G01X2600Y13900D01*
G54D124*
G01X2600Y13900D03*
G01X600Y11100D03*
G54D123*
G01X600Y11100D02*
G01X600Y10300D01*
G01X600Y10300D02*
G01X900Y10000D01*
G01X900Y10000D02*
G01X1500Y10000D01*
G01X21124Y7368D02*
G01X21137Y7768D01*
G01X21137Y7768D02*
G01X21137Y8668D01*
G01X21137Y8668D02*
G01X21374Y8905D01*
G01X21374Y8905D02*
G01X21374Y9368D01*
G01X21124Y7368D02*
G01X21237Y7368D01*
G01X21237Y7368D02*
G01X21246Y7358D01*
G01X21246Y7358D02*
G01X23624Y7358D01*
G01X5250Y7000D02*
G01X4100Y7000D01*
G01X4100Y7000D02*
G01X3748Y7351D01*
G01X3748Y7351D02*
G01X3748Y8000D01*
G01X6076Y11750D02*
G01X6000Y11700D01*
G01X6000Y11700D02*
G01X6000Y11000D01*
G54D124*
G01X6000Y11000D03*
G01X6900Y13500D03*
G54D123*
G01X6900Y13500D02*
G01X5300Y13500D01*
G01X5300Y13500D02*
G01X4100Y13500D01*
G01X4100Y13500D02*
G01X3800Y13200D01*
G01X3800Y13200D02*
G01X3800Y12800D01*
G01X3800Y12800D02*
G01X3850Y12750D01*
G01X6076Y11750D02*
G01X6000Y11700D01*
G01X6000Y11700D02*
G01X6000Y11000D01*
G01X6000Y11000D02*
G01X6000Y10200D01*
G01X6000Y10200D02*
G01X5900Y10100D01*
G01X5900Y10100D02*
G01X5600Y9800D01*
G01X5600Y9800D02*
G01X5600Y9100D01*
G01X5600Y9100D02*
G01X4500Y8000D01*
G01X4500Y8000D02*
G01X3748Y8000D01*
G01X8500Y25001D02*
G01X9101Y25001D01*
G01X9101Y25001D02*
G01X9400Y25300D01*
G01X9400Y25300D02*
G01X9400Y26100D01*
G01X9400Y26100D02*
G01X9600Y26300D01*
G01X9600Y26300D02*
G01X9900Y26300D01*
G01X9900Y26300D02*
G01X10000Y26250D01*
G01X8500Y25001D02*
G01X8300Y25000D01*
G01X8300Y25000D02*
G01X7900Y25000D01*
G54D124*
G01X7900Y25000D03*
G01X8700Y22500D03*
G54D123*
G01X8700Y22500D02*
G01X9100Y22900D01*
G01X9100Y22900D02*
G01X9116Y23001D01*
G01X3000Y8000D02*
G01X3000Y6250D01*
G01X4586Y9265D02*
G01X4500Y9300D01*
G01X4500Y9300D02*
G01X3400Y9300D01*
G01X3400Y9300D02*
G01X3000Y8900D01*
G01X3000Y8900D02*
G01X3000Y8000D01*
G01X46624Y7118D02*
G01X46674Y7168D01*
G01X46674Y7168D02*
G01X46674Y7768D01*
G01X46674Y7768D02*
G01X47174Y8268D01*
G01X47174Y8268D02*
G01X47674Y8268D01*
G01X41000Y1250D02*
G01X45150Y1250D01*
G01X45150Y1250D02*
G01X45500Y1600D01*
G01X45500Y1600D02*
G01X45500Y6600D01*
G01X45500Y6600D02*
G01X46000Y7100D01*
G01X46000Y7100D02*
G01X46600Y7100D01*
G01X46600Y7100D02*
G01X46624Y7118D01*
G01X33624Y23118D02*
G01X33574Y23168D01*
G01X33574Y23168D02*
G01X33622Y23120D01*
G01X33622Y23120D02*
G01X35374Y23120D01*
G01X35124Y20840D02*
G01X35174Y20868D01*
G01X35174Y20868D02*
G01X35174Y22168D01*
G01X35174Y22168D02*
G01X35374Y22368D01*
G01X35374Y22368D02*
G01X35374Y23120D01*
G01X34974Y7868D02*
G01X34374Y7868D01*
G01X34374Y7868D02*
G01X34124Y8118D01*
G01X34124Y8118D02*
G01X33624Y8118D01*
G01X33624Y8118D02*
G01X33624Y8818D01*
G01X33624Y8818D02*
G01X33774Y8968D01*
G01X33774Y8968D02*
G01X33774Y10468D01*
G01X33774Y10468D02*
G01X33174Y11068D01*
G01X33174Y11068D02*
G01X33174Y11568D01*
G01X33174Y11568D02*
G01X33124Y11620D01*
G01X36924Y10868D02*
G01X36874Y10768D01*
G01X36874Y10768D02*
G01X36874Y10268D01*
G01X36874Y10268D02*
G01X35974Y9368D01*
G01X35974Y9368D02*
G01X35274Y9368D01*
G01X35274Y9368D02*
G01X34974Y9068D01*
G01X34974Y9068D02*
G01X34974Y7868D01*
G01X37923Y10500D02*
G01X37500Y10500D01*
G01X37500Y10500D02*
G01X37400Y10600D01*
G01X37400Y10600D02*
G01X37400Y10800D01*
G01X37400Y10800D02*
G01X37331Y10868D01*
G01X37331Y10868D02*
G01X36924Y10868D01*
G01X32998Y6000D02*
G01X32998Y4101D01*
G01X32998Y4101D02*
G01X33100Y4000D01*
G01X33100Y4000D02*
G01X33000Y4000D01*
G01X33624Y8118D02*
G01X33624Y7524D01*
G01X33624Y7524D02*
G01X33000Y6900D01*
G01X33000Y6900D02*
G01X33000Y6000D01*
G01X33000Y6000D02*
G01X32998Y6000D01*
G01X22000Y27000D02*
G01X20400Y27000D01*
G01X20400Y27000D02*
G01X20500Y27000D01*
G01X22000Y27000D02*
G01X22000Y28300D01*
G01X22000Y28300D02*
G01X21800Y28500D01*
G01X21800Y28500D02*
G01X21498Y28500D01*
G01X13624Y14868D02*
G01X13624Y14318D01*
G01X13624Y14318D02*
G01X13874Y14068D01*
G01X13874Y14068D02*
G01X13874Y13068D01*
G01X13874Y13068D02*
G01X13874Y13118D01*
G01X14923Y13000D02*
G01X14500Y13000D01*
G01X14500Y13000D02*
G01X14400Y13100D01*
G01X14400Y13100D02*
G01X13900Y13100D01*
G01X13900Y13100D02*
G01X13874Y13118D01*
G01X21124Y3628D02*
G01X20496Y3628D01*
G01X20496Y3628D02*
G01X20237Y3368D01*
G01X20237Y3368D02*
G01X19537Y3368D01*
G01X19537Y3368D02*
G01X19437Y3370D01*
G01X5250Y14900D02*
G01X5250Y14050D01*
G01X5250Y14050D02*
G01X5500Y13800D01*
G01X5500Y13800D02*
G01X6400Y13800D01*
G01X6400Y13800D02*
G01X6600Y14000D01*
G01X6600Y14000D02*
G01X7700Y14000D01*
G01X7700Y14000D02*
G01X7750Y14000D01*
G01X9001Y18750D02*
G01X9001Y18401D01*
G01X9001Y18401D02*
G01X8600Y18000D01*
G54D124*
G01X8600Y18000D03*
G01X6100Y15300D03*
G54D123*
G01X6100Y15300D02*
G01X6100Y15000D01*
G01X6100Y15000D02*
G01X6000Y14900D01*
G01X6000Y14900D02*
G01X5400Y14900D01*
G01X5400Y14900D02*
G01X5250Y14900D01*
G01X10000Y22750D02*
G01X10000Y22400D01*
G01X10000Y22400D02*
G01X10500Y21900D01*
G01X10500Y21900D02*
G01X10500Y21000D01*
G01X10500Y21000D02*
G01X10750Y20750D01*
G01X10750Y20750D02*
G01X10750Y19748D01*
G01X8250Y23750D02*
G01X8250Y23950D01*
G01X8250Y23950D02*
G01X8000Y24200D01*
G54D124*
G01X8000Y24200D03*
G01X11600Y19500D03*
G54D123*
G01X11600Y19500D02*
G01X11300Y19500D01*
G01X11300Y19500D02*
G01X11100Y19700D01*
G01X11100Y19700D02*
G01X10800Y19700D01*
G01X10800Y19700D02*
G01X10750Y19748D01*
G01X11108Y9750D02*
G01X10550Y9750D01*
G01X10550Y9750D02*
G01X10300Y9500D01*
G01X10300Y9500D02*
G01X10300Y8500D01*
G01X10300Y8500D02*
G01X10250Y8500D01*
G01X10250Y8500D02*
G01X10200Y8500D01*
G01X10200Y8500D02*
G01X9500Y8500D01*
G01X9500Y8500D02*
G01X8650Y9350D01*
G01X8650Y9350D02*
G01X8250Y9350D01*
G01X8250Y11501D02*
G01X8898Y11501D01*
G01X8898Y11501D02*
G01X8900Y11500D01*
G54D124*
G01X8900Y11500D03*
G01X7600Y9200D03*
G54D123*
G01X7600Y9200D02*
G01X8200Y9200D01*
G01X8200Y9200D02*
G01X8250Y9350D01*
G01X47289Y10581D02*
G01X47274Y10468D01*
G01X47274Y10468D02*
G01X47274Y9768D01*
G01X47274Y9768D02*
G01X47674Y9368D01*
G01X47674Y9368D02*
G01X47674Y9016D01*
G01X47500Y12000D02*
G01X47500Y11500D01*
G01X47500Y11500D02*
G01X47300Y11300D01*
G01X47300Y11300D02*
G01X47300Y10500D01*
G01X47300Y10500D02*
G01X47289Y10581D01*
G01X30836Y6265D02*
G01X30800Y6200D01*
G01X30800Y6200D02*
G01X30800Y5700D01*
G01X30800Y5700D02*
G01X31124Y5375D01*
G01X31124Y5375D02*
G01X31124Y4868D01*
G01X32250Y6000D02*
G01X31700Y6000D01*
G01X31700Y6000D02*
G01X31400Y6300D01*
G01X31400Y6300D02*
G01X30800Y6300D01*
G01X30800Y6300D02*
G01X30836Y6265D01*
G01X43750Y8800D02*
G01X43700Y8800D01*
G01X43700Y8800D02*
G01X44100Y8800D01*
G01X44100Y8800D02*
G01X45200Y7700D01*
G01X45200Y7700D02*
G01X45500Y7700D01*
G01X39750Y8800D02*
G01X39700Y8800D01*
G01X39700Y8800D02*
G01X40200Y8800D01*
G01X40200Y8800D02*
G01X40500Y8500D01*
G01X40500Y8500D02*
G01X41300Y8500D01*
G01X41300Y8500D02*
G01X41750Y8050D01*
G01X41750Y8050D02*
G01X41750Y7500D01*
G01X43750Y8800D02*
G01X43800Y8800D01*
G01X43800Y8800D02*
G01X43400Y8800D01*
G01X43400Y8800D02*
G01X42600Y8000D01*
G01X42600Y8000D02*
G01X42100Y7500D01*
G01X42100Y7500D02*
G01X41750Y7500D01*
G01X42100Y13000D02*
G01X42100Y13400D01*
G01X42100Y13400D02*
G01X42000Y13500D01*
G01X42000Y13500D02*
G01X39500Y13500D01*
G01X39500Y13500D02*
G01X39400Y13400D01*
G01X39400Y13400D02*
G01X39400Y13200D01*
G01X39400Y13200D02*
G01X39268Y13068D01*
G01X39268Y13068D02*
G01X38874Y13068D01*
G01X39750Y8800D02*
G01X39750Y9650D01*
G01X39750Y9650D02*
G01X39300Y10100D01*
G01X39300Y10100D02*
G01X39300Y11000D01*
G01X39300Y11000D02*
G01X38900Y11400D01*
G01X38900Y11400D02*
G01X38900Y12900D01*
G01X38900Y12900D02*
G01X38874Y13068D01*
G01X43750Y8800D02*
G01X43750Y9950D01*
G01X43750Y9950D02*
G01X45800Y12000D01*
G01X45800Y12000D02*
G01X46700Y12000D01*
G01X46700Y12000D02*
G01X46751Y12000D01*
G01X22000Y24750D02*
G01X20550Y24750D01*
G01X20550Y24750D02*
G01X20500Y24800D01*
G01X20500Y24800D02*
G01X20500Y24750D01*
G01X22000Y24750D02*
G01X22000Y26300D01*
G01X22000Y26300D02*
G01X22000Y26251D01*
G01X27874Y3368D02*
G01X27874Y4868D01*
G01X33124Y19868D02*
G01X33100Y19900D01*
G01X33100Y19900D02*
G01X33100Y19200D01*
G54D124*
G01X33100Y19200D03*
G01X29500Y12400D03*
G54D123*
G01X29500Y12400D02*
G01X29500Y11500D01*
G54D124*
G01X29500Y11500D03*
G01X27900Y6100D03*
G54D123*
G01X27900Y6100D02*
G01X27874Y6074D01*
G01X27874Y6074D02*
G01X27874Y4868D01*
G01X32234Y23836D02*
G01X32234Y23365D01*
G01X32234Y23365D02*
G01X32700Y22900D01*
G01X32700Y22900D02*
G01X32700Y22200D01*
G01X32700Y22200D02*
G01X33100Y21800D01*
G01X33100Y21800D02*
G01X33100Y19900D01*
G01X33100Y19900D02*
G01X33124Y19868D01*
G01X20124Y18618D02*
G01X20074Y18368D01*
G01X20074Y18368D02*
G01X20074Y17868D01*
G01X20074Y17868D02*
G01X19974Y17768D01*
G01X19974Y17768D02*
G01X19474Y17768D01*
G01X19474Y17768D02*
G01X19374Y17668D01*
G01X19374Y17668D02*
G01X19374Y17118D01*
G01X22124Y18368D02*
G01X22174Y18368D01*
G01X22174Y18368D02*
G01X22174Y17468D01*
G01X22174Y17468D02*
G01X22625Y17016D01*
G01X22625Y17016D02*
G01X22625Y16618D01*
G01X20124Y18618D02*
G01X20174Y18568D01*
G01X20174Y18568D02*
G01X20874Y18568D01*
G01X20874Y18568D02*
G01X21074Y18368D01*
G01X21074Y18368D02*
G01X22124Y18368D01*
G01X21874Y20646D02*
G01X21874Y19368D01*
G01X21874Y19368D02*
G01X22074Y19168D01*
G01X22074Y19168D02*
G01X22074Y18568D01*
G01X22074Y18568D02*
G01X22124Y18368D01*
G01X15750Y13000D02*
G01X15800Y13000D01*
G01X15800Y13000D02*
G01X15800Y14600D01*
G01X15800Y14600D02*
G01X16068Y14868D01*
G01X16068Y14868D02*
G01X16547Y14868D01*
G01X14250Y7750D02*
G01X14300Y7800D01*
G01X14300Y7800D02*
G01X14350Y7750D01*
G01X14350Y7750D02*
G01X15250Y7750D01*
G01X15826Y9250D02*
G01X15800Y9100D01*
G01X15800Y9100D02*
G01X15800Y8700D01*
G01X15800Y8700D02*
G01X15700Y8600D01*
G01X15700Y8600D02*
G01X15500Y8600D01*
G01X15500Y8600D02*
G01X15250Y8350D01*
G01X15250Y8350D02*
G01X15250Y7750D01*
G01X7750Y16251D02*
G01X7750Y14850D01*
G01X7750Y14850D02*
G01X7800Y14800D01*
G01X7800Y14800D02*
G01X7750Y14748D01*
G01X5000Y10250D02*
G01X5450Y10250D01*
G01X5450Y10250D02*
G01X5500Y10300D01*
G54D124*
G01X5500Y10300D03*
G01X6900Y12900D03*
G54D123*
G01X6900Y12900D02*
G01X7600Y12900D01*
G01X7600Y12900D02*
G01X8300Y13600D01*
G01X8300Y13600D02*
G01X8300Y14600D01*
G01X8300Y14600D02*
G01X8151Y14748D01*
G01X8151Y14748D02*
G01X7750Y14748D01*
G01X9998Y27750D02*
G01X9900Y27800D01*
G01X9900Y27800D02*
G01X9900Y27200D01*
G01X9900Y27200D02*
G01X9000Y26300D01*
G01X9000Y26300D02*
G01X9000Y25800D01*
G01X9000Y25800D02*
G01X8950Y25750D01*
G01X8950Y25750D02*
G01X8500Y25750D01*
G01X3750Y4250D02*
G01X4050Y4250D01*
G01X4050Y4250D02*
G01X4300Y4500D01*
G01X4300Y4500D02*
G01X5000Y4500D01*
G01X3750Y2500D02*
G01X3800Y2500D01*
G01X3800Y2500D02*
G01X3801Y2498D01*
G01X3801Y2498D02*
G01X5250Y2498D01*
G01X3750Y4250D02*
G01X3750Y2550D01*
G01X3750Y2550D02*
G01X3700Y2500D01*
G01X3700Y2500D02*
G01X3750Y2500D01*
G01X3750Y4250D02*
G01X3800Y4300D01*
G01X3800Y4300D02*
G01X3748Y4351D01*
G01X3748Y4351D02*
G01X3748Y6250D01*
G01X6673Y2500D02*
G01X6673Y3373D01*
G01X6673Y3373D02*
G01X6700Y3400D01*
G54D124*
G01X6700Y3400D03*
G01X5300Y3400D03*
G54D123*
G01X5300Y3400D02*
G01X5300Y2500D01*
G01X5300Y2500D02*
G01X5250Y2498D01*
G01X29874Y24118D02*
G01X30124Y24118D01*
G01X30124Y24118D02*
G01X30274Y24268D01*
G01X30274Y24268D02*
G01X30274Y25868D01*
G01X30274Y25868D02*
G01X30474Y26068D01*
G01X30474Y26068D02*
G01X30874Y26068D01*
G01X30874Y26068D02*
G01X30874Y26118D01*
G01X29874Y24118D02*
G01X29874Y25868D01*
G01X29874Y25868D02*
G01X29474Y26268D01*
G01X29474Y26268D02*
G01X27974Y26268D01*
G01X27974Y26268D02*
G01X27874Y25368D01*
G01X27836Y28265D02*
G01X27836Y25563D01*
G01X27836Y25563D02*
G01X27900Y25500D01*
G01X27900Y25500D02*
G01X27874Y25368D01*
G01X29874Y4868D02*
G01X28474Y4868D01*
G01X28474Y4868D02*
G01X28622Y4868D01*
G01X30423Y7250D02*
G01X29950Y7250D01*
G01X29950Y7250D02*
G01X29500Y6800D01*
G01X29500Y6800D02*
G01X28700Y6800D01*
G01X28700Y6800D02*
G01X28622Y6868D01*
G01X28622Y6868D02*
G01X28622Y4922D01*
G01X28622Y4922D02*
G01X28500Y4800D01*
G01X28500Y4800D02*
G01X28622Y4868D01*
G54D124*
G01X12900Y23200D03*
G54D123*
G01X12900Y23200D02*
G01X12900Y24100D01*
G54D124*
G01X12900Y24100D03*
G01X12900Y27500D03*
G54D123*
G01X12900Y27500D02*
G01X14200Y27500D01*
G01X14200Y27500D02*
G01X14277Y27500D01*
G01X19250Y25000D02*
G01X19300Y25000D01*
G01X19300Y25000D02*
G01X19500Y25000D01*
G01X19500Y25000D02*
G01X19800Y24700D01*
G01X19800Y24700D02*
G01X19800Y23500D01*
G01X19800Y23500D02*
G01X20000Y23300D01*
G01X20000Y23300D02*
G01X21900Y23300D01*
G01X21900Y23300D02*
G01X22000Y23400D01*
G01X22000Y23400D02*
G01X22000Y24001D01*
G01X51874Y16618D02*
G01X51674Y16568D01*
G01X51674Y16568D02*
G01X51274Y16568D01*
G01X51274Y16568D02*
G01X50974Y16868D01*
G01X50974Y16868D02*
G01X50974Y17168D01*
G01X50974Y17168D02*
G01X50775Y17366D01*
G01X50775Y17366D02*
G01X50374Y17366D01*
G01X26537Y16602D02*
G01X26674Y16568D01*
G01X26674Y16568D02*
G01X27174Y16568D01*
G01X27174Y16568D02*
G01X27450Y16291D01*
G01X27450Y16291D02*
G01X27874Y16291D01*
G01X24624Y16618D02*
G01X26424Y16618D01*
G01X26424Y16618D02*
G01X26474Y16668D01*
G01X26474Y16668D02*
G01X26537Y16602D01*
G01X23374Y16618D02*
G01X24524Y16618D01*
G01X24524Y16618D02*
G01X24574Y16568D01*
G01X24574Y16568D02*
G01X24624Y16618D01*
G01X12374Y11368D02*
G01X12374Y11268D01*
G01X12374Y11268D02*
G01X12374Y12370D01*
G01X11124Y11368D02*
G01X11074Y11368D01*
G01X11074Y11368D02*
G01X12374Y11368D01*
G01X12374Y12370D02*
G01X12374Y12368D01*
G01X12374Y12368D02*
G01X12375Y12370D01*
G01X12375Y12370D02*
G01X13874Y12370D01*
G01X15000Y9250D02*
G01X15000Y8800D01*
G01X15000Y8800D02*
G01X14900Y8700D01*
G01X14900Y8700D02*
G01X14400Y8700D01*
G01X14400Y8700D02*
G01X14326Y8750D01*
G01X7750Y17000D02*
G01X7700Y17000D01*
G01X7700Y17000D02*
G01X7700Y18800D01*
G01X7700Y18800D02*
G01X7250Y19250D01*
G01X7250Y19250D02*
G01X6498Y19250D01*
G01X8750Y20000D02*
G01X8750Y20550D01*
G01X8750Y20550D02*
G01X8800Y20600D01*
G54D124*
G01X8800Y20600D03*
G01X7500Y26200D03*
G54D123*
G01X7500Y26200D02*
G01X7500Y25218D01*
G01X35250Y3250D02*
G01X35250Y2850D01*
G01X35250Y2850D02*
G01X34300Y1900D01*
G01X34300Y1900D02*
G01X34300Y1200D01*
G01X34300Y1200D02*
G01X34250Y1250D01*
G01X31874Y27870D02*
G01X31874Y27868D01*
G01X31874Y27868D02*
G01X30124Y27868D01*
G01X28250Y29250D02*
G01X29150Y29250D01*
G01X29150Y29250D02*
G01X29400Y29000D01*
G01X29400Y29000D02*
G01X29400Y28100D01*
G01X29400Y28100D02*
G01X29600Y27900D01*
G01X29600Y27900D02*
G01X30100Y27900D01*
G01X30100Y27900D02*
G01X30124Y27868D01*
G01X36124Y26368D02*
G01X36974Y26368D01*
G01X36974Y26368D02*
G01X37974Y27368D01*
G01X37974Y27368D02*
G01X38374Y27368D01*
G01X37874Y29868D02*
G01X37874Y29168D01*
G01X37874Y29168D02*
G01X38174Y28868D01*
G01X38174Y28868D02*
G01X38674Y28868D01*
G01X38674Y28868D02*
G01X38974Y28568D01*
G01X38974Y28568D02*
G01X38974Y27468D01*
G01X38974Y27468D02*
G01X38874Y27368D01*
G01X38874Y27368D02*
G01X38374Y27368D01*
G01X37374Y24090D02*
G01X37374Y22868D01*
G01X37374Y22868D02*
G01X38074Y22168D01*
G01X38074Y22168D02*
G01X38774Y22168D01*
G01X38774Y22168D02*
G01X39122Y21820D01*
G01X39122Y21820D02*
G01X39122Y21368D01*
G01X37374Y24090D02*
G01X37300Y24100D01*
G01X37300Y24100D02*
G01X36124Y25275D01*
G01X36124Y25275D02*
G01X36124Y26368D01*
G01X39163Y25734D02*
G01X39163Y26136D01*
G01X39163Y26136D02*
G01X38800Y26500D01*
G01X38800Y26500D02*
G01X38600Y26500D01*
G01X38600Y26500D02*
G01X38400Y26700D01*
G01X38400Y26700D02*
G01X38400Y27300D01*
G01X38400Y27300D02*
G01X38374Y27368D01*
G01X11624Y22628D02*
G01X11600Y22200D01*
G01X11600Y22200D02*
G01X11600Y21200D01*
G01X11600Y21200D02*
G01X11800Y21000D01*
G01X11800Y21000D02*
G01X12300Y21000D01*
G01X12300Y21000D02*
G01X12500Y20800D01*
G01X12500Y20800D02*
G01X12500Y20250D01*
G01X11624Y22628D02*
G01X11600Y22700D01*
G01X11600Y22700D02*
G01X11600Y24100D01*
G01X11600Y24100D02*
G01X11900Y24400D01*
G01X11900Y24400D02*
G01X13800Y24400D01*
G01X13800Y24400D02*
G01X14277Y24877D01*
G01X14277Y24877D02*
G01X14277Y25295D01*
G01X24374Y23868D02*
G01X25374Y23868D01*
G01X16324Y27972D02*
G01X16300Y28100D01*
G01X16300Y28100D02*
G01X16300Y28300D01*
G01X16300Y28300D02*
G01X16200Y28400D01*
G01X16200Y28400D02*
G01X16200Y28700D01*
G54D124*
G01X16200Y28700D03*
G01X24400Y24500D03*
G54D123*
G01X24400Y24500D02*
G01X24374Y24474D01*
G01X24374Y24474D02*
G01X24374Y23868D01*
G01X48624Y16618D02*
G01X48574Y16468D01*
G01X48574Y16468D02*
G01X48574Y15968D01*
G01X48574Y15968D02*
G01X48239Y15634D01*
G01X48239Y15634D02*
G01X46710Y15634D01*
G01X42644Y23618D02*
G01X42644Y23938D01*
G01X42644Y23938D02*
G01X42874Y24168D01*
G01X42874Y24168D02*
G01X42874Y25118D01*
G01X41124Y25118D02*
G01X42824Y25118D01*
G01X42824Y25118D02*
G01X42874Y25068D01*
G01X42874Y25068D02*
G01X42874Y25118D01*
G01X42644Y23618D02*
G01X42600Y23600D01*
G01X42600Y23600D02*
G01X43000Y23600D01*
G54D124*
G01X43000Y23600D03*
G01X47900Y16600D03*
G54D123*
G01X47900Y16600D02*
G01X47918Y16618D01*
G01X47918Y16618D02*
G01X48624Y16618D01*
G01X33124Y12368D02*
G01X32274Y12368D01*
G01X32274Y12368D02*
G01X32074Y12568D01*
G54D124*
G01X32074Y12568D03*
G01X12674Y15368D03*
G54D123*
G01X12674Y15368D02*
G01X12674Y16168D01*
G01X12674Y16168D02*
G01X12624Y16118D01*
G01X11586Y16765D02*
G01X11586Y16313D01*
G01X11586Y16313D02*
G01X11800Y16100D01*
G01X11800Y16100D02*
G01X12600Y16100D01*
G01X12600Y16100D02*
G01X12624Y16118D01*
G54D126*
G01X45124Y25709D02*
G01X45074Y25668D01*
G01X45074Y25668D02*
G01X45124Y25618D01*
G01X45124Y25618D02*
G01X45124Y21868D01*
G01X47550Y29000D02*
G01X47600Y28900D01*
G01X47600Y28900D02*
G01X47600Y29400D01*
G01X47600Y29400D02*
G01X48100Y29900D01*
G01X48100Y29900D02*
G01X50000Y29900D01*
G01X50000Y29900D02*
G01X50550Y29350D01*
G01X50550Y29350D02*
G01X50550Y29000D01*
G01X44500Y28000D02*
G01X44500Y27500D01*
G01X44500Y27500D02*
G01X45100Y26900D01*
G01X45100Y26900D02*
G01X45100Y25800D01*
G01X45100Y25800D02*
G01X45124Y25709D01*
G01X44500Y28000D02*
G01X45200Y28000D01*
G01X45200Y28000D02*
G01X45500Y28300D01*
G01X45500Y28300D02*
G01X45500Y29400D01*
G01X45500Y29400D02*
G01X46000Y29900D01*
G01X46000Y29900D02*
G01X47200Y29900D01*
G01X47200Y29900D02*
G01X47600Y29500D01*
G01X47600Y29500D02*
G01X47600Y29100D01*
G01X47600Y29100D02*
G01X47550Y29000D01*
G54D123*
G01X45124Y21868D02*
G01X45100Y21800D01*
G01X45100Y21800D02*
G01X45100Y21200D01*
G01X45100Y21200D02*
G01X44200Y20300D01*
G01X44200Y20300D02*
G01X44200Y15000D01*
G01X44200Y15000D02*
G01X44000Y14800D01*
G01X44000Y14800D02*
G01X41700Y14800D01*
G01X41700Y14800D02*
G01X41400Y15100D01*
G01X41400Y15100D02*
G01X41400Y17100D01*
G01X41400Y17100D02*
G01X40500Y18000D01*
G01X40500Y18000D02*
G01X39500Y18000D01*
G01X38751Y18000D02*
G01X38000Y18000D01*
G54D124*
G01X38000Y18000D03*
G01X29900Y16700D03*
G54D123*
G01X29900Y16700D02*
G01X28700Y16700D01*
G01X28700Y16700D02*
G01X28858Y16705D01*
G01X20124Y15368D02*
G01X19122Y15368D01*
G01X17374Y14868D02*
G01X18974Y14868D01*
G01X18974Y14868D02*
G01X19074Y14968D01*
G01X19074Y14968D02*
G01X19074Y15268D01*
G01X19074Y15268D02*
G01X19122Y15368D01*
G01X16750Y6218D02*
G01X16700Y6368D01*
G01X16700Y6368D02*
G01X16687Y6381D01*
G01X16687Y6381D02*
G01X16687Y7870D01*
G01X16750Y6218D02*
G01X16350Y6218D01*
G01X16350Y6218D02*
G01X16100Y5968D01*
G01X16100Y5968D02*
G01X16100Y5368D01*
G01X16100Y5368D02*
G01X15900Y5168D01*
G01X15900Y5168D02*
G01X15500Y5168D01*
G01X15500Y5168D02*
G01X15437Y5118D01*
G01X16687Y7870D02*
G01X16270Y7870D01*
G01X16270Y7870D02*
G01X16100Y7700D01*
G01X16100Y7700D02*
G01X16100Y7200D01*
G01X16100Y7200D02*
G01X15900Y7000D01*
G01X15900Y7000D02*
G01X15200Y7000D01*
G01X15200Y7000D02*
G01X15250Y7001D01*
G01X7000Y23250D02*
G01X7000Y22400D01*
G01X7000Y22400D02*
G01X6500Y21900D01*
G01X6500Y21900D02*
G01X6500Y21250D01*
G01X6250Y28250D02*
G01X6250Y27350D01*
G01X6250Y27350D02*
G01X6200Y27300D01*
G01X6200Y27300D02*
G01X6250Y27250D01*
G01X6500Y25218D02*
G01X6500Y26300D01*
G01X6500Y26300D02*
G01X6300Y26500D01*
G01X6300Y26500D02*
G01X6300Y27200D01*
G01X6300Y27200D02*
G01X6250Y27250D01*
G01X4250Y29850D02*
G01X4300Y29800D01*
G01X4300Y29800D02*
G01X5600Y29800D01*
G01X5600Y29800D02*
G01X6200Y29200D01*
G01X6200Y29200D02*
G01X6200Y28300D01*
G01X6200Y28300D02*
G01X6250Y28250D01*
G01X37500Y5498D02*
G01X37500Y5500D01*
G01X37500Y5500D02*
G01X36000Y5500D01*
G01X38750Y10500D02*
G01X38700Y10500D01*
G01X38700Y10500D02*
G01X38700Y11200D01*
G01X38700Y11200D02*
G01X38400Y11500D01*
G01X38400Y11500D02*
G01X38400Y12000D01*
G54D124*
G01X38400Y12000D03*
G01X38900Y9100D03*
G54D123*
G01X38900Y9100D02*
G01X38900Y8400D01*
G01X38900Y8400D02*
G01X38800Y8300D01*
G01X38800Y8300D02*
G01X38300Y7800D01*
G01X38300Y7800D02*
G01X38300Y7600D01*
G01X38300Y7600D02*
G01X38300Y5900D01*
G01X38300Y5900D02*
G01X37898Y5498D01*
G01X37898Y5498D02*
G01X37500Y5498D01*
G01X26874Y18868D02*
G01X27374Y18868D01*
G01X27374Y18868D02*
G01X27574Y18668D01*
G01X27574Y18668D02*
G01X27574Y18368D01*
G01X27574Y18368D02*
G01X27874Y18068D01*
G01X27874Y18068D02*
G01X28274Y18068D01*
G01X28274Y18068D02*
G01X28374Y18120D01*
G01X26874Y18868D02*
G01X26374Y18868D01*
G01X26374Y18868D02*
G01X26074Y18568D01*
G01X26074Y18568D02*
G01X24974Y18568D01*
G01X24974Y18568D02*
G01X24874Y18618D01*
G01X42624Y29868D02*
G01X42624Y29518D01*
G01X42624Y29518D02*
G01X43374Y28768D01*
G01X43374Y28768D02*
G01X43374Y28168D01*
G01X43374Y28168D02*
G01X43074Y27868D01*
G01X43074Y27868D02*
G01X42622Y27868D01*
G01X39624Y27868D02*
G01X39674Y28068D01*
G01X39674Y28068D02*
G01X39674Y28568D01*
G01X39674Y28568D02*
G01X40174Y29068D01*
G01X40174Y29068D02*
G01X42174Y29068D01*
G01X42174Y29068D02*
G01X42622Y28620D01*
G01X42622Y28620D02*
G01X42622Y27868D01*
G01X39576Y24750D02*
G01X39500Y24800D01*
G01X39500Y24800D02*
G01X39900Y24800D01*
G01X39900Y24800D02*
G01X40100Y25000D01*
G01X40100Y25000D02*
G01X40100Y26200D01*
G01X40100Y26200D02*
G01X39624Y26675D01*
G01X39624Y26675D02*
G01X39624Y27868D01*
G01X17624Y29618D02*
G01X16424Y29618D01*
G01X16424Y29618D02*
G01X16374Y29668D01*
G01X16374Y29668D02*
G01X16372Y29618D01*
G01X17624Y29618D02*
G01X17600Y29600D01*
G01X17600Y29600D02*
G01X17600Y30300D01*
G01X17600Y30300D02*
G01X17500Y30400D01*
G01X17500Y30400D02*
G01X17000Y30400D01*
G54D124*
G01X17000Y30400D03*
G01X16600Y27200D03*
G54D123*
G01X16600Y27200D02*
G01X16614Y27185D01*
G01X16614Y27185D02*
G01X17427Y27185D01*
G01X47750Y1750D02*
G01X46550Y1750D01*
G01X46550Y1750D02*
G01X46500Y1700D01*
G01X46500Y1700D02*
G01X46500Y1751D01*
G01X11500Y7750D02*
G01X11500Y7000D01*
G54D124*
G01X11500Y7000D03*
G01X22300Y13500D03*
G54D123*
G01X22300Y13500D02*
G01X22300Y15400D01*
G01X22300Y15400D02*
G01X21500Y16200D01*
G01X21500Y16200D02*
G01X18600Y16200D01*
G01X18600Y16200D02*
G01X18374Y15974D01*
G01X18374Y15974D02*
G01X18374Y15368D01*
G01X46500Y1751D02*
G01X46500Y1700D01*
G01X46500Y1700D02*
G01X46100Y1700D01*
G01X46100Y1700D02*
G01X45900Y1900D01*
G01X45900Y1900D02*
G01X45900Y3200D01*
G01X45900Y3200D02*
G01X46100Y3400D01*
G54D124*
G01X46100Y3400D03*
G01X30400Y8100D03*
G54D123*
G01X30400Y8100D02*
G01X28200Y8100D01*
G54D124*
G01X28200Y8100D03*
G01X14600Y13700D03*
G54D123*
G01X14600Y13700D02*
G01X15000Y14100D01*
G01X15000Y14100D02*
G01X15000Y14700D01*
G01X15000Y14700D02*
G01X15668Y15368D01*
G01X15668Y15368D02*
G01X18374Y15368D01*
G01X23710Y13134D02*
G01X24408Y13134D01*
G01X24408Y13134D02*
G01X24774Y12768D01*
G01X24774Y12768D02*
G01X25874Y12768D01*
G01X25874Y12768D02*
G01X26074Y12968D01*
G01X26074Y12968D02*
G01X26074Y14268D01*
G01X26074Y14268D02*
G01X26574Y14268D01*
G01X26574Y14268D02*
G01X26624Y14116D01*
G01X26624Y14116D02*
G01X26574Y14268D01*
G01X26574Y14268D02*
G01X26074Y14268D01*
G54D124*
G01X26074Y14268D03*
G01X27274Y17068D03*
G54D123*
G01X27274Y17068D02*
G01X27324Y17118D01*
G01X27324Y17118D02*
G01X27874Y17118D01*
G01X17124Y12366D02*
G01X17972Y12366D01*
G01X17972Y12366D02*
G01X18174Y12568D01*
G01X18174Y12568D02*
G01X18674Y12568D01*
G01X18674Y12568D02*
G01X18624Y12618D01*
G01X16960Y13884D02*
G01X16974Y13868D01*
G01X16974Y13868D02*
G01X16974Y13268D01*
G01X16974Y13268D02*
G01X17124Y13118D01*
G01X17124Y13118D02*
G01X17124Y12366D01*
G01X12750Y8500D02*
G01X12900Y8500D01*
G01X12900Y8500D02*
G01X13200Y8800D01*
G01X13200Y8800D02*
G01X13400Y8800D01*
G01X13400Y8800D02*
G01X13500Y8750D01*
G01X12750Y8500D02*
G01X12600Y8500D01*
G01X12600Y8500D02*
G01X12598Y8498D01*
G01X12598Y8498D02*
G01X11500Y8498D01*
G01X4998Y26000D02*
G01X5000Y25900D01*
G01X5000Y25900D02*
G01X5000Y25700D01*
G01X5000Y25700D02*
G01X4800Y25500D01*
G01X4800Y25500D02*
G01X4500Y25500D01*
G01X4500Y25500D02*
G01X4250Y25250D01*
G01X4250Y25250D02*
G01X4250Y25000D01*
G01X4998Y26000D02*
G01X5100Y26000D01*
G01X5100Y26000D02*
G01X5800Y26000D01*
G01X5800Y26000D02*
G01X6000Y25800D01*
G01X6000Y25800D02*
G01X6000Y25218D01*
G01X6998Y28250D02*
G01X6998Y27401D01*
G01X6998Y27401D02*
G01X7000Y27400D01*
G01X7000Y27400D02*
G01X6998Y27250D01*
G01X7000Y25218D02*
G01X7000Y27200D01*
G01X7000Y27200D02*
G01X7100Y27300D01*
G01X7100Y27300D02*
G01X6998Y27250D01*
G01X9250Y27750D02*
G01X9200Y27800D01*
G01X9200Y27800D02*
G01X8300Y27800D01*
G01X8300Y27800D02*
G01X7850Y28250D01*
G01X7850Y28250D02*
G01X6998Y28250D01*
G01X32374Y9868D02*
G01X32374Y8468D01*
G01X32374Y8468D02*
G01X32724Y8118D01*
G01X32724Y8118D02*
G01X32875Y8118D01*
G01X28374Y18868D02*
G01X28374Y19368D01*
G01X28374Y19368D02*
G01X27874Y19868D01*
G01X27874Y19868D02*
G01X27874Y21628D01*
G01X24000Y27500D02*
G01X24000Y27300D01*
G01X24000Y27300D02*
G01X24000Y26100D01*
G54D124*
G01X24000Y26100D03*
G01X17400Y24900D03*
G54D123*
G01X17400Y24900D02*
G01X17322Y24822D01*
G01X17322Y24822D02*
G01X16954Y24822D01*
G01X30374Y14118D02*
G01X30374Y13768D01*
G01X30374Y13768D02*
G01X30474Y13668D01*
G01X30474Y13668D02*
G01X30974Y13668D01*
G01X30974Y13668D02*
G01X31124Y13818D01*
G01X31124Y13818D02*
G01X31124Y14118D01*
G01X30374Y14118D02*
G01X29124Y14118D01*
G01X29124Y14118D02*
G01X28974Y14268D01*
G01X28974Y14268D02*
G01X27974Y14268D01*
G01X27974Y14268D02*
G01X27874Y14368D01*
G01X27874Y14368D02*
G01X27874Y14868D01*
G54D126*
G01X49797Y13868D02*
G01X49774Y13868D01*
G01X49774Y13868D02*
G01X49874Y13968D01*
G01X49874Y13968D02*
G01X49874Y15118D01*
G54D123*
G01X36374Y15118D02*
G01X36374Y14768D01*
G01X36374Y14768D02*
G01X36474Y14668D01*
G01X36474Y14668D02*
G01X36974Y14668D01*
G01X36974Y14668D02*
G01X37074Y14768D01*
G01X37074Y14768D02*
G01X37074Y15068D01*
G01X37074Y15068D02*
G01X37124Y15118D01*
G01X36374Y15118D02*
G01X36124Y15118D01*
G01X36124Y15118D02*
G01X35874Y15368D01*
G01X35874Y15368D02*
G01X35874Y15768D01*
G01X35874Y15768D02*
G01X35374Y16268D01*
G01X35374Y16268D02*
G01X35374Y16618D01*
G01X35374Y16618D02*
G01X34624Y16618D01*
G01X34624Y16618D02*
G01X34274Y16268D01*
G01X34274Y16268D02*
G01X34274Y15668D01*
G01X34274Y15668D02*
G01X33674Y15068D01*
G01X33674Y15068D02*
G01X32674Y15068D01*
G01X32674Y15068D02*
G01X31674Y14068D01*
G01X31674Y14068D02*
G01X31174Y14068D01*
G01X31174Y14068D02*
G01X31124Y14118D01*
G01X37124Y15118D02*
G01X37174Y15168D01*
G01X37174Y15168D02*
G01X37174Y15868D01*
G54D124*
G01X37174Y15868D03*
G01X45000Y16500D03*
G54D123*
G01X45000Y16500D02*
G01X45000Y15400D01*
G01X45000Y15400D02*
G01X45400Y15000D01*
G01X45400Y15000D02*
G01X48600Y15000D01*
G01X48600Y15000D02*
G01X49400Y14200D01*
G01X49400Y14200D02*
G01X49400Y14000D01*
G01X49400Y14000D02*
G01X49600Y13800D01*
G01X49600Y13800D02*
G01X49797Y13868D01*
G54D125*
G01X44139Y24527D02*
G01X44074Y24468D01*
G01X44074Y24468D02*
G01X44074Y23568D01*
G01X44074Y23568D02*
G01X43874Y23368D01*
G01X43874Y23368D02*
G01X43874Y22368D01*
G54D123*
G01X27874Y14868D02*
G01X27474Y14868D01*
G01X27474Y14868D02*
G01X27274Y14668D01*
G01X27274Y14668D02*
G01X27274Y13568D01*
G01X27274Y13568D02*
G01X27074Y13368D01*
G01X27074Y13368D02*
G01X26574Y13368D01*
G01X26574Y13368D02*
G01X26624Y13368D01*
G01X11624Y15368D02*
G01X11574Y15268D01*
G01X11574Y15268D02*
G01X12074Y15268D01*
G01X12074Y15268D02*
G01X12274Y15068D01*
G01X12274Y15068D02*
G01X12274Y14568D01*
G54D124*
G01X12274Y14568D03*
G01X26574Y12668D03*
G54D123*
G01X26574Y12668D02*
G01X26624Y12718D01*
G01X26624Y12718D02*
G01X26574Y12768D01*
G01X26574Y12768D02*
G01X26574Y13268D01*
G01X26574Y13268D02*
G01X26624Y13368D01*
G01X21374Y12618D02*
G01X21781Y12618D01*
G01X21781Y12618D02*
G01X22000Y12400D01*
G01X22000Y12400D02*
G01X27100Y12400D01*
G01X27100Y12400D02*
G01X27300Y12600D01*
G01X27300Y12600D02*
G01X27300Y13200D01*
G01X27300Y13200D02*
G01X27100Y13400D01*
G01X27100Y13400D02*
G01X26600Y13400D01*
G01X26600Y13400D02*
G01X26624Y13368D01*
G01X11624Y15368D02*
G01X11600Y15500D01*
G01X11600Y15500D02*
G01X11600Y15700D01*
G01X11600Y15700D02*
G01X11400Y15900D01*
G01X11400Y15900D02*
G01X11100Y15900D01*
G01X11100Y15900D02*
G01X10000Y15900D01*
G01X10000Y15900D02*
G01X9700Y16200D01*
G01X9700Y16200D02*
G01X9700Y18200D01*
G01X9700Y18200D02*
G01X9700Y18700D01*
G01X9700Y18700D02*
G01X9750Y18750D01*
G01X11624Y15368D02*
G01X11700Y15300D01*
G01X11700Y15300D02*
G01X11700Y13600D01*
G54D124*
G01X11700Y13600D03*
G01X8900Y12200D03*
G54D123*
G01X8900Y12200D02*
G01X8850Y12250D01*
G01X8850Y12250D02*
G01X8250Y12250D01*
G01X9750Y18750D02*
G01X9750Y18650D01*
G01X9750Y18650D02*
G01X9000Y17900D01*
G54D124*
G01X9000Y17900D03*
G01X3700Y25600D03*
G54D123*
G01X3700Y25600D02*
G01X3700Y25800D01*
G01X3700Y25800D02*
G01X3900Y26000D01*
G01X3900Y26000D02*
G01X4100Y26000D01*
G01X4100Y26000D02*
G01X4250Y26000D01*
G01X8250Y12250D02*
G01X8300Y12200D01*
G01X8300Y12200D02*
G01X7800Y12200D01*
G01X7800Y12200D02*
G01X7600Y12000D01*
G01X7600Y12000D02*
G01X7600Y11700D01*
G54D124*
G01X7600Y11700D03*
G01X6700Y7200D03*
G54D123*
G01X6700Y7200D02*
G01X6700Y6600D01*
G01X6700Y6600D02*
G01X6700Y6000D01*
G01X6700Y6000D02*
G01X7100Y5600D01*
G01X7100Y5600D02*
G01X8700Y5600D01*
G01X8700Y5600D02*
G01X8800Y5500D01*
G01X8800Y5500D02*
G01X8800Y4200D01*
G01X8800Y4200D02*
G01X9500Y3500D01*
G01X9500Y3500D02*
G01X9500Y1750D01*
G01X15624Y29618D02*
G01X15600Y29800D01*
G01X15600Y29800D02*
G01X15600Y30700D01*
G54D124*
G01X15600Y30700D03*
G01X3200Y26200D03*
G54D123*
G01X3200Y26200D02*
G01X3700Y26200D01*
G01X3700Y26200D02*
G01X3900Y26000D01*
G01X3900Y26000D02*
G01X4200Y26000D01*
G01X4200Y26000D02*
G01X4250Y26000D01*
G54D126*
G01X49874Y15118D02*
G01X49218Y15118D01*
G01X49218Y15118D02*
G01X49200Y15100D01*
G54D124*
G01X49200Y15100D03*
G01X44500Y22400D03*
G54D126*
G01X44500Y22400D02*
G01X43700Y22400D01*
G01X43700Y22400D02*
G01X43874Y22368D01*
G01X53624Y13368D02*
G01X51631Y13368D01*
G01X51631Y13368D02*
G01X51600Y13400D01*
G54D124*
G01X51600Y13400D03*
G01X49200Y15100D03*
G54D126*
G01X49200Y15100D02*
G01X49900Y15100D01*
G01X49900Y15100D02*
G01X49874Y15118D01*
G54D123*
G01X2000Y5500D02*
G01X2000Y4600D01*
G54D124*
G01X2000Y4600D03*
G01X10100Y1800D03*
G54D123*
G01X10100Y1800D02*
G01X10050Y1750D01*
G01X10050Y1750D02*
G01X9500Y1750D01*
G01X43874Y22368D02*
G01X43600Y22400D01*
G01X43600Y22400D02*
G01X43300Y22100D01*
G01X43300Y22100D02*
G01X43300Y20200D01*
G01X43300Y20200D02*
G01X43000Y19900D01*
G01X43000Y19900D02*
G01X43000Y18600D01*
G01X53624Y13368D02*
G01X53624Y12124D01*
G01X53624Y12124D02*
G01X53500Y12000D01*
G01X53500Y12000D02*
G01X53500Y10100D01*
G01X53500Y10100D02*
G01X53300Y9900D01*
G01X53300Y9900D02*
G01X53300Y9100D01*
G01X53300Y9100D02*
G01X53350Y9000D01*
G01X18625Y17118D02*
G01X18625Y17616D01*
G01X18625Y17616D02*
G01X18474Y17768D01*
G01X18474Y17768D02*
G01X17774Y17768D01*
G01X17774Y17768D02*
G01X17574Y17968D01*
G01X17574Y17968D02*
G01X17574Y18368D01*
G01X17574Y18368D02*
G01X17624Y18618D01*
G01X17624Y18618D02*
G01X17224Y18618D01*
G01X17224Y18618D02*
G01X17074Y18468D01*
G01X17074Y18468D02*
G01X17074Y17868D01*
G01X17074Y17868D02*
G01X16974Y17768D01*
G01X16974Y17768D02*
G01X16574Y17768D01*
G01X16574Y17768D02*
G01X16374Y17568D01*
G01X16374Y17568D02*
G01X16374Y17118D01*
G01X14874Y20396D02*
G01X14974Y20468D01*
G01X14974Y20468D02*
G01X14874Y20368D01*
G01X14874Y20368D02*
G01X13624Y20368D01*
G01X13163Y18734D02*
G01X13200Y18900D01*
G01X13200Y18900D02*
G01X13200Y19400D01*
G01X13200Y19400D02*
G01X13624Y19824D01*
G01X13624Y19824D02*
G01X13624Y20368D01*
G01X14874Y20396D02*
G01X14800Y20400D01*
G01X14800Y20400D02*
G01X14800Y19100D01*
G01X14800Y19100D02*
G01X15100Y18800D01*
G01X15100Y18800D02*
G01X17100Y18800D01*
G01X17100Y18800D02*
G01X17281Y18618D01*
G01X17281Y18618D02*
G01X17624Y18618D01*
G01X20124Y13368D02*
G01X19974Y13368D01*
G01X19974Y13368D02*
G01X19975Y13366D01*
G01X19975Y13366D02*
G01X21374Y13366D01*
G01X18624Y13760D02*
G01X18674Y13768D01*
G01X18674Y13768D02*
G01X19074Y13768D01*
G01X19074Y13768D02*
G01X19474Y13368D01*
G01X19474Y13368D02*
G01X20124Y13368D01*
G01X13913Y9734D02*
G01X12234Y9734D01*
G01X12234Y9734D02*
G01X12200Y9700D01*
G01X12200Y9700D02*
G01X12250Y9750D01*
G01X7000Y10751D02*
G01X7100Y10700D01*
G01X7100Y10700D02*
G01X7400Y10700D01*
G01X7400Y10700D02*
G01X7600Y10500D01*
G01X7600Y10500D02*
G01X12000Y10500D01*
G01X12000Y10500D02*
G01X12200Y10300D01*
G01X12200Y10300D02*
G01X12200Y9800D01*
G01X12200Y9800D02*
G01X12250Y9750D01*
G01X1250Y22000D02*
G01X2300Y22000D01*
G01X2300Y22000D02*
G01X3500Y23200D01*
G01X3500Y23200D02*
G01X3500Y23800D01*
G01X3500Y23800D02*
G01X3700Y24000D01*
G01X3700Y24000D02*
G01X4250Y24000D01*
G01X1187Y27118D02*
G01X1200Y27100D01*
G01X1200Y27100D02*
G01X1187Y27087D01*
G01X1187Y27087D02*
G01X1187Y26118D01*
G01X1187Y27118D02*
G01X1200Y27100D01*
G01X1200Y27100D02*
G01X3300Y27100D01*
G01X3300Y27100D02*
G01X3600Y27400D01*
G01X3600Y27400D02*
G01X4200Y27400D01*
G01X4200Y27400D02*
G01X4250Y27450D01*
G01X38336Y9515D02*
G01X38300Y9500D01*
G01X38300Y9500D02*
G01X38300Y8300D01*
G01X38300Y8300D02*
G01X37868Y7868D01*
G01X37868Y7868D02*
G01X37674Y7868D01*
G01X34500Y5500D02*
G01X34500Y6000D01*
G01X34500Y6000D02*
G01X34900Y6400D01*
G01X34900Y6400D02*
G01X36700Y6400D01*
G01X36700Y6400D02*
G01X37600Y7300D01*
G01X37600Y7300D02*
G01X37600Y7800D01*
G01X37600Y7800D02*
G01X37674Y7868D01*
G01X38336Y9515D02*
G01X38300Y9500D01*
G01X38300Y9500D02*
G01X39300Y9500D01*
G54D124*
G01X39300Y9500D03*
G01X39300Y11700D03*
G54D123*
G01X39300Y11700D02*
G01X40600Y13000D01*
G01X40600Y13000D02*
G01X40918Y13000D01*
G01X25000Y27500D02*
G01X25000Y27300D01*
G01X25000Y27300D02*
G01X25000Y26100D01*
G54D124*
G01X25000Y26100D03*
G01X17900Y25300D03*
G54D123*
G01X17900Y25300D02*
G01X17895Y25295D01*
G01X17895Y25295D02*
G01X17427Y25295D01*
G01X41124Y19618D02*
G01X41074Y19568D01*
G01X41074Y19568D02*
G01X40474Y19568D01*
G01X40474Y19568D02*
G01X40274Y19368D01*
G01X40274Y19368D02*
G01X39874Y19368D01*
G01X41124Y19618D02*
G01X41174Y19668D01*
G01X41174Y19668D02*
G01X41174Y20368D01*
G01X41174Y20368D02*
G01X41574Y20768D01*
G01X41574Y20768D02*
G01X42174Y20768D01*
G01X42174Y20768D02*
G01X42372Y20966D01*
G01X42372Y20966D02*
G01X42372Y21368D01*
G01X47000Y28500D02*
G01X50000Y28500D01*
G01X50000Y28500D02*
G01X50900Y28500D01*
G01X50900Y28500D02*
G01X51200Y28800D01*
G01X51200Y28800D02*
G01X51200Y30200D01*
G01X51200Y30200D02*
G01X50800Y30600D01*
G01X50800Y30600D02*
G01X44300Y30600D01*
G01X44300Y30600D02*
G01X43800Y30100D01*
G01X43800Y30100D02*
G01X43800Y27500D01*
G01X43800Y27500D02*
G01X43500Y27200D01*
G01X43500Y27200D02*
G01X43500Y23100D01*
G01X43500Y23100D02*
G01X43100Y22700D01*
G01X43100Y22700D02*
G01X43100Y21600D01*
G01X43100Y21600D02*
G01X42868Y21368D01*
G01X42868Y21368D02*
G01X42372Y21368D01*
G01X26000Y27500D02*
G01X26900Y27500D01*
G54D124*
G01X26900Y27500D03*
G01X23000Y29600D03*
G54D123*
G01X23000Y29600D02*
G01X22981Y29618D01*
G01X22981Y29618D02*
G01X22372Y29618D01*
G01X17750Y28500D02*
G01X17400Y28500D01*
G01X17400Y28500D02*
G01X17300Y28600D01*
G01X17300Y28600D02*
G01X17300Y28800D01*
G01X17300Y28800D02*
G01X17000Y29100D01*
G01X17000Y29100D02*
G01X16000Y29100D01*
G01X16000Y29100D02*
G01X15700Y28800D01*
G01X15700Y28800D02*
G01X15700Y28500D01*
G01X15700Y28500D02*
G01X15700Y28100D01*
G01X15700Y28100D02*
G01X15694Y27972D01*
G01X22372Y29618D02*
G01X22400Y29400D01*
G01X22400Y29400D02*
G01X22100Y29100D01*
G01X22100Y29100D02*
G01X17900Y29100D01*
G01X17900Y29100D02*
G01X17750Y28950D01*
G01X17750Y28950D02*
G01X17750Y28500D01*
G01X9374Y14618D02*
G01X9374Y15174D01*
G01X9374Y15174D02*
G01X9374Y15574D01*
G01X9374Y15574D02*
G01X9500Y15700D01*
G01X9500Y15700D02*
G01X9500Y16800D01*
G01X9500Y16800D02*
G01X9300Y17000D01*
G01X9300Y17000D02*
G01X9000Y16998D01*
G01X12000Y17750D02*
G01X12000Y17400D01*
G01X12000Y17400D02*
G01X12100Y17300D01*
G01X12100Y17300D02*
G01X12300Y17300D01*
G01X12300Y17300D02*
G01X12600Y17000D01*
G54D124*
G01X12600Y17000D03*
G01X10000Y15400D03*
G54D123*
G01X10000Y15400D02*
G01X9800Y15200D01*
G01X9800Y15200D02*
G01X9800Y14800D01*
G01X9800Y14800D02*
G01X9600Y14600D01*
G01X9600Y14600D02*
G01X9374Y14618D01*
G01X17374Y10368D02*
G01X17437Y10268D01*
G01X17437Y10268D02*
G01X17437Y10968D01*
G01X17437Y10968D02*
G01X17124Y11281D01*
G01X17124Y11281D02*
G01X17124Y11618D01*
G01X19374Y11118D02*
G01X19437Y10968D01*
G01X19437Y10968D02*
G01X19437Y10568D01*
G01X19437Y10568D02*
G01X19237Y10368D01*
G01X19237Y10368D02*
G01X17374Y10368D01*
G01X18187Y8618D02*
G01X16850Y8618D01*
G01X16850Y8618D02*
G01X16800Y8668D01*
G01X16800Y8668D02*
G01X16687Y8618D01*
G01X15413Y10234D02*
G01X15500Y10300D01*
G01X15500Y10300D02*
G01X15800Y10300D01*
G01X15800Y10300D02*
G01X16000Y10100D01*
G01X16000Y10100D02*
G01X16000Y10000D01*
G01X16000Y10000D02*
G01X16687Y9312D01*
G01X16687Y9312D02*
G01X16687Y8618D01*
G01X7501Y21250D02*
G01X7500Y21200D01*
G01X7500Y21200D02*
G01X7500Y20500D01*
G54D124*
G01X7500Y20500D03*
G54D123*
G01X1265Y19163D02*
G01X1200Y19200D01*
G01X1200Y19200D02*
G01X1250Y19250D01*
G01X1250Y19250D02*
G01X1250Y21000D01*
G01X7086Y1515D02*
G01X7086Y986D01*
G01X7086Y986D02*
G01X6900Y800D01*
G01X6900Y800D02*
G01X5400Y800D01*
G01X5400Y800D02*
G01X5200Y1000D01*
G01X5200Y1000D02*
G01X5200Y1600D01*
G01X5200Y1600D02*
G01X5250Y1750D01*
G01X7086Y1515D02*
G01X7100Y1500D01*
G01X7100Y1500D02*
G01X6100Y1500D01*
G01X6100Y1500D02*
G01X6000Y1600D01*
G01X6000Y1600D02*
G01X6000Y3700D01*
G01X6000Y3700D02*
G01X6200Y3900D01*
G01X6200Y3900D02*
G01X6900Y3900D01*
G01X6900Y3900D02*
G01X7000Y4000D01*
G01X7000Y4000D02*
G01X7000Y4750D01*
G01X7086Y1515D02*
G01X7086Y1013D01*
G01X7086Y1013D02*
G01X7300Y800D01*
G01X7300Y800D02*
G01X12500Y800D01*
G01X12500Y800D02*
G01X12800Y1100D01*
G01X12800Y1100D02*
G01X12800Y1700D01*
G01X12800Y1700D02*
G01X12750Y1750D01*
G01X25000Y29260D02*
G01X25000Y29200D01*
G01X25000Y29200D02*
G01X25000Y30700D01*
G54D124*
G01X25000Y30700D03*
G01X16600Y25600D03*
G54D123*
G01X16600Y25600D02*
G01X16639Y25560D01*
G01X16639Y25560D02*
G01X16639Y24822D01*
G54D126*
G01X48124Y13118D02*
G01X48274Y13268D01*
G01X48274Y13268D02*
G01X49074Y13268D01*
G01X49074Y13268D02*
G01X49474Y12868D01*
G01X49474Y12868D02*
G01X49489Y12884D01*
G01X49489Y12884D02*
G01X50210Y12884D01*
G01X35374Y23868D02*
G01X35474Y23868D01*
G01X35474Y23868D02*
G01X34574Y23868D01*
G54D124*
G01X34574Y23868D03*
G01X39374Y22068D03*
G54D126*
G01X39374Y22068D02*
G01X39374Y22868D01*
G01X35374Y23868D02*
G01X35374Y24368D01*
G01X35374Y24368D02*
G01X34874Y24868D01*
G01X34874Y24868D02*
G01X34874Y28068D01*
G01X34874Y28068D02*
G01X34274Y28668D01*
G01X34274Y28668D02*
G01X31874Y28668D01*
G01X31874Y28668D02*
G01X31874Y28618D01*
G01X50000Y6500D02*
G01X50000Y5000D01*
G01X50210Y12884D02*
G01X50210Y12310D01*
G01X50210Y12310D02*
G01X50110Y12310D01*
G01X50110Y12310D02*
G01X49300Y11500D01*
G01X49300Y11500D02*
G01X49300Y6800D01*
G01X49300Y6800D02*
G01X49600Y6500D01*
G01X49600Y6500D02*
G01X50000Y6500D01*
G01X48124Y13118D02*
G01X47318Y13118D01*
G01X47318Y13118D02*
G01X47300Y13100D01*
G54D124*
G01X47300Y13100D03*
G01X40000Y22900D03*
G54D126*
G01X40000Y22900D02*
G01X39300Y22900D01*
G01X39300Y22900D02*
G01X39374Y22868D01*
G01X38750Y24750D02*
G01X38750Y24250D01*
G01X38750Y24250D02*
G01X39400Y23600D01*
G01X39400Y23600D02*
G01X39400Y22900D01*
G01X39400Y22900D02*
G01X39374Y22868D01*
G54D123*
G01X24124Y14118D02*
G01X24174Y14168D01*
G01X24174Y14168D02*
G01X24224Y14118D01*
G01X24224Y14118D02*
G01X25374Y14118D01*
G01X26124Y15618D02*
G01X25624Y15618D01*
G01X25624Y15618D02*
G01X25374Y15368D01*
G01X25374Y15368D02*
G01X25374Y14118D01*
G01X3000Y17250D02*
G01X3000Y17200D01*
G01X3000Y17200D02*
G01X2400Y17200D01*
G01X2400Y17200D02*
G01X2250Y17350D01*
G01X2250Y17350D02*
G01X2250Y18750D01*
G01X9116Y23750D02*
G01X9200Y23700D01*
G01X9200Y23700D02*
G01X9200Y24700D01*
G54D124*
G01X9200Y24700D03*
G01X2900Y18700D03*
G54D123*
G01X2900Y18700D02*
G01X2850Y18750D01*
G01X2850Y18750D02*
G01X2250Y18750D01*
G01X16009Y27972D02*
G01X16009Y27209D01*
G01X16009Y27209D02*
G01X16000Y27200D01*
G54D124*
G01X16000Y27200D03*
G01X9200Y24700D03*
G54D123*
G01X9200Y24700D02*
G01X9200Y23800D01*
G01X9200Y23800D02*
G01X9116Y23750D01*
G01X16009Y27972D02*
G01X16000Y27900D01*
G01X16000Y27900D02*
G01X16000Y27200D01*
G54D124*
G01X16000Y27200D03*
G01X25400Y15800D03*
G54D123*
G01X25400Y15800D02*
G01X25581Y15618D01*
G01X25581Y15618D02*
G01X26124Y15618D01*
G01X51874Y18068D02*
G01X52674Y18068D01*
G01X52674Y18068D02*
G01X52924Y17818D01*
G01X52924Y17818D02*
G01X53624Y17818D01*
G01X51874Y18068D02*
G01X51900Y18000D01*
G01X51900Y18000D02*
G01X51900Y19600D01*
G54D124*
G01X51900Y19600D03*
G01X26600Y24800D03*
G54D123*
G01X26600Y24800D02*
G01X26547Y24852D01*
G01X26547Y24852D02*
G01X25787Y24852D01*
G01X12750Y17750D02*
G01X12700Y17900D01*
G01X12700Y17900D02*
G01X12700Y18200D01*
G01X12700Y18200D02*
G01X12500Y18400D01*
G01X12500Y18400D02*
G01X11400Y18400D01*
G01X11400Y18400D02*
G01X11173Y18173D01*
G01X11173Y18173D02*
G01X11173Y17750D01*
G01X26125Y11618D02*
G01X24987Y11618D01*
G01X24987Y11618D02*
G01X24437Y11068D01*
G01X24437Y11068D02*
G01X23637Y11068D01*
G01X23637Y11068D02*
G01X23114Y11118D01*
G01X18000Y4468D02*
G01X18000Y4868D01*
G01X18000Y4868D02*
G01X18200Y5068D01*
G01X18200Y5068D02*
G01X18200Y5568D01*
G01X18200Y5568D02*
G01X18187Y5618D01*
G01X18187Y5618D02*
G01X18650Y5618D01*
G01X18650Y5618D02*
G01X18800Y5768D01*
G01X18800Y5768D02*
G01X18800Y7668D01*
G01X18800Y7668D02*
G01X18600Y7868D01*
G01X18600Y7868D02*
G01X18200Y7868D01*
G01X18200Y7868D02*
G01X18187Y7870D01*
G01X9250Y21250D02*
G01X8250Y21250D01*
G01X8250Y23001D02*
G01X8250Y22750D01*
G01X8250Y22750D02*
G01X8100Y22600D01*
G01X8100Y22600D02*
G01X7800Y22600D01*
G01X7800Y22600D02*
G01X7700Y22500D01*
G01X7700Y22500D02*
G01X7700Y22100D01*
G01X7700Y22100D02*
G01X8100Y21700D01*
G01X8100Y21700D02*
G01X8100Y21300D01*
G01X8100Y21300D02*
G01X8250Y21250D01*
G01X36374Y14098D02*
G01X36374Y14068D01*
G01X36374Y14068D02*
G01X36324Y14118D01*
G01X36324Y14118D02*
G01X35124Y14118D01*
G01X14624Y16118D02*
G01X13424Y16118D01*
G01X13424Y16118D02*
G01X13374Y16068D01*
G01X13374Y16068D02*
G01X13372Y16118D01*
G01X13576Y17750D02*
G01X13950Y17750D01*
G01X13950Y17750D02*
G01X14100Y17900D01*
G01X14100Y17900D02*
G01X14500Y17900D01*
G01X14500Y17900D02*
G01X14624Y17868D01*
G01X13576Y17750D02*
G01X13576Y17076D01*
G01X13576Y17076D02*
G01X13400Y16900D01*
G01X13400Y16900D02*
G01X13400Y16300D01*
G01X13400Y16300D02*
G01X13372Y16118D01*
G01X26124Y9368D02*
G01X26137Y10168D01*
G01X26137Y10168D02*
G01X26137Y10768D01*
G01X26137Y10768D02*
G01X26337Y10968D01*
G01X26337Y10968D02*
G01X26737Y10968D01*
G01X26737Y10968D02*
G01X26874Y11105D01*
G01X26874Y11105D02*
G01X26874Y11618D01*
G01X26124Y9368D02*
G01X24437Y9368D01*
G01X7000Y11500D02*
G01X6700Y11500D01*
G01X6700Y11500D02*
G01X6500Y11300D01*
G01X6500Y11300D02*
G01X6500Y10800D01*
G01X6500Y10800D02*
G01X6300Y10600D01*
G01X6300Y10600D02*
G01X6250Y10550D01*
G01X6250Y10550D02*
G01X6250Y9250D01*
G01X5663Y12734D02*
G01X5700Y12800D01*
G01X5700Y12800D02*
G01X6400Y12800D01*
G01X6400Y12800D02*
G01X7000Y12200D01*
G01X7000Y12200D02*
G01X7000Y11500D01*
G01X30374Y13098D02*
G01X30104Y13098D01*
G01X30104Y13098D02*
G01X29874Y12868D01*
G01X29874Y12868D02*
G01X28624Y12868D01*
G01X9374Y13476D02*
G01X9374Y13468D01*
G01X9374Y13468D02*
G01X10074Y13468D01*
G01X10074Y13468D02*
G01X10674Y12868D01*
G01X10674Y12868D02*
G01X11124Y12868D01*
G01X9374Y13476D02*
G01X9374Y13868D01*
G01X9374Y13868D02*
G01X9474Y13968D01*
G01X9474Y13968D02*
G01X10074Y13968D01*
G01X10074Y13968D02*
G01X10274Y14168D01*
G01X10274Y14168D02*
G01X10274Y15168D01*
G01X10274Y15168D02*
G01X10474Y15368D01*
G01X10474Y15368D02*
G01X10875Y15368D01*
G01X23624Y3618D02*
G01X23637Y3568D01*
G01X23637Y3568D02*
G01X23687Y3618D01*
G01X23687Y3618D02*
G01X25374Y3618D01*
G01X25374Y3618D02*
G01X25374Y5505D01*
G01X25374Y5505D02*
G01X25537Y5668D01*
G01X25537Y5668D02*
G01X26137Y5668D01*
G01X26137Y5668D02*
G01X26124Y5628D01*
G54D124*
G01X17000Y28400D03*
G54D123*
G01X17000Y28400D02*
G01X16954Y28354D01*
G01X16954Y28354D02*
G01X16954Y27972D01*
G01X50622Y15118D02*
G01X50674Y15068D01*
G01X50674Y15068D02*
G01X50624Y15018D01*
G01X50624Y15018D02*
G01X50624Y13868D01*
G01X51874Y14368D02*
G01X51874Y14168D01*
G01X51874Y14168D02*
G01X51574Y13868D01*
G01X51574Y13868D02*
G01X50624Y13868D01*
G01X48124Y13866D02*
G01X48872Y13866D01*
G01X48872Y13866D02*
G01X48874Y13868D01*
G54D124*
G01X48874Y13868D03*
G01X51174Y14468D03*
G54D123*
G01X51174Y14468D02*
G01X51174Y14168D01*
G01X51174Y14168D02*
G01X50674Y13668D01*
G01X50674Y13668D02*
G01X50624Y13868D01*
G01X12374Y13118D02*
G01X12174Y13168D01*
G01X12174Y13168D02*
G01X11974Y13168D01*
G01X11974Y13168D02*
G01X11774Y12968D01*
G01X11774Y12968D02*
G01X11774Y12568D01*
G01X11774Y12568D02*
G01X11474Y12268D01*
G01X11474Y12268D02*
G01X9374Y12268D01*
G01X9374Y12268D02*
G01X8574Y13068D01*
G01X8574Y13068D02*
G01X8574Y15274D01*
G01X8574Y15274D02*
G01X9000Y15700D01*
G01X9000Y15700D02*
G01X9000Y16200D01*
G01X9000Y16200D02*
G01X9000Y16250D01*
G01X15336Y12015D02*
G01X15300Y12000D01*
G01X15300Y12000D02*
G01X15300Y11300D01*
G54D124*
G01X15300Y11300D03*
G01X13100Y13100D03*
G54D123*
G01X13100Y13100D02*
G01X13081Y13118D01*
G01X13081Y13118D02*
G01X12374Y13118D01*
G01X41624Y23248D02*
G01X40694Y23248D01*
G01X40694Y23248D02*
G01X40674Y23268D01*
G01X40674Y23268D02*
G01X40624Y23118D01*
G01X41874Y27868D02*
G01X41874Y27168D01*
G01X41874Y27168D02*
G01X41174Y26468D01*
G01X41174Y26468D02*
G01X41174Y25868D01*
G01X41174Y25868D02*
G01X41124Y25866D01*
G01X41624Y23248D02*
G01X41854Y23248D01*
G01X41854Y23248D02*
G01X42074Y23468D01*
G01X42074Y23468D02*
G01X42074Y23868D01*
G01X42074Y23868D02*
G01X41474Y24468D01*
G01X41474Y24468D02*
G01X40774Y24468D01*
G01X40774Y24468D02*
G01X40474Y24768D01*
G01X40474Y24768D02*
G01X40474Y25468D01*
G01X40474Y25468D02*
G01X40774Y25768D01*
G01X40774Y25768D02*
G01X40974Y25768D01*
G01X40974Y25768D02*
G01X41124Y25866D01*
G01X16639Y27972D02*
G01X16639Y28360D01*
G01X16639Y28360D02*
G01X16600Y28400D01*
G54D124*
G01X16600Y28400D03*
G54D123*
G01X48624Y17366D02*
G01X48674Y17368D01*
G01X48674Y17368D02*
G01X49174Y17368D01*
G01X49174Y17368D02*
G01X49924Y16618D01*
G01X49924Y16618D02*
G01X50374Y16618D01*
G01X47124Y16618D02*
G01X47124Y17424D01*
G01X47124Y17424D02*
G01X47200Y17500D01*
G01X47200Y17500D02*
G01X47248Y17500D01*
G01X48624Y17366D02*
G01X48500Y17300D01*
G01X48500Y17300D02*
G01X48000Y17300D01*
G01X48000Y17300D02*
G01X47800Y17500D01*
G01X47800Y17500D02*
G01X47248Y17500D01*
G01X10750Y19000D02*
G01X10400Y19000D01*
G01X10400Y19000D02*
G01X10200Y19200D01*
G01X10200Y19200D02*
G01X10200Y20500D01*
G01X10200Y20500D02*
G01X10000Y20700D01*
G01X10000Y20700D02*
G01X10000Y21300D01*
G01X10000Y21300D02*
G01X9998Y21250D01*
G01X10000Y25501D02*
G01X10000Y25400D01*
G01X10000Y25400D02*
G01X10000Y25100D01*
G01X10000Y25100D02*
G01X9800Y24900D01*
G01X9800Y24900D02*
G01X9800Y24600D01*
G54D124*
G01X9800Y24600D03*
G01X9200Y22500D03*
G54D123*
G01X9200Y22500D02*
G01X10000Y21700D01*
G01X10000Y21700D02*
G01X10000Y21300D01*
G01X10000Y21300D02*
G01X9998Y21250D01*
G01X52750Y4000D02*
G01X51500Y4000D01*
G01X51500Y4000D02*
G01X51500Y4001D01*
G01X10750Y19000D02*
G01X10800Y18900D01*
G01X10800Y18900D02*
G01X10800Y18300D01*
G01X10800Y18300D02*
G01X10600Y18100D01*
G54D124*
G01X10600Y18100D03*
G01X50800Y4000D03*
G54D123*
G01X50800Y4000D02*
G01X51400Y4000D01*
G01X51400Y4000D02*
G01X51500Y4001D01*
G01X10750Y19000D02*
G01X10800Y18900D01*
G01X10800Y18900D02*
G01X10800Y18300D01*
G01X10800Y18300D02*
G01X10600Y18100D01*
G01X10600Y18100D02*
G01X10300Y18100D01*
G01X10300Y18100D02*
G01X10250Y18050D01*
G01X10250Y18050D02*
G01X10250Y17500D01*
G01X19437Y5618D02*
G01X19437Y4118D01*
G01X18000Y3326D02*
G01X17900Y3268D01*
G01X17900Y3268D02*
G01X18500Y3268D01*
G01X18500Y3268D02*
G01X18800Y3568D01*
G01X18800Y3568D02*
G01X18800Y3968D01*
G01X18800Y3968D02*
G01X18950Y4118D01*
G01X18950Y4118D02*
G01X19437Y4118D01*
G01X29624Y19368D02*
G01X29674Y19368D01*
G01X29674Y19368D02*
G01X29625Y19416D01*
G01X29625Y19416D02*
G01X29625Y21368D01*
G01X29624Y19368D02*
G01X29674Y19468D01*
G01X29674Y19468D02*
G01X30074Y19468D01*
G01X30074Y19468D02*
G01X30274Y19268D01*
G01X30274Y19268D02*
G01X30274Y18068D01*
G01X30274Y18068D02*
G01X31124Y17218D01*
G01X31124Y17218D02*
G01X31124Y16868D01*
G01X31622Y26118D02*
G01X31674Y26068D01*
G01X31674Y26068D02*
G01X31674Y25568D01*
G01X31674Y25568D02*
G01X30574Y24468D01*
G01X30574Y24468D02*
G01X30574Y22968D01*
G01X30574Y22968D02*
G01X29625Y22020D01*
G01X29625Y22020D02*
G01X29625Y21368D01*
G01X27423Y29250D02*
G01X27400Y29300D01*
G01X27400Y29300D02*
G01X27400Y29700D01*
G01X27400Y29700D02*
G01X27818Y30118D01*
G01X27818Y30118D02*
G01X29374Y30118D01*
G01X29374Y30118D02*
G01X29400Y30200D01*
G01X29400Y30200D02*
G01X29400Y30800D01*
G54D124*
G01X29400Y30800D03*
G01X32300Y26200D03*
G54D123*
G01X32300Y26200D02*
G01X32218Y26118D01*
G01X32218Y26118D02*
G01X31622Y26118D01*
G01X42644Y22868D02*
G01X42644Y22638D01*
G01X42644Y22638D02*
G01X42474Y22468D01*
G01X42474Y22468D02*
G01X42074Y22468D01*
G01X42074Y22468D02*
G01X41674Y22068D01*
G01X41674Y22068D02*
G01X41674Y21468D01*
G01X41674Y21468D02*
G01X41624Y21368D01*
G01X14277Y27185D02*
G01X14300Y27200D01*
G01X14300Y27200D02*
G01X13400Y27200D01*
G54D124*
G01X13400Y27200D03*
G01X13400Y24100D03*
G54D123*
G01X13400Y24100D02*
G01X13400Y22500D01*
G54D124*
G01X13400Y22500D03*
G54D123*
G01X53624Y16368D02*
G01X52974Y16368D01*
G01X52974Y16368D02*
G01X52774Y16168D01*
G01X52774Y16168D02*
G01X52774Y15568D01*
G01X52774Y15568D02*
G01X52374Y15168D01*
G01X52374Y15168D02*
G01X51974Y15168D01*
G01X51974Y15168D02*
G01X51874Y15116D01*
G01X18915Y23900D02*
G01X18900Y23900D01*
G01X18900Y23900D02*
G01X18900Y23400D01*
G01X18900Y23400D02*
G01X18300Y22800D01*
G01X18300Y22800D02*
G01X14600Y22800D01*
G54D124*
G01X14600Y22800D03*
G01X10400Y24800D03*
G54D123*
G01X10400Y24800D02*
G01X10100Y24500D01*
G01X10100Y24500D02*
G01X10100Y23600D01*
G01X10100Y23600D02*
G01X10000Y23498D01*
G01X39913Y5234D02*
G01X39900Y5300D01*
G01X39900Y5300D02*
G01X39900Y5600D01*
G01X39900Y5600D02*
G01X39750Y5750D01*
G01X39750Y5750D02*
G01X39750Y6100D01*
G01X39913Y5234D02*
G01X41334Y5234D01*
G01X41334Y5234D02*
G01X41400Y5300D01*
G01X41400Y5300D02*
G01X41413Y5234D01*
G01X41413Y5234D02*
G01X42365Y5234D01*
G01X42365Y5234D02*
G01X43500Y4100D01*
G01X43500Y4100D02*
G01X43500Y3300D01*
G01X43500Y3300D02*
G01X43498Y3250D01*
G01X30374Y21368D02*
G01X30374Y20825D01*
G01X30374Y20825D02*
G01X30900Y20300D01*
G01X30900Y20300D02*
G01X30900Y19400D01*
G01X30900Y19400D02*
G01X30874Y19368D01*
G01X31836Y21015D02*
G01X31800Y21000D01*
G01X31800Y21000D02*
G01X31100Y21000D01*
G01X31100Y21000D02*
G01X30731Y21368D01*
G01X30731Y21368D02*
G01X30374Y21368D01*
G54D125*
G01X46389Y24527D02*
G01X46374Y24568D01*
G01X46374Y24568D02*
G01X46374Y23468D01*
G01X46374Y23468D02*
G01X46108Y23202D01*
G01X46108Y23202D02*
G01X46108Y21868D01*
G54D123*
G01X14750Y27972D02*
G01X14750Y28250D01*
G01X14750Y28250D02*
G01X14600Y28400D01*
G01X14600Y28400D02*
G01X13600Y28400D01*
G01X13600Y28400D02*
G01X13000Y29000D01*
G01X13000Y29000D02*
G01X12400Y29000D01*
G01X12400Y29000D02*
G01X12000Y29400D01*
G01X12000Y29400D02*
G01X10300Y29400D01*
G01X10300Y29400D02*
G01X10100Y29600D01*
G01X10100Y29600D02*
G01X7500Y29600D01*
G01X7500Y29600D02*
G01X7300Y29800D01*
G01X7300Y29800D02*
G01X7300Y30200D01*
G01X7300Y30200D02*
G01X7250Y30250D01*
G01X27874Y8868D02*
G01X27874Y6868D01*
G01X27874Y8868D02*
G01X27874Y9568D01*
G01X27874Y9568D02*
G01X28574Y10268D01*
G01X28574Y10268D02*
G01X28574Y10768D01*
G01X28574Y10768D02*
G01X28622Y10868D01*
G01X28622Y10868D02*
G01X28622Y12022D01*
G01X28622Y12022D02*
G01X28700Y12100D01*
G54D124*
G01X28700Y12100D03*
G01X22700Y14000D03*
G54D123*
G01X22700Y14000D02*
G01X22700Y15800D01*
G54D124*
G01X22700Y15800D03*
G01X14800Y24300D03*
G54D123*
G01X14800Y24300D02*
G01X14800Y24800D01*
G01X14800Y24800D02*
G01X14750Y24822D01*
G01X8751Y1750D02*
G01X8700Y1700D01*
G01X8700Y1700D02*
G01X8700Y1300D01*
G01X8700Y1300D02*
G01X8800Y1200D01*
G01X8800Y1200D02*
G01X10700Y1200D01*
G01X10700Y1200D02*
G01X10750Y1250D01*
G01X10750Y1250D02*
G01X10750Y1750D01*
G01X7500Y2500D02*
G01X8500Y2500D01*
G01X8500Y2500D02*
G01X8700Y2300D01*
G01X8700Y2300D02*
G01X8700Y1800D01*
G01X8700Y1800D02*
G01X8751Y1750D01*
G01X36250Y1250D02*
G01X37050Y1250D01*
G01X37050Y1250D02*
G01X37500Y1700D01*
G01X37500Y1700D02*
G01X37500Y3200D01*
G01X37500Y3200D02*
G01X37500Y3250D01*
G01X37500Y3250D02*
G01X37500Y3300D01*
G01X37500Y3300D02*
G01X37500Y3800D01*
G01X37500Y3800D02*
G01X37800Y4100D01*
G01X37800Y4100D02*
G01X38700Y4100D01*
G01X38700Y4100D02*
G01X39550Y3250D01*
G01X39550Y3250D02*
G01X42750Y3250D01*
G01X36374Y20118D02*
G01X35324Y20118D01*
G01X35324Y20118D02*
G01X35174Y19968D01*
G01X35174Y19968D02*
G01X34174Y19968D01*
G01X34174Y19968D02*
G01X34224Y19896D01*
G01X38374Y21368D02*
G01X37774Y21368D01*
G01X37774Y21368D02*
G01X37374Y20968D01*
G01X37374Y20968D02*
G01X36674Y20968D01*
G01X36674Y20968D02*
G01X36374Y20668D01*
G01X36374Y20668D02*
G01X36374Y20118D01*
G01X33624Y26368D02*
G01X33624Y25224D01*
G01X33624Y25224D02*
G01X33000Y24600D01*
G01X33000Y24600D02*
G01X33000Y22500D01*
G01X33000Y22500D02*
G01X34200Y21300D01*
G01X34200Y21300D02*
G01X34200Y19800D01*
G01X34200Y19800D02*
G01X34224Y19896D01*
G01X31250Y24250D02*
G01X31250Y24550D01*
G01X31250Y24550D02*
G01X31500Y24800D01*
G01X31500Y24800D02*
G01X31800Y24800D01*
G01X31800Y24800D02*
G01X33200Y26200D01*
G01X33200Y26200D02*
G01X33600Y26200D01*
G01X33600Y26200D02*
G01X33624Y26368D01*
G54D125*
G01X49608Y25709D02*
G01X49674Y25768D01*
G01X49674Y25768D02*
G01X49614Y25709D01*
G01X49614Y25709D02*
G01X47374Y25709D01*
G01X47374Y25709D02*
G01X47374Y21868D01*
G54D126*
G01X45750Y19500D02*
G01X45750Y20150D01*
G01X45750Y20150D02*
G01X46300Y20700D01*
G01X46300Y20700D02*
G01X47000Y20700D01*
G01X47000Y20700D02*
G01X47300Y21000D01*
G01X47300Y21000D02*
G01X47300Y21800D01*
G01X47300Y21800D02*
G01X47374Y21868D01*
G54D123*
G01X15064Y27972D02*
G01X15064Y28435D01*
G01X15064Y28435D02*
G01X14900Y28600D01*
G01X14900Y28600D02*
G01X13700Y28600D01*
G01X13700Y28600D02*
G01X13100Y29200D01*
G01X13100Y29200D02*
G01X12500Y29200D01*
G01X12500Y29200D02*
G01X12100Y29600D01*
G01X12100Y29600D02*
G01X10500Y29600D01*
G01X10500Y29600D02*
G01X10200Y29900D01*
G01X10200Y29900D02*
G01X10200Y30200D01*
G01X10200Y30200D02*
G01X10250Y30250D01*

G04 Draw Text*
G54D127*
G01X43500Y13813D02*
G01X43500Y13250D01*
G01X43500Y13813D02*
G01X43741Y13813D01*
G01X43741Y13813D02*
G01X43822Y13786D01*
G01X43822Y13786D02*
G01X43848Y13760D01*
G01X43848Y13760D02*
G01X43875Y13706D01*
G01X43875Y13706D02*
G01X43875Y13652D01*
G01X43875Y13652D02*
G01X43848Y13598D01*
G01X43848Y13598D02*
G01X43822Y13572D01*
G01X43822Y13572D02*
G01X43741Y13545D01*
G01X43741Y13545D02*
G01X43500Y13545D01*
G01X43687Y13545D02*
G01X43875Y13250D01*
G01X44090Y13464D02*
G01X44412Y13464D01*
G01X44412Y13464D02*
G01X44412Y13518D01*
G01X44412Y13518D02*
G01X44385Y13572D01*
G01X44385Y13572D02*
G01X44358Y13598D01*
G01X44358Y13598D02*
G01X44305Y13625D01*
G01X44305Y13625D02*
G01X44224Y13625D01*
G01X44224Y13625D02*
G01X44171Y13598D01*
G01X44171Y13598D02*
G01X44117Y13545D01*
G01X44117Y13545D02*
G01X44090Y13464D01*
G01X44090Y13464D02*
G01X44090Y13411D01*
G01X44090Y13411D02*
G01X44117Y13330D01*
G01X44117Y13330D02*
G01X44171Y13276D01*
G01X44171Y13276D02*
G01X44224Y13250D01*
G01X44224Y13250D02*
G01X44305Y13250D01*
G01X44305Y13250D02*
G01X44358Y13276D01*
G01X44358Y13276D02*
G01X44412Y13330D01*
G01X44627Y13625D02*
G01X44788Y13250D01*
G01X44949Y13625D02*
G01X44788Y13250D01*
G01X45808Y13813D02*
G01X45593Y13250D01*
G01X45808Y13813D02*
G01X46023Y13250D01*
G01X45674Y13437D02*
G01X45942Y13437D01*
G01X43526Y12929D02*
G01X43526Y12956D01*
G01X43526Y12956D02*
G01X43553Y13010D01*
G01X43553Y13010D02*
G01X43580Y13036D01*
G01X43580Y13036D02*
G01X43634Y13063D01*
G01X43634Y13063D02*
G01X43741Y13063D01*
G01X43741Y13063D02*
G01X43795Y13036D01*
G01X43795Y13036D02*
G01X43822Y13010D01*
G01X43822Y13010D02*
G01X43848Y12956D01*
G01X43848Y12956D02*
G01X43848Y12902D01*
G01X43848Y12902D02*
G01X43822Y12848D01*
G01X43822Y12848D02*
G01X43768Y12768D01*
G01X43768Y12768D02*
G01X43500Y12500D01*
G01X43500Y12500D02*
G01X43875Y12500D01*
G01X44251Y13063D02*
G01X44171Y13036D01*
G01X44171Y13036D02*
G01X44117Y12956D01*
G01X44117Y12956D02*
G01X44090Y12822D01*
G01X44090Y12822D02*
G01X44090Y12741D01*
G01X44090Y12741D02*
G01X44117Y12607D01*
G01X44117Y12607D02*
G01X44171Y12526D01*
G01X44171Y12526D02*
G01X44251Y12500D01*
G01X44251Y12500D02*
G01X44305Y12500D01*
G01X44305Y12500D02*
G01X44385Y12526D01*
G01X44385Y12526D02*
G01X44439Y12607D01*
G01X44439Y12607D02*
G01X44466Y12741D01*
G01X44466Y12741D02*
G01X44466Y12822D01*
G01X44466Y12822D02*
G01X44439Y12956D01*
G01X44439Y12956D02*
G01X44385Y13036D01*
G01X44385Y13036D02*
G01X44305Y13063D01*
G01X44305Y13063D02*
G01X44251Y13063D01*
G01X44681Y12956D02*
G01X44734Y12983D01*
G01X44734Y12983D02*
G01X44815Y13063D01*
G01X44815Y13063D02*
G01X44815Y12500D01*
G01X45030Y12956D02*
G01X45083Y12983D01*
G01X45083Y12983D02*
G01X45164Y13063D01*
G01X45164Y13063D02*
G01X45164Y12500D01*
M00*
M02*
